<svg width="30" height="27" viewBox="0 0 30 27" fill="none" xmlns="http://www.w3.org/2000/svg">
<path d="M20.9762 26.2778H3.81438C3.49124 26.2778 3.22925 26.0147 3.22925 25.6901V23.8012C3.22925 22.1302 4.58264 20.7708 6.24632 20.7708H18.6357C20.2488 20.7708 21.5614 22.0891 21.5614 23.7094V25.6901C21.5614 26.0147 21.2994 26.2778 20.9762 26.2778ZM4.3995 25.1024H20.3911V23.7094C20.3911 22.7371 19.6037 21.9462 18.6357 21.9462H6.24632C5.22806 21.9462 4.3995 22.7784 4.3995 23.8012V25.1024Z" fill="#3C3C3B" stroke="#3C3C3B" stroke-width="0.5"/>
<path d="M9.5434 21.9462C9.34111 21.9462 9.14455 21.8409 9.03598 21.6523L2.2133 9.78018C2.05216 9.49952 2.1473 9.14108 2.42615 8.97808L2.49643 8.93705C2.77557 8.77347 3.13356 8.86932 3.29641 9.14998C3.35127 9.24497 3.3767 9.34885 3.37555 9.4513L10.0497 21.0646C10.2111 21.3458 10.1151 21.7051 9.83539 21.8675C9.7431 21.9209 9.64254 21.9462 9.5434 21.9462Z" fill="#3C3C3B" stroke="#3C3C3B" stroke-width="0.5"/>
<path d="M16.2257 21.9463C16.0234 21.9463 15.8268 21.841 15.7185 21.6525L8.53327 9.1573C8.37156 8.87635 8.46727 8.51677 8.74727 8.35463C9.0264 8.19105 9.38497 8.28834 9.54639 8.56957L16.7316 21.0647C16.8934 21.3457 16.7976 21.7053 16.5177 21.8674C16.4257 21.9211 16.3248 21.9463 16.2257 21.9463Z" fill="#3C3C3B" stroke="#3C3C3B" stroke-width="0.5"/>
<path d="M5.37675 11.0682C4.25906 11.0682 3.19766 10.6437 2.38797 9.87262C1.50799 9.05876 1 7.89221 1 6.67802C1 4.2571 2.96338 2.2876 5.37675 2.2876C6.975 2.2876 8.44525 3.16373 9.2138 4.57392C9.56265 5.20641 9.74779 5.93475 9.74779 6.67802C9.74779 7.37938 9.59008 8.04172 9.27866 8.64637C9.17609 8.85988 9.05981 9.05302 8.93038 9.22233C8.1324 10.3702 6.79815 11.0682 5.37675 11.0682ZM5.37675 3.46304C3.60879 3.46304 2.17026 4.90538 2.17026 6.67802C2.17026 7.56477 2.54082 8.41593 3.18709 9.01399C3.7845 9.58277 4.55991 9.8927 5.37675 9.8927C6.41644 9.8927 7.39213 9.38246 7.98669 8.52757C8.08383 8.39986 8.15668 8.27733 8.23211 8.12064C8.46382 7.67038 8.57753 7.18969 8.57753 6.67802C8.57753 6.13363 8.44296 5.60215 8.18868 5.14098C7.62413 4.10501 6.5473 3.46304 5.37675 3.46304Z" fill="#3C3C3B" stroke="#3C3C3B" stroke-width="0.5"/>
<path d="M14.6449 5.44394H8.70024C8.37711 5.44394 8.11511 5.18063 8.11511 4.85588C8.11511 4.53113 8.37711 4.26782 8.70024 4.26782H14.6449C14.9681 4.26782 15.2301 4.53113 15.2301 4.85588C15.2301 5.18063 14.9681 5.44394 14.6449 5.44394Z" fill="#3C3C3B" stroke="#3C3C3B" stroke-width="0.5"/>
<path d="M14.6451 9.45199H9.03978C8.71664 9.45199 8.45465 9.18869 8.45465 8.86394C8.45465 8.53918 8.71664 8.27588 9.03978 8.27588H14.6451C14.9682 8.27588 15.2302 8.53918 15.2302 8.86394C15.2302 9.18869 14.9682 9.45199 14.6451 9.45199Z" fill="#3C3C3B" stroke="#3C3C3B" stroke-width="0.5"/>
<path d="M18.0274 10.6971H15.2537C14.5955 10.6971 14.0601 10.1593 14.0601 9.49815V4.17937C14.0601 3.51502 14.5955 2.97437 15.2537 2.97437H18.0274C18.2502 2.97437 18.4688 3.03807 18.66 3.15832C19.0119 3.38187 19.2211 3.76326 19.2211 4.17937V9.49815C19.2211 9.73749 19.1511 9.96621 19.0191 10.1599C18.8168 10.4879 18.4408 10.6971 18.0274 10.6971ZM15.2537 4.14981L15.2303 9.49815L18.0274 9.52168L18.0508 4.17937C18.0508 4.16646 18.0503 4.16158 18.0363 4.15297L15.2537 4.14981Z" fill="#3C3C3B" stroke="#3C3C3B" stroke-width="0.5"/>
<path d="M28.4658 4.68556C28.397 4.68556 28.327 4.67322 28.259 4.64739L21.9146 2.23674L18.6449 4.16348C18.3667 4.32737 18.0075 4.2338 17.8444 3.95396C17.6807 3.67412 17.7741 3.31391 18.053 3.14974L21.5637 1.08064C21.7166 0.990518 21.9014 0.975593 22.0666 1.03759L28.6727 3.54755C28.975 3.66264 29.1275 4.00189 29.0132 4.30527C28.9247 4.54062 28.7021 4.68528 28.4658 4.68556Z" fill="#3C3C3B" stroke="#3C3C3B" stroke-width="0.5"/>
<path d="M21.9302 12.3547C21.8299 12.3547 21.7302 12.3289 21.6407 12.2778L18.2471 10.3382C17.9663 10.1777 17.8683 9.81868 18.028 9.53654C18.1874 9.2547 18.5448 9.15596 18.826 9.3164L21.977 11.1174L28.288 8.63934C28.5903 8.52051 28.9283 8.67091 29.046 8.97256C29.1637 9.27507 29.0151 9.61605 28.7143 9.73401L22.1433 12.3143C22.0744 12.3413 22.0022 12.3547 21.9302 12.3547Z" fill="#3C3C3B" stroke="#3C3C3B" stroke-width="0.5"/>
<path d="M5.37387 8.75174C4.23504 8.75174 3.30878 7.82137 3.30878 6.67777C3.30878 5.53389 4.23504 4.60352 5.37387 4.60352C6.51241 4.60352 7.43867 5.53389 7.43867 6.67777C7.43867 7.82137 6.51241 8.75174 5.37387 8.75174ZM5.37387 5.77896C4.88045 5.77896 4.47903 6.18216 4.47903 6.67777C4.47903 7.17309 4.88045 7.57629 5.37387 7.57629C5.867 7.57629 6.26841 7.17309 6.26841 6.67777C6.26841 6.18216 5.867 5.77896 5.37387 5.77896Z" fill="#3C3C3B" stroke="#3C3C3B" stroke-width="0.5"/>
</svg>
