<svg width="27" height="27" viewBox="0 0 27 27" fill="none" xmlns="http://www.w3.org/2000/svg">
<path d="M13.1063 0C20.3409 0 26.2137 5.87203 26.2137 13.107C26.2137 20.3416 20.3409 26.214 13.1063 26.214C5.87208 26.214 0 20.3416 0 13.107C0 5.87203 5.87208 0 13.1063 0ZM24.4332 13.9761H22.3959V12.2282H24.4321C24.2429 9.74829 23.261 7.49177 21.7369 5.714L20.2907 7.15921L19.0614 5.92482L20.5054 4.48249C18.7249 2.95469 16.466 1.96884 13.9804 1.77957V3.82669H12.2333V1.77957C9.75065 1.96776 7.49174 2.95182 5.71299 4.47783L7.16063 5.92482L5.93206 7.15921L4.48154 5.70934C2.95561 7.48926 1.96981 9.74541 1.78055 12.2282H3.82685V13.9761H1.77983C1.84699 14.8686 2.01793 15.7316 2.27902 16.5537H23.934C24.1958 15.7316 24.3657 14.8686 24.4332 13.9761ZM15.32 10.8588C18.2839 13.7743 13.8267 18.2863 10.8718 15.3815C9.92267 14.4466 8.02469 10.2321 7.07516 8.35588L8.23298 7.17824C10.1245 8.09658 14.3697 9.92463 15.32 10.8588ZM14.0939 12.1046C13.7865 11.8026 11.5958 10.7341 9.78908 9.86752C10.6855 11.66 11.7905 13.8325 12.0968 14.1356C13.4148 15.4314 15.45 13.4378 14.0939 12.1046ZM12.0333 13.107C12.0333 12.5148 12.5127 12.0346 13.1045 12.0346C13.6967 12.0346 14.1769 12.5148 14.1769 13.107C14.1769 13.6989 13.6967 14.1791 13.1045 14.1791C12.5127 14.1791 12.0333 13.6989 12.0333 13.107ZM23.2118 18.3006H3.00194C4.9344 22.0706 8.81692 24.4668 13.1063 24.4668C17.3972 24.4668 21.2793 22.0706 23.2118 18.3006Z" fill="#3C3C3B"/>
</svg>
