<svg width="28" height="28" viewBox="0 0 28 28" fill="none" xmlns="http://www.w3.org/2000/svg">
<path d="M25.4413 19.8045L19.6104 15.2675C19.4949 14.6318 19.1486 14.0538 18.629 13.7071L20.1877 12.1466C20.5918 12.2333 20.996 12.2911 21.3712 12.2911C21.8619 12.2911 22.3526 12.2333 22.8434 12.0888C24.2866 11.7131 25.499 10.7595 26.2495 9.4591C27.3175 7.58075 27.2309 5.24004 26.0186 3.44838C25.8742 3.2461 25.6433 3.13051 25.3835 3.13051C25.1237 3.13051 24.9217 3.275 24.7773 3.47728L23.4495 5.7602L21.8042 5.87579L21.0826 4.37311L22.3815 2.09019C22.497 1.88791 22.497 1.59893 22.3815 1.39665C22.266 1.16547 22.0351 1.02098 21.8042 1.02098C19.6393 0.847592 17.5609 1.9457 16.4929 3.82405C15.7713 5.03776 15.5692 6.48264 15.8867 7.84083L13.2022 10.5283L7.37139 4.69098V3.36169C7.37139 3.10161 7.22706 2.84153 6.96727 2.72594L3.70546 1.07877C3.4168 0.934286 3.09928 0.992081 2.86835 1.22326L1.22301 2.87043C0.99209 3.10161 0.934359 3.41949 1.07869 3.70846L2.72403 6.9739C2.83949 7.20508 3.09928 7.37847 3.35907 7.37847H4.68689L10.5466 13.1869L7.8621 15.8744C6.99614 15.6721 6.07244 15.701 5.20647 15.9322C3.76319 16.3079 2.55083 17.2615 1.80033 18.5619C0.732299 20.4402 0.818896 22.7809 2.03125 24.5726C2.17558 24.7749 2.4065 24.8905 2.66629 24.8905C2.92609 24.8905 3.12814 24.746 3.27247 24.5437L4.60029 22.2608L6.24563 22.1452L6.96727 23.6479L5.63945 25.9019C5.52399 26.1042 5.52399 26.3931 5.63945 26.5954C5.75491 26.7977 5.98584 26.9711 6.21676 26.9711C6.36109 26.9711 6.50542 27 6.64975 27C8.64148 27 10.5177 25.9308 11.528 24.1969C12.2497 22.9254 12.4229 21.5094 12.1342 20.1801L13.693 18.6197C14.0393 19.1398 14.6167 19.5155 15.2517 19.6022L19.7836 25.4395C20.563 26.422 21.7176 27 22.9588 27C25.2103 27 27 25.2083 27 22.9832C27 21.7406 26.4227 20.5847 25.4413 19.8045ZM17.7341 4.5465C18.3115 3.53508 19.3217 2.81264 20.4475 2.55256L19.6104 3.99744C19.4949 4.19972 19.4949 4.4598 19.6104 4.69098L20.7362 6.945C20.8516 7.20508 21.1403 7.37847 21.4289 7.34957L23.9402 7.17619C24.1712 7.14729 24.4021 7.0317 24.5176 6.82941L25.3547 5.38453C25.701 6.48264 25.5856 7.72524 24.9794 8.73666C24.431 9.71918 23.5073 10.4127 22.4392 10.7017C21.3712 10.9907 20.2454 10.8462 19.264 10.2971C18.2826 9.74808 17.5898 8.82335 17.3012 7.75414C17.0414 6.62713 17.1857 5.50012 17.7341 4.5465ZM16.4352 9.31461C16.9259 10.2104 17.6475 10.9618 18.5712 11.5108C18.6001 11.5397 18.6578 11.5686 18.6867 11.5686L16.7816 13.4759L16.4641 13.7938L14.2125 11.5397L16.4352 9.31461ZM10.2868 23.4745C9.7095 24.4859 8.69921 25.2083 7.57345 25.4684L8.41055 24.0235C8.52601 23.8213 8.52601 23.5612 8.43942 23.33L7.31366 21.076C7.19819 20.8159 6.9384 20.6714 6.67861 20.6714C6.64975 20.6714 6.64975 20.6714 6.62088 20.6714L4.10958 20.8448C3.87865 20.8737 3.64773 20.9893 3.53226 21.1916L2.69516 22.6364C2.34877 21.5383 2.46424 20.2957 3.07041 19.2843C3.61886 18.3018 4.54256 17.6083 5.61059 17.3193C6.67861 17.0303 7.80437 17.1748 8.7858 17.7238C10.7487 18.8797 11.4414 21.4516 10.2868 23.4745ZM13.4909 16.7702L11.5858 18.6775C11.0951 17.7816 10.4023 17.0303 9.44971 16.4812C9.42085 16.4523 9.36312 16.4523 9.33425 16.4234L11.5569 14.1983L13.8084 16.4523L13.4909 16.7702ZM5.52399 6.10697C5.37966 5.96248 5.20647 5.90469 5.00441 5.90469H3.82092L2.60856 3.50618L3.5034 2.61035L5.89924 3.82405V5.00886C5.89924 5.21114 5.98584 5.38453 6.1013 5.52902L15.4538 14.8052L14.8187 15.4409L5.52399 6.10697ZM14.761 17.5216L17.5321 14.7474C17.8207 14.8341 18.0517 15.0653 18.1383 15.3542L15.3672 18.1284C15.0785 18.0706 14.8476 17.8394 14.761 17.5216ZM22.9877 25.5551C22.1794 25.5551 21.4578 25.1794 20.9671 24.5726L16.6084 18.9664L18.9754 16.5968L24.5753 20.9315C25.2103 21.4227 25.5567 22.1741 25.5567 22.9543C25.5567 24.3992 24.4021 25.5551 22.9877 25.5551Z" fill="#3C3C3B" stroke="#3C3C3B" stroke-width="0.2"/>
</svg>
