<svg width="27" height="34" viewBox="0 0 27 34" fill="none" xmlns="http://www.w3.org/2000/svg">
<path d="M24.9245 7.80942C25.637 7.80942 26.2137 7.257 26.2137 6.57635C26.2137 6.43126 26.2137 4.93226 26.2137 4.93226C26.2137 2.21952 23.8932 0 21.0569 0H5.1568C2.32056 0 0 2.21952 0 4.93226V22.6062C0 25.319 2.32056 27.5385 5.1568 27.5385H14.6109V32.0597H12.4623C11.9896 32.0597 11.6028 32.4296 11.6028 32.8818C11.6028 33.3343 11.9896 33.7038 12.4623 33.7038H21.9164C22.3895 33.7038 22.7759 33.3343 22.7759 32.8818C22.7759 32.4296 22.3895 32.0597 21.9164 32.0597H19.7677V27.5385H21.0569C23.8932 27.5385 26.2137 25.319 26.2137 22.6062C26.2137 22.6062 26.2137 21.1072 26.2137 20.9621C26.2137 20.2815 25.637 19.7291 24.9245 19.7291C24.8691 19.7291 22.6087 19.7291 19.7677 19.7291V14.3858H20.1975C20.6706 14.3858 21.0569 14.0163 21.0569 13.5637C21.0569 13.1116 20.6706 12.7417 20.1975 12.7417H14.1812C13.7085 12.7417 13.3217 13.1116 13.3217 13.5637C13.3217 14.0163 13.7085 14.3858 14.1812 14.3858H14.6109V19.7291C11.1567 19.7291 8.16494 19.7291 8.16494 19.7291V7.80942C8.16494 7.80942 24.7733 7.80942 24.9245 7.80942ZM18.0488 32.0597H16.3299V27.5385H18.0488V32.0597ZM16.3299 19.4812L17.43 18.9555C17.6951 18.8285 17.8026 18.5198 17.6702 18.2662C17.5374 18.0122 17.2147 17.9095 16.9496 18.0361L16.3299 18.3328V17.4265L17.43 16.9008C17.6951 16.7738 17.8026 16.4651 17.6702 16.2115C17.5374 15.9575 17.2147 15.8548 16.9496 15.9814L16.3299 16.2777V14.3858H18.0488V19.7291C17.482 19.7291 16.9053 19.7291 16.3299 19.7291V19.4812ZM8.16494 21.3731H24.4948V22.6062C24.4948 24.4192 22.9529 25.8944 21.0569 25.8944H5.1568C3.26125 25.8944 1.71893 24.4192 1.71893 22.6062V4.93226C1.71893 3.11925 3.26125 1.64409 5.1568 1.64409H21.0569C22.9529 1.64409 24.4948 3.11925 24.4948 4.93226V6.16533H8.16494C7.21566 6.16533 6.446 6.90147 6.446 7.80942V19.7291C6.446 20.637 7.21566 21.3731 8.16494 21.3731Z" fill="#3C3C3B"/>
</svg>
