<svg width="20" height="34" viewBox="0 0 20 34" fill="none" xmlns="http://www.w3.org/2000/svg">
<path d="M17.2281 14.6421C18.6004 14.6421 19.7246 15.666 19.7246 16.9158V30.5577C19.7246 31.8075 18.6004 32.8314 17.2281 32.8314H3.49705C2.12482 32.8314 1.0005 31.8075 1.0005 30.5577V16.9158C1.0005 15.666 2.12482 14.6421 3.49705 14.6421H17.2281ZM17.2281 15.7789H3.49705C2.79477 15.7789 2.24877 16.2761 2.24877 16.9158V30.5577C2.24877 31.1973 2.79477 31.6946 3.49705 31.6946H17.2281C17.9305 31.6946 18.4763 31.1973 18.4763 30.5577V16.9158C18.4763 16.2761 17.9305 15.7789 17.2281 15.7789Z" fill="#3C3C3B" stroke="#3C3C3B" stroke-width="0.5"/>
<path fill-rule="evenodd" clip-rule="evenodd" d="M14.7314 11.8C15.4135 11.8 15.9797 12.3158 15.9797 12.937V15.211H14.7314V12.937H5.99349V15.211H4.74522V12.937C4.74522 12.3158 5.31156 11.8 5.99349 11.8H14.7314Z" fill="#3C3C3B" stroke="#3C3C3B" stroke-width="0.5"/>
<path fill-rule="evenodd" clip-rule="evenodd" d="M13.4833 11.8V15.211H12.235V11.8H13.4833Z" fill="#3C3C3B" stroke="#3C3C3B" stroke-width="0.5"/>
<path fill-rule="evenodd" clip-rule="evenodd" d="M10.9864 11.8V15.211H9.73812V11.8H10.9864Z" fill="#3C3C3B" stroke="#3C3C3B" stroke-width="0.5"/>
<path fill-rule="evenodd" clip-rule="evenodd" d="M8.49048 11.8V15.211H7.24221V11.8H8.49048Z" fill="#3C3C3B" stroke="#3C3C3B" stroke-width="0.5"/>
<path fill-rule="evenodd" clip-rule="evenodd" d="M11.6107 1C11.765 0.999762 11.9139 1.05153 12.0287 1.14542C12.1436 1.2393 12.2161 1.36863 12.2324 1.50837L13.4807 12.3082L12.2397 12.4282L11.0499 2.13672H9.67734L8.48761 12.4282L7.24657 12.3082L8.49485 1.50837C8.51111 1.36902 8.58333 1.24003 8.69762 1.1462C8.81192 1.05237 8.96024 1.00032 9.11412 1H11.6107Z" fill="#3C3C3B" stroke="#3C3C3B" stroke-width="0.5"/>
<path d="M10.3848 18.6209C10.4821 18.6238 10.5773 18.6474 10.6628 18.6898C10.7483 18.7321 10.8218 18.7921 10.8773 18.865C10.8773 18.865 11.6698 19.9088 12.4644 21.1564C12.8618 21.7802 13.2613 22.4573 13.5689 23.0948C13.8764 23.7322 14.1077 24.3094 14.1077 24.8734C14.1077 26.7502 12.4236 28.2838 10.3628 28.2838C8.30206 28.2838 6.61802 26.7502 6.61802 24.8734C6.61802 24.3094 6.85182 23.7322 7.15927 23.0948C7.46684 22.4573 7.86642 21.7802 8.26374 21.1564C9.05839 19.9088 9.85092 18.865 9.85092 18.865C9.91042 18.7869 9.99046 18.7236 10.0837 18.681C10.177 18.6384 10.2805 18.6177 10.3848 18.6209ZM10.3649 20.2528C10.0801 20.6425 9.85294 20.927 9.34327 21.7272C8.96042 22.3282 8.57982 22.9768 8.30221 23.5523C8.02459 24.1277 7.86581 24.6526 7.86581 24.8735C7.86581 26.1358 8.97615 27.1471 10.3624 27.1471C11.7486 27.1471 12.8589 26.1358 12.8589 24.8735C12.8589 24.6527 12.7026 24.1277 12.425 23.5523C12.1474 22.9768 11.7668 22.3282 11.3839 21.7272C10.8747 20.9276 10.6496 20.6427 10.3649 20.2528H10.3649Z" fill="#3C3C3B" stroke="#3C3C3B" stroke-width="0.5"/>
</svg>
