<svg width="27" height="23" viewBox="0 0 27 23" fill="none" xmlns="http://www.w3.org/2000/svg">
<path d="M26.2137 0H0V22.4691H26.2137V0ZM24.5476 1.788V6.19839H1.66613V1.788H24.5476ZM1.66613 20.6811V7.98638H24.5476V20.6811H1.66613Z" fill="#3C3C3B"/>
<path d="M4.27638 5.42395C5.01252 5.42395 5.60928 4.78344 5.60928 3.99334C5.60928 3.20325 5.01252 2.56274 4.27638 2.56274C3.54024 2.56274 2.94348 3.20325 2.94348 3.99334C2.94348 4.78344 3.54024 5.42395 4.27638 5.42395Z" fill="#3C3C3B"/>
<path d="M7.71962 5.42395C8.45576 5.42395 9.05252 4.78344 9.05252 3.99334C9.05252 3.20325 8.45576 2.56274 7.71962 2.56274C6.98348 2.56274 6.38672 3.20325 6.38672 3.99334C6.38672 4.78344 6.98348 5.42395 7.71962 5.42395Z" fill="#3C3C3B"/>
<path d="M11.3295 5.42395C12.0656 5.42395 12.6624 4.78344 12.6624 3.99334C12.6624 3.20325 12.0656 2.56274 11.3295 2.56274C10.5933 2.56274 9.99658 3.20325 9.99658 3.99334C9.99658 4.78344 10.5933 5.42395 11.3295 5.42395Z" fill="#3C3C3B"/>
<path d="M6.10895 10.5492L9.24682 14.2146L6.10895 17.88L7.33077 19.072L11.4961 14.2146L7.33077 9.35718L6.10895 10.5492Z" fill="#3C3C3B"/>
<path d="M20.1879 16.8667H11.7462V18.6544H20.1879V16.8667Z" fill="#3C3C3B"/>
</svg>
