<svg width="26" height="30" viewBox="0 0 26 30" fill="none" xmlns="http://www.w3.org/2000/svg">
<path d="M25.8146 6.92771H21.8248C22.3619 6.20496 22.6803 5.31041 22.6803 4.34279C22.6803 1.94818 20.7322 0 18.3376 0H18.2565C16.518 0 14.9516 1.03225 14.2659 2.62969L13 5.57859L11.7341 2.62969C11.0484 1.03225 9.48197 0 7.74349 0H7.6624C5.26779 0 3.31966 1.94818 3.31966 4.34279C3.31966 5.31047 3.63806 6.20496 4.17519 6.92771H0.185425V13.9171H1.658V30H24.342V13.9171H25.8146V6.92771ZM3.41582 28.2422V13.9171H22.5842V28.2422H3.41582ZM5.07742 4.34279C5.07742 2.91744 6.23699 1.75781 7.66234 1.75781H7.74343C8.77826 1.75781 9.7106 2.37223 10.1188 3.32309L11.6662 6.92771H7.66228C6.23705 6.92771 5.07742 5.76809 5.07742 4.34279ZM18.2565 1.75781H18.3376C19.7629 1.75781 20.9225 2.91744 20.9225 4.34279C20.9225 5.76814 19.7629 6.92771 18.3376 6.92771H14.3338L15.8812 3.32309C16.2893 2.37223 17.2217 1.75781 18.2565 1.75781ZM15.2461 12.1593H10.7539V8.68553H15.2461V12.1593ZM1.94324 8.68553H8.99611V12.1593H1.94324V8.68553ZM24.0568 12.1593H17.0039V8.68553H24.0568V12.1593Z" fill="#95B03C"/>
<path d="M14.7811 17.0267L9.26984 25.0977H11.2184L16.7297 17.0267H14.7811Z" fill="#95B03C"/>
<path d="M15.9573 20.7162C14.7351 20.7162 13.8127 21.5348 13.8127 22.9645C13.8127 24.4058 14.7351 25.2129 15.9573 25.2129C17.1794 25.2129 18.1019 24.4058 18.1019 22.9645C18.1018 21.5349 17.1794 20.7162 15.9573 20.7162ZM15.9573 23.9677C15.7036 23.9677 15.45 23.737 15.45 22.9645C15.45 22.192 15.7036 21.9614 15.9573 21.9614C16.2109 21.9614 16.4646 22.192 16.4646 22.9645C16.4646 23.737 16.2109 23.9677 15.9573 23.9677Z" fill="#95B03C"/>
<path d="M12.187 19.1597C12.187 17.7301 11.2646 16.9114 10.0424 16.9114C8.82021 16.9114 7.89783 17.73 7.89783 19.1597C7.89783 20.601 8.82021 21.4081 10.0424 21.4081C11.2646 21.4081 12.187 20.601 12.187 19.1597ZM9.53511 19.1597C9.53511 18.3872 9.78877 18.1566 10.0424 18.1566C10.2961 18.1566 10.5497 18.3872 10.5497 19.1597C10.5497 19.9323 10.2961 20.1629 10.0424 20.1629C9.78877 20.1629 9.53511 19.9323 9.53511 19.1597Z" fill="#95B03C"/>
</svg>
