<svg width="28" height="29" viewBox="0 0 28 29" fill="none" xmlns="http://www.w3.org/2000/svg">
<path d="M3.96403 6.41426H6.84301V8.17299H5.64686C5.40938 8.17299 5.21724 8.36452 5.21724 8.60076V11.6361C5.21724 11.8724 5.40938 12.0639 5.64686 12.0639H7.56884V13.8295C7.56884 14.0658 7.76099 14.2573 7.99846 14.2573H10.1109V18.8814C10.1109 18.9988 10.1592 19.1109 10.2448 19.1918L13.6775 22.4333V26.0556H14.5368V22.4333L17.9692 19.1918C18.0548 19.1109 18.103 18.9988 18.103 18.8814V14.2573H20.2155C20.4529 14.2573 20.6451 14.0658 20.6451 13.8295V12.0639H22.5675C22.8049 12.0639 22.9971 11.8724 22.9971 11.6361V8.60076C22.9971 8.36452 22.8049 8.17299 22.5675 8.17299H21.3713V6.41426H24.2503C24.4097 6.41426 24.5557 6.32653 24.63 6.18637L27.1708 1.39979L26.4114 1L23.9914 5.5587C19.2744 5.5587 8.62224 5.5587 4.22289 5.5587L1.80248 1L1.04309 1.39979L3.58433 6.18637C3.65859 6.32653 3.8046 6.41426 3.96403 6.41426ZM6.07648 9.02854C6.18921 9.02854 7.8156 9.02854 7.77148 9.02854V11.2084H6.07648V9.02854ZM19.5832 11.2084H18.0803V9.02854H19.5832V11.2084ZM17.2211 11.2084H15.7178V9.02854H17.2211V11.2084ZM14.8586 11.2084H13.3553V9.02854H14.8586V11.2084ZM12.4961 11.2084H10.9932V9.02854H12.4961V11.2084ZM10.134 11.2084H8.63073V9.02854H10.134V11.2084ZM17.2438 18.6976L14.1072 21.6596L10.9702 18.6976V14.2573H17.2438V18.6976ZM19.7858 13.4018C16.3847 13.4018 11.82 13.4018 8.42808 13.4018V12.0639H19.7858V13.4018ZM22.1379 11.2084H20.4424V9.02854C21.0546 9.02854 22.182 9.02854 22.1379 9.02854V11.2084ZM20.5121 6.41426V8.17299H7.70225V6.41426H20.5121Z" fill="#3C3C3B" stroke="#3C3C3B" stroke-width="0.8"/>
<path d="M27.2137 27.2944H1V28.1505H27.2137V27.2944Z" fill="#3C3C3B" stroke="#3C3C3B" stroke-width="0.8"/>
</svg>
