<svg width="31" height="31" viewBox="0 0 31 31" fill="none" xmlns="http://www.w3.org/2000/svg">
<path d="M18.4062 9.6875H24.2188C24.7537 9.6875 25.1875 9.2538 25.1875 8.71875V6.29688C25.1875 6.03997 25.0854 5.79355 24.9038 5.61191L23.4507 4.15878C23.269 3.97708 23.0226 3.875 22.7656 3.875H19.8594C19.6024 3.875 19.356 3.97708 19.1743 4.15878L17.7212 5.61191C17.5396 5.79361 17.4375 6.03997 17.4375 6.29688V8.71875C17.4375 9.2538 17.8713 9.6875 18.4062 9.6875ZM19.375 6.69812L20.2606 5.8125H22.3643L23.25 6.69812V7.75H19.375V6.69812Z" fill="#3C3C3B"/>
<path d="M18.4062 17.4375H24.2188C24.7537 17.4375 25.1875 17.0038 25.1875 16.4688V14.0469C25.1875 13.79 25.0854 13.5435 24.9038 13.3619L23.4507 11.9088C23.269 11.7271 23.0226 11.625 22.7656 11.625H19.8594C19.6024 11.625 19.356 11.7271 19.1743 11.9088L17.7212 13.3619C17.5396 13.5436 17.4375 13.79 17.4375 14.0469V16.4688C17.4375 17.0038 17.8713 17.4375 18.4062 17.4375ZM19.375 14.4481L20.2606 13.5625H22.3643L23.25 14.4481V15.5H19.375V14.4481Z" fill="#3C3C3B"/>
<path d="M3.87696 9.67872C3.8729 12.912 6.50469 15.5001 9.68849 15.5001C12.8155 15.5001 15.4759 12.9965 15.5017 9.69628C15.5058 6.45999 12.8705 3.875 9.68934 3.875C6.5673 3.875 3.90275 6.37462 3.87696 9.67872ZM6.24434 11.4583C7.39358 11.7894 8.38086 11.6168 9.40283 11.0288C9.78421 11.7271 9.85947 12.3954 9.18407 13.5285C7.90163 13.3606 6.81493 12.5638 6.24434 11.4583ZM11.4608 13.1321C11.8447 11.7993 11.5008 10.791 11.0306 9.97395C11.7289 9.59256 12.3972 9.51742 13.5303 10.1927C13.3625 11.475 12.566 12.5614 11.4608 13.1321ZM13.134 7.91608C11.8012 7.53209 10.7928 7.87606 9.97578 8.34621C9.5944 7.64792 9.5192 6.97966 10.1945 5.84653C11.4768 6.0143 12.5633 6.81086 13.134 7.91608ZM7.91792 6.24287C7.53393 7.57569 7.8779 8.58403 8.34804 9.40099C7.64975 9.78238 6.98144 9.85752 5.84836 9.18224C6.01614 7.90003 6.81269 6.81358 7.91792 6.24287Z" fill="#3C3C3B"/>
<path d="M30.0312 28.0938H28.0938V26.1562H30.0312C30.5662 26.1562 31 25.7226 31 25.1875C31 24.6524 30.5662 24.2188 30.0312 24.2188H28.0938C28.0938 23.6837 27.66 23.25 27.125 23.25H25.248C23.6527 23.25 22.3418 24.5453 22.3418 26.1593C22.265 26.1546 23.0078 26.1562 8.23438 26.1562C6.89895 26.1562 5.8125 25.0698 5.8125 23.7344V21.3125H28.0938C28.6287 21.3125 29.0625 20.8788 29.0625 20.3438V0.96875C29.0625 0.433697 28.6287 0 28.0938 0H0.96875C0.433758 0 0 0.433697 0 0.96875V20.3438C0 20.8788 0.433758 21.3125 0.96875 21.3125H3.875V23.7344C3.875 26.1381 5.8306 28.0938 8.23438 28.0938C20.5345 28.0938 22.3418 28.0875 22.3418 28.0938C22.3418 29.6963 23.6456 31 25.248 31H27.125C27.66 31 28.0938 30.5663 28.0938 30.0312H30.0312C30.5662 30.0312 31 29.5976 31 29.0625C31 28.5274 30.5662 28.0938 30.0312 28.0938ZM1.9375 19.375V1.9375H27.125V19.375H5.8125V17.4375C5.8125 16.9024 5.37874 16.4688 4.84375 16.4688C4.30876 16.4688 3.875 16.9024 3.875 17.4375V19.375H1.9375ZM25.248 29.0625C24.7139 29.0625 24.2793 28.6279 24.2793 28.0938V26.1562C24.2793 25.6221 24.7139 25.1875 25.248 25.1875H26.1562V29.0625H25.248Z" fill="#3C3C3B"/>
</svg>
