<svg width="28" height="28" viewBox="0 0 28 28" fill="none" xmlns="http://www.w3.org/2000/svg">
<g clip-path="url(#clip0)">
<path d="M22.6041 9.69785H21.5447V8.13007C21.5447 6.62253 20.3181 5.39569 18.8104 5.39569H9.18942C7.68188 5.39569 6.45505 6.62253 6.45505 8.13007V18.3019C6.45505 18.9061 6.94489 19.3957 7.5488 19.3957H8.58978V22.6041C8.58978 23.2082 9.07962 23.6978 9.68353 23.6978C10.2877 23.6978 10.7773 23.2082 10.7773 22.6041V19.3957H12.9103V22.6041C12.9103 23.2082 13.3999 23.6978 14.0041 23.6978C14.6082 23.6978 15.0978 23.2082 15.0978 22.6041V19.3957H16.1674C16.7713 19.3957 17.2612 18.9061 17.2612 18.3019V16.1875H20.4512C21.0551 16.1875 21.545 15.6979 21.545 15.0938V11.8853H22.6043C24.3733 11.8853 25.8125 13.3247 25.8125 15.0938V22.6041C25.8125 24.3733 24.3733 25.8125 22.6041 25.8125H5.39185C3.62497 25.8125 2.1875 24.375 2.1875 22.6082V5.39185C2.1875 3.62497 3.62497 2.1875 5.39185 2.1875H22.6082C24.375 2.1875 25.8125 3.62497 25.8125 5.3959C25.8125 6.00003 26.3021 6.48752 26.9062 6.48752C27.5104 6.48752 28 5.99597 28 5.39185C28 2.41885 25.5811 0 22.6082 0H5.39185C2.41885 0 0 2.41885 0 5.39185V22.6082C0 25.5811 2.41885 28 5.39185 28H22.6041C25.5794 28 28 25.5794 28 22.6041V15.0938C28 12.1184 25.5794 9.69785 22.6041 9.69785ZM19.3575 14H11.8612C11.2571 14 10.7675 14.4896 10.7675 15.0938C10.7675 15.6979 11.2571 16.1875 11.8612 16.1875H15.0737V17.2084H8.64255C8.64255 16.0066 8.64255 8.93222 8.64255 8.13028C8.64255 7.82864 8.888 7.5834 9.18942 7.5834H18.8106C19.112 7.5834 19.3575 7.82864 19.3575 8.13028V14Z" fill="#3C3C3B"/>
</g>
<defs>
<clipPath id="clip0">
<rect width="28" height="28" fill="white"/>
</clipPath>
</defs>
</svg>
