<svg width="30" height="30" viewBox="0 0 30 30" fill="none" xmlns="http://www.w3.org/2000/svg">
<path d="M18.3285 15.0761H11.6726C11.1871 15.0761 10.7937 14.6824 10.7937 14.1972V10.7354C10.7937 10.2499 11.1871 9.85645 11.6726 9.85645H18.3285C18.814 9.85645 19.2074 10.2499 19.2074 10.7354V14.1972C19.2074 14.6824 18.814 15.0761 18.3285 15.0761ZM12.5515 13.3183H17.4496V11.6143H12.5515V13.3183Z" fill="#3C3C3B"/>
<path d="M27.3633 4.86328H2.63672C1.18286 4.86328 0 6.04614 0 7.5V22.5128C0 23.9667 1.18286 25.1495 2.63672 25.1495H27.3633C28.8171 25.1495 30 23.9667 30 22.5128V7.5C30 6.04614 28.8171 4.86328 27.3633 4.86328ZM28.2422 22.5126C28.2422 22.9974 27.8478 23.3915 27.3633 23.3915H2.63672C2.15218 23.3915 1.75781 22.9974 1.75781 22.5126V7.5C1.75781 7.01546 2.15218 6.62109 2.63672 6.62109H27.3633C27.8478 6.62109 28.2422 7.01546 28.2422 7.5V22.5126Z" fill="#3C3C3B"/>
<path d="M25.3258 21.0405C25.7856 21.0405 26.226 20.6363 26.2047 20.1616C26.1834 19.6853 25.8186 19.2827 25.3258 19.2827C24.8662 19.2827 24.4256 19.6869 24.4469 20.1616C24.4682 20.6377 24.833 21.0405 25.3258 21.0405Z" fill="#3C3C3B"/>
<path d="M22.3679 21.0405C22.8275 21.0405 23.2681 20.6363 23.2468 20.1616C23.2256 19.6853 22.8607 19.2827 22.3679 19.2827C21.9081 19.2827 21.4677 19.6869 21.489 20.1616C21.5103 20.6377 21.8751 21.0405 22.3679 21.0405Z" fill="#3C3C3B"/>
<path d="M25.3258 18.7124C25.7856 18.7124 26.226 18.3082 26.2047 17.8335C26.1834 17.3572 25.8186 16.9546 25.3258 16.9546C24.8662 16.9546 24.4256 17.3588 24.4469 17.8335C24.4682 18.3096 24.833 18.7124 25.3258 18.7124Z" fill="#3C3C3B"/>
<path d="M22.3679 18.7124C22.8275 18.7124 23.2681 18.3082 23.2468 17.8335C23.2256 17.3572 22.8607 16.9546 22.3679 16.9546C21.9081 16.9546 21.4677 17.3588 21.489 17.8335C21.5103 18.3096 21.8751 18.7124 22.3679 18.7124Z" fill="#3C3C3B"/>
<path d="M17.3441 19.9346H12.6566C12.1712 19.9346 11.7777 19.5411 11.7777 19.0557C11.7777 18.5704 12.1712 18.1768 12.6566 18.1768H17.3441C17.8296 18.1768 18.223 18.5704 18.223 19.0557C18.223 19.5411 17.8296 19.9346 17.3441 19.9346Z" fill="#3C3C3B"/>
<path d="M23.8467 15.4309C22.3929 15.4309 21.21 14.2483 21.21 12.7942C21.21 11.3403 22.3929 10.1575 23.8467 10.1575C25.3006 10.1575 26.4835 11.3403 26.4835 12.7942C26.4835 14.2483 25.3006 15.4309 23.8467 15.4309ZM23.8467 11.9153C23.3622 11.9153 22.9678 12.3096 22.9678 12.7942C22.9678 13.279 23.3622 13.6731 23.8467 13.6731C24.3313 13.6731 24.7256 13.279 24.7256 12.7942C24.7256 12.3096 24.3315 11.9153 23.8467 11.9153Z" fill="#3C3C3B"/>
<path d="M7.63044 21.0405C8.09027 21.0405 8.53063 20.6363 8.50935 20.1616C8.48806 19.6853 8.12322 19.2827 7.63044 19.2827C7.17085 19.2827 6.73025 19.6869 6.75153 20.1616C6.77282 20.6377 7.13766 21.0405 7.63044 21.0405Z" fill="#3C3C3B"/>
<path d="M4.67353 21.0405C5.13313 21.0405 5.57373 20.6363 5.55244 20.1616C5.53115 19.6853 5.16632 19.2827 4.67353 19.2827C4.21371 19.2827 3.77334 19.6869 3.79463 20.1616C3.81591 20.6377 4.18075 21.0405 4.67353 21.0405Z" fill="#3C3C3B"/>
<path d="M7.63044 18.7124C8.09027 18.7124 8.53063 18.3082 8.50935 17.8335C8.48806 17.3572 8.12322 16.9546 7.63044 16.9546C7.17085 16.9546 6.73025 17.3588 6.75153 17.8335C6.77282 18.3096 7.13766 18.7124 7.63044 18.7124Z" fill="#3C3C3B"/>
<path d="M4.67353 18.7124C5.13313 18.7124 5.57373 18.3082 5.55244 17.8335C5.53115 17.3572 5.16632 16.9546 4.67353 16.9546C4.21371 16.9546 3.77334 17.3588 3.79463 17.8335C3.81591 18.3096 4.18075 18.7124 4.67353 18.7124Z" fill="#3C3C3B"/>
<path d="M6.15326 15.4309C4.6994 15.4309 3.51654 14.2483 3.51654 12.7942C3.51654 11.3403 4.6994 10.1575 6.15326 10.1575C7.60712 10.1575 8.78998 11.3403 8.78998 12.7942C8.78998 14.2483 7.60712 15.4309 6.15326 15.4309ZM6.15326 11.9153C5.66872 11.9153 5.27435 12.3096 5.27435 12.7942C5.27435 13.279 5.66872 13.6731 6.15326 13.6731C6.6378 13.6731 7.03217 13.279 7.03217 12.7942C7.03217 12.3096 6.6378 11.9153 6.15326 11.9153Z" fill="#3C3C3B"/>
</svg>
