<svg width="30" height="26" viewBox="0 0 30 26" fill="none" xmlns="http://www.w3.org/2000/svg">
<path d="M28.6054 6.84355H1.48076C1.21526 6.84355 1 6.62302 1 6.35103V1.49252C1 1.22053 1.21526 1 1.48076 1H28.6054C28.8709 1 29.0862 1.22054 29.0862 1.49252V6.35103C29.0862 6.62302 28.8709 6.84355 28.6054 6.84355ZM1.96151 5.85851H28.1246V1.98505H1.96151V5.85851Z" fill="#3C3C3B" stroke="#3C3C3B" stroke-width="0.8"/>
<path d="M26.9552 25.3418H3.13102C2.86553 25.3418 2.65027 25.1213 2.65027 24.8493V6.35117C2.65027 6.07917 2.86553 5.85864 3.13102 5.85864H26.9552C27.2207 5.85864 27.436 6.07917 27.436 6.35117V24.8493C27.436 25.1213 27.2207 25.3418 26.9552 25.3418ZM3.61178 24.3568H26.4745V6.84369H3.61178V24.3568Z" fill="#3C3C3B" stroke="#3C3C3B" stroke-width="0.8"/>
<path d="M18.6397 12.539H11.446C10.4478 12.539 9.63562 11.7142 9.63562 10.7006C9.63562 9.68704 10.4478 8.8623 11.446 8.8623H18.6397C19.6294 8.8623 20.4342 9.68704 20.4342 10.7006C20.4342 11.7142 19.6294 12.539 18.6397 12.539ZM11.446 9.84735C10.978 9.84735 10.5971 10.2302 10.5971 10.7006C10.5971 11.1711 10.978 11.5539 11.446 11.5539H18.6397C19.0912 11.5539 19.4726 11.1632 19.4726 10.7006C19.4726 10.2381 19.0912 9.84735 18.6397 9.84735H11.446Z" fill="#3C3C3B" stroke="#3C3C3B" stroke-width="0.8"/>
<path d="M20.851 22.338H9.23527C8.96978 22.338 8.75452 22.1174 8.75452 21.8455V16.0352C8.75452 15.7633 8.96978 15.5427 9.23527 15.5427H20.851C21.1165 15.5427 21.3317 15.7633 21.3317 16.0352V21.8455C21.3317 22.1174 21.1165 22.338 20.851 22.338ZM9.71603 21.3529H20.3702V16.5278H9.71603V21.3529Z" fill="#3C3C3B" stroke="#3C3C3B" stroke-width="0.8"/>
</svg>
