<svg width="32" height="32" viewBox="0 0 32 32" fill="none" xmlns="http://www.w3.org/2000/svg">
<path d="M4.00398 16.5147C3.98694 16.5622 3.96731 16.6092 3.94561 16.6547C3.65429 17.258 2.94716 17.6326 2.26535 17.5065C1.63311 17.3893 1.10367 16.8381 1.01431 16.1985C0.946132 15.7124 1.12485 15.1989 1.47971 14.8606C1.76121 14.5919 2.14448 14.4364 2.53911 14.4323C2.5453 14.4323 2.55202 14.4323 2.55873 14.4323C3.12743 14.438 3.67702 14.7784 3.9327 15.2852C3.96008 15.3384 3.98384 15.3937 4.00398 15.45H10.2974V13.3991H8.14241C8.12381 13.4523 8.10263 13.504 8.07784 13.5546C7.78704 14.1585 7.07991 14.533 6.39809 14.4065C5.76586 14.2892 5.23642 13.7385 5.14654 13.0985C5.07888 12.6155 5.25501 12.1056 5.60574 11.7672C5.88828 11.4945 6.27257 11.3364 6.67133 11.3328C6.67805 11.3328 6.68476 11.3328 6.69148 11.3328C7.27051 11.3385 7.82784 11.6918 8.07784 12.2105C8.10263 12.2611 8.12381 12.3127 8.14241 12.366H10.2974V10.8162C10.3061 10.7392 10.3154 10.6612 10.3485 10.592C10.3991 10.4866 10.4864 10.4003 10.5902 10.3507C10.6837 10.3053 10.7127 10.311 10.8139 10.2996H12.364V8.14286C11.8387 7.95017 11.4239 7.45889 11.3459 6.89891C11.2783 6.41694 11.4534 5.90655 11.8046 5.56767C12.0871 5.29491 12.4714 5.13683 12.8707 5.13322C12.8769 5.13322 12.8836 5.13322 12.8903 5.13322C13.4627 5.13838 14.0148 5.48346 14.2684 5.99385C14.4781 6.41487 14.4812 6.93146 14.2772 7.35506C14.1021 7.7177 13.7767 7.99769 13.3971 8.13614V10.2996H15.4632V4.01119C15.4373 4.00189 15.411 3.99207 15.3852 3.98123C14.8909 3.77562 14.52 3.29778 14.4451 2.7657C14.3779 2.28579 14.551 1.77901 14.8976 1.44117C15.1806 1.16427 15.5696 1.00362 15.9699 1C15.9766 1 15.9833 1 15.99 1C16.5623 1.00517 17.1145 1.35076 17.3681 1.86063C17.5773 2.28165 17.5809 2.79824 17.3764 3.22184C17.2023 3.58397 16.8759 3.85983 16.4967 3.99724V10.2996H18.5629V8.14286C18.0375 7.95017 17.6233 7.45889 17.5448 6.89891C17.4776 6.419 17.6507 5.91223 17.9967 5.57387C18.2803 5.29749 18.6708 5.13683 19.0696 5.13322C19.0763 5.13322 19.0825 5.13322 19.0892 5.13322C19.6615 5.13838 20.2137 5.48346 20.4678 5.99385C20.677 6.41487 20.6801 6.93146 20.4761 7.35506C20.301 7.7177 19.9756 7.99769 19.5959 8.13614V10.2996H21.1455L21.2607 10.3125C21.3707 10.3508 21.4781 10.4045 21.5494 10.4938C21.598 10.5548 21.6321 10.6256 21.6491 10.701C21.6579 10.7387 21.6579 10.778 21.6625 10.8162V12.366H23.8206C23.8996 12.1433 24.0272 11.9387 24.1961 11.7739C24.4792 11.4971 24.8697 11.3364 25.2684 11.3328C25.2751 11.3328 25.2819 11.3328 25.2886 11.3328C25.8604 11.3379 26.4125 11.683 26.6667 12.1934C26.8759 12.6144 26.8795 13.131 26.6749 13.5546C26.3841 14.1585 25.6765 14.533 24.9952 14.4065C24.4642 14.3083 24.0065 13.9044 23.8196 13.3991H21.6625V15.45H27.959C28.0412 15.2253 28.1739 15.0186 28.3485 14.8544C28.6305 14.5888 29.0122 14.4364 29.4012 14.4323C29.4079 14.4323 29.4141 14.4323 29.4208 14.4323C29.9998 14.438 30.5577 14.7913 30.8077 15.3105C31.0086 15.7274 31.0091 16.2367 30.8077 16.6547C30.5164 17.258 29.8092 17.6326 29.1279 17.5065C28.6026 17.4089 28.1486 17.0127 27.958 16.5147H21.6625V18.5655H23.8206C23.9017 18.3377 24.0339 18.1275 24.209 17.9606C24.4911 17.692 24.8738 17.536 25.2684 17.5324C25.2751 17.5324 25.2819 17.5324 25.2881 17.5324C25.864 17.538 26.4187 17.8872 26.6708 18.4018C26.8764 18.8212 26.8774 19.3342 26.6749 19.7542C26.3841 20.3581 25.6765 20.7326 24.9952 20.606C24.4642 20.5079 24.0065 20.1039 23.8196 19.5987H21.6625V21.149C21.6491 21.2647 21.6207 21.3814 21.5494 21.4708C21.5014 21.5318 21.4399 21.5808 21.3697 21.6144C21.2762 21.6594 21.2473 21.6542 21.1455 21.6656H19.5959V23.8254C19.9714 23.9628 20.2958 24.2418 20.4719 24.6013C20.677 25.0208 20.6786 25.5338 20.4761 25.9543C20.1409 26.6491 19.2447 27.0293 18.4849 26.7131C17.9895 26.5075 17.6192 26.0281 17.5448 25.4981C17.4766 25.012 17.6553 24.4985 18.0102 24.1602C18.1677 24.0098 18.3573 23.8946 18.5629 23.8218V21.6656H16.4967V27.9592C16.8723 28.096 17.1966 28.375 17.3723 28.7346C17.5778 29.154 17.5789 29.667 17.3764 30.087C17.0412 30.7823 16.145 31.1625 15.3852 30.8464C14.8909 30.6408 14.52 30.1629 14.4451 29.6313C14.3785 29.1551 14.5479 28.6514 14.8909 28.3125C15.0525 28.1529 15.2493 28.031 15.4632 27.955V21.6656H13.3971V23.8254C13.7726 23.9628 14.0969 24.2418 14.2731 24.6013C14.4781 25.0208 14.4797 25.5338 14.2772 25.9543C13.9415 26.6496 13.0453 27.0298 12.286 26.7131C11.7906 26.5075 11.4198 26.0281 11.3459 25.4981C11.2777 25.012 11.4565 24.4985 11.8113 24.1602C11.9689 24.0098 12.1584 23.8946 12.364 23.8218V21.6656H10.8139C10.6982 21.6521 10.5815 21.6242 10.4921 21.553C10.4311 21.5044 10.3826 21.4429 10.3485 21.3732C10.3036 21.2792 10.3087 21.2502 10.2974 21.149V19.5987H8.14241C8.12381 19.6519 8.10263 19.7041 8.07784 19.7547C7.78704 20.3581 7.07991 20.7326 6.39809 20.606C5.76586 20.4888 5.23642 19.9381 5.14654 19.2986C5.07888 18.8119 5.2576 18.299 5.61245 17.9606C5.89396 17.692 6.27722 17.536 6.67133 17.5324C6.67805 17.5324 6.68476 17.5324 6.69148 17.5324C7.26689 17.538 7.82216 17.8872 8.07371 18.4018C8.10005 18.455 8.12278 18.5097 8.14241 18.5655H10.2974V16.5147H4.00398ZM15.9766 28.8983C15.6367 28.9019 15.3573 29.3028 15.5112 29.6329C15.6223 29.87 15.9306 29.9935 16.1749 29.8938C16.4441 29.7837 16.5784 29.4226 16.4301 29.1613C16.3418 29.0063 16.1724 28.9024 15.99 28.8983C15.9854 28.8983 15.9812 28.8983 15.9766 28.8983ZM19.0758 24.7651C18.7359 24.7687 18.4549 25.1711 18.6119 25.5028C18.724 25.7378 19.0308 25.8603 19.2741 25.7606C19.5422 25.651 19.677 25.2915 19.5308 25.0306C19.443 24.8741 19.2726 24.7697 19.0897 24.7656C19.0851 24.7651 19.0804 24.7651 19.0758 24.7651ZM12.8769 24.7651C12.5375 24.7687 12.2576 25.1696 12.412 25.4997C12.5226 25.7368 12.8309 25.8603 13.0753 25.7606C13.3433 25.651 13.4776 25.2915 13.332 25.0306C13.2442 24.8741 13.0732 24.7697 12.8909 24.7656C12.8862 24.7651 12.8816 24.7651 12.8769 24.7651ZM11.3309 11.3328V20.6324H20.629V11.3328H11.3309ZM6.67805 18.5655C6.33817 18.5686 6.05718 18.9716 6.21421 19.3027C6.32578 19.5383 6.63311 19.6602 6.8764 19.561C7.14447 19.4515 7.27877 19.0919 7.13311 18.8311C7.0453 18.6745 6.87433 18.5697 6.69148 18.5655C6.68735 18.5655 6.6827 18.5655 6.67805 18.5655ZM25.2751 18.5655C24.9348 18.5686 24.6538 18.9716 24.8113 19.3027C24.9229 19.5383 25.2302 19.6602 25.473 19.561C25.7416 19.4515 25.8759 19.0919 25.7297 18.8311C25.6424 18.6745 25.4714 18.5697 25.2886 18.5655C25.2839 18.5655 25.2793 18.5655 25.2751 18.5655ZM3.05718 15.9077C3.04995 15.8478 3.03187 15.7889 3.00192 15.7341C2.91462 15.576 2.74313 15.4701 2.55925 15.466C2.5546 15.466 2.54995 15.466 2.5453 15.466C2.20543 15.4691 1.92444 15.872 2.08146 16.2032C2.19355 16.4387 2.50037 16.5606 2.74365 16.4609C2.91772 16.3902 3.03549 16.214 3.05718 16.028C3.05253 15.9883 3.05253 15.948 3.05718 15.9077ZM28.8991 16.0167C28.9007 16.0782 28.9146 16.1407 28.9425 16.2001C29.053 16.4372 29.3614 16.5612 29.6057 16.4609C29.8743 16.3514 30.0086 15.9924 29.8624 15.7315C29.7746 15.5745 29.6042 15.4701 29.4213 15.466C29.4167 15.466 29.412 15.466 29.4074 15.466C29.1408 15.4686 28.9105 15.7171 28.8996 15.9836C28.8996 15.9945 28.8996 16.0058 28.8991 16.0167ZM6.67805 12.366C6.33869 12.3691 6.05718 12.772 6.21421 13.1031C6.32578 13.3387 6.63311 13.4606 6.8764 13.3614C7.14447 13.2514 7.27877 12.8924 7.13311 12.6315C7.0453 12.475 6.87433 12.3701 6.69148 12.366C6.68735 12.366 6.6827 12.366 6.67805 12.366ZM25.2751 12.366C24.9353 12.3691 24.6538 12.772 24.8113 13.1031C24.9229 13.3387 25.2302 13.4606 25.473 13.3614C25.7416 13.2514 25.8759 12.8924 25.7297 12.6315C25.6424 12.475 25.4714 12.3701 25.2886 12.366C25.2839 12.366 25.2793 12.366 25.2751 12.366ZM19.0758 6.16639C18.7359 6.16949 18.4549 6.57243 18.6119 6.90356C18.724 7.13913 19.0308 7.26104 19.2741 7.16134C19.5422 7.05182 19.677 6.69279 19.5308 6.43192C19.443 6.27487 19.2726 6.17052 19.0897 6.16639C19.0851 6.16639 19.0804 6.16639 19.0758 6.16639ZM12.8769 6.16639C12.6486 6.16846 12.4311 6.3379 12.3779 6.56313C12.3216 6.79818 12.4559 7.06422 12.6796 7.15927C12.9647 7.27964 13.3397 7.08488 13.3903 6.76512C13.4363 6.47841 13.2039 6.17311 12.8909 6.16639C12.8862 6.16639 12.8816 6.16639 12.8769 6.16639ZM15.9766 2.03317C15.6367 2.03627 15.3557 2.43921 15.5128 2.77035C15.6243 3.00591 15.9317 3.12782 16.1749 3.02864C16.443 2.91861 16.5773 2.55958 16.4317 2.2987C16.3438 2.14218 16.1729 2.03731 15.99 2.03317C15.9854 2.03317 15.9812 2.03317 15.9766 2.03317Z" fill="#3C3C3B" stroke="#3C3C3B" stroke-width="0.5"/>
</svg>
