<svg width="28" height="28" viewBox="0 0 28 28" fill="none" xmlns="http://www.w3.org/2000/svg">
<path d="M14.1115 1C6.88245 1 1 6.88668 1 14.121C1 21.3553 6.88245 27.2141 14.1115 27.2141C21.3407 27.2141 27.2137 21.3553 27.2137 14.121C27.2137 6.88668 21.3407 1 14.1115 1ZM14.1115 2.18266C20.6969 2.18266 26.0133 7.53087 26.0133 14.121C26.0133 20.7111 20.6969 26.0314 14.1115 26.0314C7.5262 26.0314 2.20042 20.7111 2.20042 14.121C2.20042 7.53087 7.5262 2.18266 14.1115 2.18266ZM14.0464 4.38036C13.8984 4.39663 13.7618 4.46781 13.6636 4.57985C13.5654 4.69189 13.5128 4.83667 13.516 4.98565V9.05512C13.5149 9.13409 13.5294 9.2125 13.5589 9.28579C13.5883 9.35908 13.632 9.42578 13.6874 9.48202C13.7428 9.53827 13.8088 9.58293 13.8816 9.61341C13.9545 9.64389 14.0326 9.65959 14.1115 9.65959C14.1904 9.65959 14.2686 9.64389 14.3414 9.61341C14.4142 9.58293 14.4802 9.53827 14.5357 9.48202C14.5911 9.42578 14.6348 9.35908 14.6642 9.28579C14.6936 9.2125 14.7082 9.13409 14.7071 9.05512V4.98565C14.7089 4.90081 14.6926 4.81656 14.6593 4.73853C14.6259 4.6605 14.5763 4.59049 14.5138 4.53318C14.4512 4.47588 14.3772 4.4326 14.2966 4.40625C14.216 4.37989 14.1307 4.37106 14.0464 4.38036ZM16.075 6.55943C15.9298 6.57111 15.7939 6.63564 15.6931 6.74079C15.5922 6.84595 15.5333 6.98446 15.5276 7.13011C15.5219 7.27576 15.5697 7.41847 15.662 7.53123C15.7543 7.644 15.8846 7.71902 16.0285 7.74209C18.764 8.56484 20.7557 11.0988 20.7557 14.1117C20.7557 17.7928 17.79 20.7607 14.1115 20.7607C10.4331 20.7607 7.46736 17.7928 7.46736 14.1117C7.46736 11.0988 9.45901 8.56484 12.1946 7.74209C12.3393 7.7008 12.463 7.60623 12.5409 7.47737C12.6188 7.34852 12.6451 7.19494 12.6144 7.0475C12.5838 6.90006 12.4985 6.76969 12.3757 6.68261C12.253 6.59552 12.1018 6.55817 11.9526 6.57805C11.9209 6.58481 11.8898 6.59416 11.8596 6.60599C8.63074 7.5771 6.27625 10.5714 6.27625 14.1117C6.27625 18.4364 9.78995 21.9526 14.1115 21.9526C18.4331 21.9526 21.9468 18.4364 21.9468 14.1117C21.9468 10.5714 19.5923 7.5771 16.3635 6.60599C16.2727 6.56674 16.1735 6.55074 16.075 6.55943Z" fill="#3C3C3B" stroke="#3C3C3B" stroke-width="0.5"/>
</svg>
