<svg width="37" height="22" viewBox="0 0 37 22" fill="none" xmlns="http://www.w3.org/2000/svg">
<path d="M15 11.8571C15 11.5411 15.2613 11.2857 15.5833 11.2857H26.0833C26.4059 11.2857 26.6667 11.5411 26.6667 11.8571C26.6667 12.1731 26.4059 12.4286 26.0833 12.4286H15.5833C15.2613 12.4286 15 12.1731 15 11.8571ZM15.5833 5.57143H26.0833C26.4059 5.57143 26.6667 5.316 26.6667 5C26.6667 4.684 26.4059 4.42857 26.0833 4.42857H15.5833C15.2613 4.42857 15 4.684 15 5C15 5.316 15.2613 5.57143 15.5833 5.57143ZM15.5833 10.1429H26.0833C26.4059 10.1429 26.6667 9.88743 26.6667 9.57143C26.6667 9.25543 26.4059 9 26.0833 9H15.5833C15.2613 9 15 9.25543 15 9.57143C15 9.88743 15.2613 10.1429 15.5833 10.1429ZM15.5833 7.85714H26.0833C26.4059 7.85714 26.6667 7.60171 26.6667 7.28571C26.6667 6.96971 26.4059 6.71429 26.0833 6.71429H15.5833C15.2613 6.71429 15 6.96971 15 7.28571C15 7.60171 15.2613 7.85714 15.5833 7.85714ZM36 4.42857V14.7143C36 15.9714 34.95 17 33.6667 17H29.5833H26.0833L26.6667 18.1429H27.8333V21H13.8333V18.1429H15L15.5833 17H13.25C13.25 17.6286 12.725 18.1429 12.0833 18.1429H11.5C10.8583 18.1429 10.3333 17.6286 10.3333 17H8.58333L6.25 15.8571V12.4286H3.91667V11.2857H1V7.85714H3.91667V6.71429H6.25V3.28571L8.58333 2.14286H10.3333C10.3333 1.51429 10.8583 1 11.5 1H12.0833C12.725 1 13.25 1.51429 13.25 2.14286H29.5833H33.6667C34.95 2.14286 36 3.17143 36 4.42857ZM3.91667 9H2.16667V10.1429H3.91667V9ZM6.25 7.85714H5.08333V11.2857H6.25V7.85714ZM10.3333 3.28571H8.85867L7.41667 3.992V6.71429V12.4286V15.1509L8.58333 15.7223V10.7143C8.58333 10.5566 8.714 10.4286 8.875 10.4286C9.036 10.4286 9.16667 10.5566 9.16667 10.7143V15.8571H10.3333V3.28571ZM12.0833 2.14286H11.5V17H12.0833V2.14286ZM25.7917 19.2857L24.9167 17V14.7143H16.75V17L15.875 19.2857H15V19.8571H26.6667V19.2857H25.7917ZM28.4167 3.28571H13.25V15.8571H15.5833V14.7143V13.5714H16.75H24.9167H26.0833V14.7143V15.8571H28.4167V3.28571ZM34.8333 4.42857C34.8333 3.79829 34.3101 3.28571 33.6667 3.28571H29.5833V15.8571H33.0833V11.8571C33.0833 11.6994 33.214 11.5714 33.375 11.5714C33.536 11.5714 33.6667 11.6994 33.6667 11.8571V15.8571C34.3101 15.8571 34.8333 15.3446 34.8333 14.7143V4.42857ZM33.375 8.71429C33.214 8.71429 33.0833 8.84229 33.0833 9V10.1429C33.0833 10.3006 33.214 10.4286 33.375 10.4286C33.536 10.4286 33.6667 10.3006 33.6667 10.1429V9C33.6667 8.84229 33.536 8.71429 33.375 8.71429Z" fill="#3C3C3B" stroke="#3C3C3B" stroke-width="0.3"/>
</svg>
