<svg width="41" height="42" viewBox="0 0 41 42" fill="none" xmlns="http://www.w3.org/2000/svg">
<path d="M4.72706 25.2747L4.72713 15.8041L36.2729 15.8041L36.2729 25.2747L4.72706 25.2747ZM5.6317 16.7104L5.63168 24.3682L35.3683 24.3684L35.3683 16.7105L5.6317 16.7104Z" fill="#3C3C3B" stroke="#3C3C3B" stroke-width="0.7"/>
<path d="M9.09079 16.2592L8.18665 16.2554L8.18649 21.0514L9.09064 21.0552L9.09079 16.2592Z" fill="#3C3C3B" stroke="#3C3C3B" stroke-width="0.7"/>
<path d="M13.0442 16.2592L12.1401 16.2554L12.1399 21.0514L13.0441 21.0552L13.0442 16.2592Z" fill="#3C3C3B" stroke="#3C3C3B" stroke-width="0.7"/>
<path d="M16.9985 16.2597L16.0943 16.2559L16.0941 21.0518L16.9983 21.0556L16.9985 16.2597Z" fill="#3C3C3B" stroke="#3C3C3B" stroke-width="0.7"/>
<path d="M20.9516 16.2592L20.0475 16.2554L20.0473 21.0514L20.9515 21.0552L20.9516 16.2592Z" fill="#3C3C3B" stroke="#3C3C3B" stroke-width="0.7"/>
<path d="M24.9056 16.2602L24.0014 16.2563L24.0013 21.0524L24.9054 21.0562L24.9056 16.2602Z" fill="#3C3C3B" stroke="#3C3C3B" stroke-width="0.7"/>
<path d="M28.8592 16.2602L27.9551 16.2563L27.9549 21.0523L28.8591 21.0562L28.8592 16.2602Z" fill="#3C3C3B" stroke="#3C3C3B" stroke-width="0.7"/>
<path d="M32.8129 16.2602L31.9088 16.2563L31.9086 21.0524L32.8127 21.0562L32.8129 16.2602Z" fill="#3C3C3B" stroke="#3C3C3B" stroke-width="0.7"/>
</svg>
