<svg width="34" height="34" viewBox="0 0 34 34" fill="none" xmlns="http://www.w3.org/2000/svg">
<path d="M16.915 26.9946C16.4952 26.9946 16.0849 27.1191 15.7358 27.3523C15.3868 27.5856 15.1147 27.9171 14.9541 28.3049C14.7935 28.6928 14.7514 29.1196 14.8333 29.5313C14.9152 29.943 15.1174 30.3212 15.4142 30.6181C15.711 30.9149 16.0892 31.1171 16.5009 31.199C16.9126 31.2809 17.3394 31.2389 17.7272 31.0782C18.115 30.9176 18.4465 30.6455 18.6797 30.2964C18.913 29.9474 19.0374 29.537 19.0374 29.1172C19.0374 28.5543 18.8138 28.0144 18.4158 27.6163C18.0177 27.2183 17.4779 26.9946 16.915 26.9946ZM16.915 30.1785C16.7051 30.1785 16.4999 30.1163 16.3254 29.9996C16.1509 29.883 16.0149 29.7173 15.9345 29.5233C15.8542 29.3294 15.8332 29.116 15.8742 28.9102C15.9151 28.7043 16.0162 28.5152 16.1646 28.3668C16.313 28.2183 16.5021 28.1173 16.708 28.0763C16.9138 28.0354 17.1272 28.0564 17.3211 28.1367C17.515 28.217 17.6808 28.3531 17.7974 28.5276C17.914 28.7021 17.9762 28.9073 17.9762 29.1172C17.9762 29.3987 17.8644 29.6686 17.6654 29.8677C17.4664 30.0667 17.1964 30.1785 16.915 30.1785Z" fill="#3C3C3B" stroke="#3C3C3B" stroke-width="0.4"/>
<path d="M27.5259 20.098C28.1556 20.098 28.7711 19.9113 29.2947 19.5615C29.8182 19.2116 30.2263 18.7143 30.4673 18.1326C30.7082 17.5508 30.7713 16.9106 30.6484 16.293C30.5256 15.6754 30.2224 15.108 29.7771 14.6628C29.3319 14.2175 28.7646 13.9143 28.147 13.7914C27.5295 13.6686 26.8893 13.7316 26.3076 13.9726C25.7259 14.2136 25.2287 14.6217 24.8788 15.1453C24.529 15.6688 24.3423 16.2844 24.3423 16.9141C24.3431 17.7583 24.6788 18.5677 25.2757 19.1646C25.8726 19.7615 26.6818 20.0972 27.5259 20.098ZM27.5259 14.7915C27.9457 14.7915 28.3561 14.916 28.7051 15.1493C29.0541 15.3825 29.3262 15.714 29.4868 16.1019C29.6475 16.4897 29.6895 16.9165 29.6076 17.3282C29.5257 17.74 29.3236 18.1182 29.0267 18.415C28.7299 18.7119 28.3517 18.9141 27.94 18.996C27.5283 19.0779 27.1015 19.0358 26.7137 18.8752C26.3259 18.7145 25.9944 18.4425 25.7612 18.0934C25.528 17.7443 25.4035 17.3339 25.4035 16.9141C25.4035 16.3512 25.6271 15.8113 26.0252 15.4132C26.4232 15.0152 26.963 14.7915 27.5259 14.7915Z" fill="#3C3C3B" stroke="#3C3C3B" stroke-width="0.4"/>
<path d="M32.831 16.9137C32.8294 15.507 32.27 14.1584 31.2754 13.1637C30.2807 12.169 28.9322 11.6095 27.5256 11.6079C27.4253 11.6079 27.3282 11.6175 27.2295 11.6228L17.0739 5.69888C16.4372 4.42141 15.4886 3.32525 14.3157 2.51192C13.1428 1.69858 11.7837 1.19437 10.3642 1.04597C8.94466 0.897576 7.51065 1.10979 6.19494 1.66297C4.87923 2.21614 3.72437 3.09239 2.8373 4.21057C1.95023 5.32875 1.35964 6.65271 1.12021 8.05983C0.880778 9.46695 1.00026 10.9117 1.46758 12.2604C1.9349 13.6091 2.73496 14.818 3.79366 15.7753C4.85236 16.7325 6.13547 17.4071 7.52417 17.7366L13.3378 28.1322C13.1988 28.6352 13.1674 29.1619 13.2457 29.6779C13.324 30.1938 13.5103 30.6875 13.7923 31.1265C14.0744 31.5656 14.4459 31.9402 14.8826 32.2259C15.3192 32.5117 15.8113 32.702 16.3265 32.7846C16.8418 32.8672 17.3687 32.8402 17.8728 32.7053C18.3769 32.5704 18.8468 32.3306 19.252 32.0017C19.6571 31.6728 19.9884 31.2622 20.224 30.7965C20.4596 30.3309 20.5944 29.8208 20.6195 29.2995L28.0471 22.193C29.3568 22.0621 30.5713 21.4497 31.4552 20.4743C32.3391 19.4989 32.8293 18.23 32.831 16.9137ZM15.6727 25.621L11.3138 17.7717C13.1296 17.368 14.7627 16.3795 15.9624 14.9578C17.1621 13.5362 17.8619 11.76 17.9546 9.90212L23.6961 13.2527C23.169 13.8009 22.7663 14.4564 22.5156 15.1744C22.265 15.8925 22.1722 16.6561 22.2436 17.4133C22.315 18.1705 22.5489 18.9033 22.9295 19.5618C23.31 20.2203 23.8281 20.789 24.4484 21.2289L19.23 26.2195C18.7382 25.8224 18.1524 25.5587 17.529 25.4539C16.9057 25.349 16.2658 25.4066 15.6712 25.621H15.6727ZM25.4119 21.7775C25.786 21.9397 26.1777 22.0579 26.5791 22.1298L20.4529 27.9906C20.3385 27.6357 20.1715 27.3 19.9574 26.9947L25.4119 21.7775ZM31.7699 16.9137C31.7699 17.7532 31.521 18.5739 31.0546 19.2719C30.5882 19.9699 29.9254 20.514 29.1498 20.8352C28.3743 21.1565 27.5209 21.2406 26.6975 21.0768C25.8742 20.913 25.118 20.5087 24.5244 19.9151C23.9308 19.3215 23.5266 18.5652 23.3628 17.7418C23.199 16.9184 23.2831 16.065 23.6043 15.2894C23.9256 14.5138 24.4696 13.8508 25.1675 13.3844C25.8655 12.918 26.6861 12.6691 27.5256 12.6691C28.6508 12.6703 29.7297 13.118 30.5254 13.9137C31.3211 14.7095 31.7686 15.7884 31.7699 16.9137ZM25.6772 11.947C25.2803 12.0933 24.9023 12.2865 24.5514 12.5226L17.9339 8.66216C17.8866 8.19442 17.7998 7.73153 17.6745 7.27841L25.6772 11.947ZM2.05959 9.48562C2.05959 8.01648 2.49521 6.58034 3.31137 5.35879C4.12752 4.13725 5.28755 3.18517 6.64476 2.62296C8.00197 2.06074 9.49541 1.91364 10.9362 2.20026C12.377 2.48687 13.7005 3.19433 14.7393 4.23317C15.778 5.272 16.4854 6.59556 16.772 8.03647C17.0586 9.47738 16.9115 10.9709 16.3494 12.3282C15.7872 13.6855 14.8352 14.8456 13.6137 15.6618C12.3923 16.4781 10.9562 16.9137 9.48717 16.9137C7.5179 16.9116 5.62989 16.1283 4.23741 14.7357C2.84492 13.3432 2.0617 11.455 2.05959 9.48562ZM8.85636 17.943C9.06539 17.9584 9.27442 17.9749 9.48717 17.9749C9.72538 17.9749 9.95988 17.9584 10.1933 17.9393L14.7348 26.1171C14.4125 26.3513 14.1301 26.6358 13.8981 26.9597L8.85636 17.943ZM16.9147 31.7699C16.3901 31.7699 15.8772 31.6143 15.441 31.3228C15.0047 31.0313 14.6647 30.617 14.464 30.1322C14.2632 29.6475 14.2107 29.1141 14.313 28.5994C14.4154 28.0848 14.668 27.6121 15.039 27.2411C15.41 26.8701 15.8827 26.6174 16.3972 26.5151C16.9118 26.4127 17.4452 26.4653 17.9299 26.666C18.4146 26.8668 18.8289 27.2069 19.1204 27.6431C19.4119 28.0794 19.5675 28.5923 19.5675 29.117C19.5666 29.8203 19.2869 30.4946 18.7896 30.9919C18.2923 31.4893 17.618 31.769 16.9147 31.7699Z" fill="#3C3C3B" stroke="#3C3C3B" stroke-width="0.4"/>
<path d="M15.8539 9.48607C15.8539 8.22681 15.4805 6.99583 14.7809 5.9488C14.0814 4.90176 13.0871 4.08569 11.9238 3.6038C10.7604 3.1219 9.48034 2.99581 8.24536 3.24148C7.01038 3.48715 5.87598 4.09354 4.98561 4.98397C4.09525 5.8744 3.4889 7.00888 3.24324 8.24395C2.99759 9.47901 3.12367 10.7592 3.60553 11.9226C4.0874 13.086 4.90341 14.0804 5.95037 14.78C6.99733 15.4796 8.22823 15.853 9.4874 15.853C11.1753 15.8512 12.7936 15.1798 13.9872 13.9862C15.1807 12.7925 15.8521 11.1741 15.8539 9.48607ZM4.18199 9.48607C4.18199 8.43669 4.49315 7.41087 5.07612 6.53834C5.65908 5.66581 6.48767 4.98576 7.45711 4.58418C8.42655 4.18259 9.49329 4.07752 10.5224 4.28225C11.5516 4.48697 12.4969 4.9923 13.2389 5.73432C13.9809 6.47635 14.4862 7.42175 14.6909 8.45097C14.8956 9.48019 14.7905 10.547 14.389 11.5165C13.9874 12.486 13.3074 13.3147 12.4349 13.8977C11.5625 14.4807 10.5367 14.7918 9.4874 14.7918C8.08079 14.7903 6.73224 14.2308 5.73762 13.2361C4.743 12.2414 4.18354 10.8928 4.18199 9.48607Z" fill="#3C3C3B" stroke="#3C3C3B" stroke-width="0.4"/>
<path d="M11.08 9.48597C11.08 9.17107 10.9867 8.86324 10.8118 8.60141C10.6368 8.33958 10.3882 8.1355 10.0974 8.015C9.80649 7.89449 9.48643 7.86296 9.17764 7.92439C8.86886 7.98583 8.58522 8.13747 8.3626 8.36014C8.13998 8.5828 7.98837 8.8665 7.92695 9.17535C7.86553 9.4842 7.89705 9.80434 8.01753 10.0953C8.13802 10.3862 8.34205 10.6349 8.60382 10.8098C8.8656 10.9848 9.17336 11.0781 9.4882 11.0781C9.91038 11.0781 10.3153 10.9104 10.6138 10.6118C10.9123 10.3132 11.08 9.90824 11.08 9.48597ZM9.4882 10.0167C9.38325 10.0167 9.28066 9.98557 9.1934 9.92725C9.10615 9.86894 9.03814 9.78605 8.99798 9.68907C8.95781 9.59209 8.94731 9.48538 8.96778 9.38243C8.98825 9.27948 9.03879 9.18492 9.113 9.11069C9.1872 9.03647 9.28175 8.98592 9.38468 8.96544C9.48761 8.94497 9.59429 8.95548 9.69125 8.99565C9.78821 9.03582 9.87108 9.10384 9.92938 9.19112C9.98769 9.27839 10.0188 9.381 10.0188 9.48597C10.0188 9.62673 9.9629 9.76172 9.86339 9.86125C9.76389 9.96078 9.62892 10.0167 9.4882 10.0167Z" fill="#3C3C3B" stroke="#3C3C3B" stroke-width="0.4"/>
<path d="M11.08 6.30314C11.08 5.98823 10.9867 5.6804 10.8118 5.41856C10.6368 5.15672 10.3882 4.95265 10.0974 4.83214C9.80649 4.71163 9.48643 4.6801 9.17764 4.74153C8.86886 4.80297 8.58522 4.95461 8.3626 5.17728C8.13998 5.39996 7.98837 5.68366 7.92695 5.99252C7.86553 6.30137 7.89705 6.62151 8.01753 6.91245C8.13802 7.20338 8.34205 7.45205 8.60382 7.627C8.8656 7.80196 9.17336 7.89534 9.4882 7.89534C9.91038 7.89534 10.3153 7.72759 10.6138 7.42899C10.9123 7.1304 11.08 6.72542 11.08 6.30314ZM9.4882 6.83387C9.38325 6.83387 9.28066 6.80274 9.1934 6.74443C9.10615 6.68611 9.03814 6.60322 8.99798 6.50624C8.95781 6.40926 8.94731 6.30255 8.96778 6.1996C8.98825 6.09665 9.03879 6.00208 9.113 5.92785C9.1872 5.85363 9.28175 5.80308 9.38468 5.7826C9.48761 5.76212 9.59429 5.77263 9.69125 5.8128C9.78821 5.85297 9.87108 5.921 9.92938 6.00828C9.98769 6.09556 10.0188 6.19817 10.0188 6.30314C10.0188 6.4439 9.9629 6.57889 9.86339 6.67842C9.76389 6.77796 9.62892 6.83387 9.4882 6.83387Z" fill="#3C3C3B" stroke="#3C3C3B" stroke-width="0.4"/>
<path d="M6.30448 7.8938C5.98965 7.8938 5.68188 7.98718 5.42011 8.16213C5.15833 8.33708 4.9543 8.58574 4.83382 8.87667C4.71334 9.1676 4.68181 9.48774 4.74323 9.79659C4.80466 10.1054 4.95626 10.3891 5.17888 10.6118C5.40151 10.8345 5.68514 10.9861 5.99393 11.0475C6.30271 11.109 6.62278 11.0775 6.91365 10.9569C7.20452 10.8364 7.45313 10.6324 7.62804 10.3705C7.80295 10.1087 7.89631 9.80087 7.89631 9.48597C7.89631 9.0637 7.7286 8.65872 7.43008 8.36013C7.13155 8.06154 6.72666 7.8938 6.30448 7.8938ZM6.30448 10.0167C6.19954 10.0167 6.09695 9.98557 6.00969 9.92725C5.92243 9.86893 5.85442 9.78605 5.81426 9.68907C5.7741 9.59209 5.76359 9.48538 5.78406 9.38243C5.80454 9.27948 5.85507 9.18491 5.92928 9.11069C6.00349 9.03647 6.09803 8.98592 6.20096 8.96544C6.30389 8.94497 6.41058 8.95548 6.50754 8.99565C6.60449 9.03581 6.68736 9.10384 6.74567 9.19112C6.80397 9.27839 6.83509 9.381 6.83509 9.48597C6.83509 9.62673 6.77919 9.76172 6.67968 9.86125C6.58017 9.96078 6.44521 10.0167 6.30448 10.0167Z" fill="#3C3C3B" stroke="#3C3C3B" stroke-width="0.4"/>
<path d="M11.0791 12.6696C11.0791 12.3547 10.9857 12.0468 10.8108 11.785C10.6359 11.5232 10.3873 11.3191 10.0964 11.1986C9.80557 11.0781 9.48551 11.0466 9.17673 11.108C8.86794 11.1694 8.5843 11.3211 8.36168 11.5437C8.13906 11.7664 7.98746 12.0501 7.92603 12.3589C7.86461 12.6678 7.89614 12.9879 8.01662 13.2789C8.1371 13.5698 8.34113 13.8185 8.6029 13.9934C8.86468 14.1684 9.17244 14.2617 9.48728 14.2617C9.90946 14.2617 10.3143 14.094 10.6129 13.7954C10.9114 13.4968 11.0791 13.0918 11.0791 12.6696ZM8.95667 12.6696C8.95667 12.5646 8.98779 12.462 9.04609 12.3747C9.10439 12.2874 9.18727 12.2194 9.28422 12.1792C9.38118 12.1391 9.48787 12.1286 9.59079 12.149C9.69372 12.1695 9.78827 12.2201 9.86247 12.2943C9.93668 12.3685 9.98722 12.4631 10.0077 12.566C10.0282 12.669 10.0177 12.7757 9.9775 12.8727C9.93734 12.9696 9.86933 13.0525 9.78207 13.1108C9.69481 13.1692 9.59222 13.2003 9.48728 13.2003C9.34655 13.2003 9.21159 13.1444 9.11208 13.0448C9.01257 12.9453 8.95667 12.8103 8.95667 12.6696Z" fill="#3C3C3B" stroke="#3C3C3B" stroke-width="0.4"/>
<path d="M12.6706 11.0772C12.9854 11.0772 13.2932 10.9838 13.5549 10.8088C13.8167 10.6339 14.0207 10.3852 14.1412 10.0943C14.2617 9.80336 14.2932 9.48323 14.2318 9.17438C14.1704 8.86553 14.0188 8.58183 13.7962 8.35916C13.5735 8.13649 13.2899 7.98485 12.9811 7.92342C12.6723 7.86198 12.3523 7.89351 12.0614 8.01402C11.7705 8.13453 11.5219 8.3386 11.347 8.60043C11.1721 8.86226 11.0787 9.17009 11.0787 9.48499C11.0787 9.90726 11.2464 10.3122 11.545 10.6108C11.8435 10.9094 12.2484 11.0772 12.6706 11.0772ZM12.6706 8.95427C12.7755 8.95427 12.8781 8.9854 12.9654 9.04371C13.0526 9.10203 13.1206 9.18492 13.1608 9.2819C13.2009 9.37887 13.2115 9.48558 13.191 9.58853C13.1705 9.69148 13.12 9.78605 13.0458 9.86027C12.9716 9.9345 12.877 9.98504 12.7741 10.0055C12.6712 10.026 12.5645 10.0155 12.4675 9.97532C12.3706 9.93515 12.2877 9.86713 12.2294 9.77985C12.1711 9.69257 12.14 9.58996 12.14 9.48499C12.14 9.34424 12.1959 9.20925 12.2954 9.10972C12.3949 9.01019 12.5298 8.95427 12.6706 8.95427Z" fill="#3C3C3B" stroke="#3C3C3B" stroke-width="0.4"/>
<path d="M19.5678 6.30331H20.6291C20.6282 5.59977 20.3484 4.9253 19.8511 4.42782C19.3537 3.93035 18.6794 3.6505 17.976 3.64966V4.71112C18.3982 4.71112 18.8031 4.87887 19.1016 5.17746C19.4001 5.47605 19.5678 5.88103 19.5678 6.30331Z" fill="#3C3C3B" stroke="#3C3C3B" stroke-width="0.4"/>
<path d="M21.6903 6.30368H22.7515C22.7501 5.03748 22.2465 3.82354 21.3512 2.9282C20.456 2.03286 19.2421 1.52924 17.976 1.52783V2.58913C18.9607 2.5904 19.9047 2.98216 20.601 3.6785C21.2973 4.37484 21.689 5.31891 21.6903 6.30368Z" fill="#3C3C3B" stroke="#3C3C3B" stroke-width="0.4"/>
<path d="M5.77344 17.9749H4.71222C4.71306 18.6784 4.99285 19.3528 5.49021 19.8503C5.98757 20.3478 6.6619 20.6276 7.36527 20.6284V19.567C6.94309 19.567 6.5382 19.3993 6.23968 19.1007C5.94115 18.8021 5.77344 18.3971 5.77344 17.9749Z" fill="#3C3C3B" stroke="#3C3C3B" stroke-width="0.4"/>
<path d="M3.65137 17.9749H2.59015C2.59155 19.2411 3.09514 20.455 3.99041 21.3503C4.88568 22.2457 6.09953 22.7493 7.36564 22.7507V21.6894C6.38094 21.6881 5.43694 21.2964 4.74065 20.6C4.04436 19.9037 3.65263 18.9596 3.65137 17.9749Z" fill="#3C3C3B" stroke="#3C3C3B" stroke-width="0.4"/>
</svg>
