<svg width="26" height="26" viewBox="0 0 26 26" fill="none" xmlns="http://www.w3.org/2000/svg">
<path d="M13 26C5.8203 26 0 20.1797 0 13C0 5.8203 5.8203 0 13 0C20.1797 0 26 5.8203 26 13C26 20.1797 20.1797 26 13 26ZM13 24.4706C19.335 24.4706 24.4706 19.335 24.4706 13C24.4706 6.66497 19.335 1.52941 13 1.52941C6.66497 1.52941 1.52941 6.66497 1.52941 13C1.52941 19.335 6.66497 24.4706 13 24.4706ZM13 17.5882C10.466 17.5882 8.41176 15.534 8.41176 13C8.41176 10.466 10.466 8.41177 13 8.41177C15.534 8.41177 17.5882 10.466 17.5882 13C17.5882 15.534 15.534 17.5882 13 17.5882ZM13 16.0588C14.6893 16.0588 16.0588 14.6893 16.0588 13C16.0588 11.3107 14.6893 9.94118 13 9.94118C11.3107 9.94118 9.94118 11.3107 9.94118 13C9.94118 14.6893 11.3107 16.0588 13 16.0588ZM13 7.26471C11.733 7.26471 10.7059 6.23759 10.7059 4.97059C10.7059 3.70358 11.733 2.67647 13 2.67647C14.267 2.67647 15.2941 3.70358 15.2941 4.97059C15.2941 6.23759 14.267 7.26471 13 7.26471ZM13 5.73529C13.4223 5.73529 13.7647 5.39292 13.7647 4.97059C13.7647 4.54825 13.4223 4.20588 13 4.20588C12.5777 4.20588 12.2353 4.54825 12.2353 4.97059C12.2353 5.39292 12.5777 5.73529 13 5.73529ZM17.0555 5.70017C17.9514 4.80426 19.4039 4.80426 20.2998 5.70017C21.1957 6.59608 21.1957 8.04862 20.2998 8.94452C19.4039 9.84043 17.9514 9.84043 17.0555 8.94452C16.1596 8.04862 16.1596 6.59608 17.0555 5.70017ZM19.2184 7.86307C19.517 7.56443 19.517 7.08027 19.2184 6.78163C18.9197 6.48299 18.4356 6.48299 18.1369 6.78163C17.8383 7.08027 17.8383 7.56443 18.1369 7.86307C18.4356 8.1617 18.9197 8.1617 19.2184 7.86307ZM18.7353 13C18.7353 11.733 19.7624 10.7059 21.0294 10.7059C22.2964 10.7059 23.3235 11.733 23.3235 13C23.3235 14.267 22.2964 15.2941 21.0294 15.2941C19.7624 15.2941 18.7353 14.267 18.7353 13ZM20.2647 13C20.2647 13.4223 20.6071 13.7647 21.0294 13.7647C21.4517 13.7647 21.7941 13.4223 21.7941 13C21.7941 12.5777 21.4517 12.2353 21.0294 12.2353C20.6071 12.2353 20.2647 12.5777 20.2647 13ZM17.0555 17.0555C17.9514 16.1596 19.4039 16.1596 20.2998 17.0555C21.1957 17.9514 21.1957 19.4039 20.2998 20.2998C19.4039 21.1957 17.9514 21.1957 17.0555 20.2998C16.1596 19.4039 16.1596 17.9514 17.0555 17.0555ZM18.1369 18.1369C17.8383 18.4356 17.8383 18.9197 18.1369 19.2184C18.4356 19.517 18.9197 19.517 19.2184 19.2184C19.517 18.9197 19.517 18.4356 19.2184 18.1369C18.9197 17.8383 18.4356 17.8383 18.1369 18.1369ZM13 18.7353C14.267 18.7353 15.2941 19.7624 15.2941 21.0294C15.2941 22.2964 14.267 23.3235 13 23.3235C11.733 23.3235 10.7059 22.2964 10.7059 21.0294C10.7059 19.7624 11.733 18.7353 13 18.7353ZM13 20.2647C12.5777 20.2647 12.2353 20.6071 12.2353 21.0294C12.2353 21.4517 12.5777 21.7941 13 21.7941C13.4223 21.7941 13.7647 21.4517 13.7647 21.0294C13.7647 20.6071 13.4223 20.2647 13 20.2647ZM8.94454 20.2998C8.04863 21.1957 6.59607 21.1957 5.70016 20.2998C4.80425 19.4039 4.80425 17.9514 5.70016 17.0555C6.59607 16.1596 8.04863 16.1596 8.94454 17.0555C9.84044 17.9514 9.84044 19.4039 8.94454 20.2998ZM6.78162 18.1369C6.48298 18.4356 6.48298 18.9197 6.78162 19.2184C7.08026 19.517 7.56444 19.517 7.86308 19.2184C8.16171 18.9197 8.16171 18.4356 7.86308 18.1369C7.56444 17.8383 7.08026 17.8383 6.78162 18.1369ZM7.26471 13C7.26471 14.267 6.23759 15.2941 4.97059 15.2941C3.70358 15.2941 2.67647 14.267 2.67647 13C2.67647 11.733 3.70358 10.7059 4.97059 10.7059C6.23759 10.7059 7.26471 11.733 7.26471 13ZM5.73529 13C5.73529 12.5777 5.39292 12.2353 4.97059 12.2353C4.54825 12.2353 4.20588 12.5777 4.20588 13C4.20588 13.4223 4.54825 13.7647 4.97059 13.7647C5.39292 13.7647 5.73529 13.4223 5.73529 13ZM5.70016 8.94452C4.80425 8.04862 4.80425 6.59608 5.70016 5.70017C6.59607 4.80426 8.04863 4.80426 8.94454 5.70017C9.84044 6.59608 9.84044 8.04862 8.94454 8.94452C8.04863 9.84043 6.59607 9.84043 5.70016 8.94452ZM7.86308 6.78163C7.56444 6.48299 7.08026 6.48299 6.78162 6.78163C6.48298 7.08027 6.48298 7.56443 6.78162 7.86307C7.08026 8.1617 7.56444 8.1617 7.86308 7.86307C8.16171 7.56443 8.16171 7.08027 7.86308 6.78163Z" fill="#3C3C3B"/>
</svg>
