<svg width="10" height="14" viewBox="0 0 10 14" fill="none" xmlns="http://www.w3.org/2000/svg">
<path d="M0.804665 8.12956L4.87935 13.9999L8.95403 8.12956C9.43862 7.43122 9.71503 6.62136 9.75394 5.78592C9.79284 4.95049 9.59279 4.12064 9.175 3.38442C8.75722 2.64821 8.13729 2.03309 7.38099 1.60435C6.62469 1.1756 5.76023 0.949219 4.87935 0.949219C3.99847 0.949219 3.13401 1.1756 2.37771 1.60435C1.62142 2.03309 1.00148 2.64821 0.583698 3.38442C0.165912 4.12064 -0.034142 4.95049 0.00476186 5.78592C0.0436657 6.62136 0.320077 7.43122 0.804665 8.12956ZM2.30972 3.13986C2.9466 2.53892 3.79528 2.18309 4.69214 2.14098C5.589 2.09887 6.47053 2.37346 7.16677 2.91181C7.863 3.45016 8.32464 4.21414 8.46269 5.05647C8.60073 5.8988 8.4054 6.75982 7.91435 7.47353L4.87935 11.8515L1.84435 7.47353C1.38771 6.80972 1.18479 6.01728 1.26949 5.22854C1.35419 4.43981 1.72137 3.70254 2.30972 3.13986Z" fill="white"/>
<path d="M4.87951 7.95679C5.38213 7.95679 5.87346 7.81532 6.2914 7.55026C6.70933 7.2852 7.0351 6.90845 7.22751 6.46765C7.41993 6.02684 7.47035 5.54177 7.37241 5.07377C7.27446 4.60576 7.03255 4.17583 6.67726 3.83833C6.32196 3.50083 5.86923 3.27091 5.37631 3.17765C4.88339 3.08438 4.3724 3.13195 3.90795 3.31435C3.44351 3.49674 3.04645 3.80577 2.76699 4.20237C2.48752 4.59897 2.3382 5.06532 2.33789 5.54247C2.3383 6.18241 2.60616 6.79605 3.08267 7.2487C3.55919 7.70135 4.20541 7.95601 4.87951 7.95679ZM4.87951 4.31167C5.13593 4.31167 5.3866 4.38385 5.5998 4.5191C5.81301 4.65434 5.97918 4.84656 6.07731 5.07146C6.17544 5.29636 6.20111 5.54384 6.15109 5.78259C6.10106 6.02134 5.97759 6.24065 5.79627 6.41278C5.61495 6.58491 5.38394 6.70213 5.13244 6.74962C4.88095 6.79711 4.62027 6.77274 4.38337 6.67958C4.14646 6.58643 3.94398 6.42867 3.80152 6.22627C3.65906 6.02386 3.58302 5.7859 3.58302 5.54247C3.58343 5.21616 3.72016 4.90333 3.96321 4.67259C4.20626 4.44186 4.53579 4.31206 4.87951 4.31167Z" fill="white"/>
</svg>
