<svg width="13" height="15" viewBox="0 0 13 15" fill="none" xmlns="http://www.w3.org/2000/svg">
<path d="M1.80376 8.25285L6.48707 15L11.1704 8.25285C11.7274 7.4502 12.045 6.51937 12.0898 5.55915C12.1345 4.59893 11.9045 3.64512 11.4244 2.79894C10.9442 1.95276 10.2316 1.24577 9.36237 0.752983C8.4931 0.260197 7.49953 0 6.48707 0C5.47461 0 4.48104 0.260197 3.61177 0.752983C2.74251 1.24577 2.02998 1.95276 1.54979 2.79894C1.0696 3.64512 0.839665 4.59893 0.884379 5.55915C0.929094 6.51937 1.24679 7.4502 1.80376 8.25285ZM3.53362 2.51785C4.26563 1.82715 5.24108 1.41817 6.2719 1.36977C7.30272 1.32137 8.31592 1.63697 9.11615 2.25574C9.91638 2.8745 10.447 3.7526 10.6056 4.72074C10.7643 5.68889 10.5398 6.67851 9.9754 7.49883L6.48707 12.5307L2.99874 7.49883C2.47389 6.73587 2.24067 5.82506 2.33801 4.91851C2.43536 4.01197 2.85739 3.16457 3.53362 2.51785Z" fill="#0C0C0C"/>
<path d="M6.48766 8.0543C7.06535 8.0543 7.63008 7.8917 8.11044 7.58704C8.5908 7.28239 8.96522 6.84937 9.18638 6.34272C9.40753 5.83608 9.46549 5.27856 9.35291 4.74065C9.24034 4.20274 8.9623 3.70859 8.55393 3.32068C8.14557 2.93277 7.62522 2.66851 7.05867 2.56131C6.49212 2.45411 5.9048 2.50879 5.37098 2.71843C4.83716 2.92807 4.3808 3.28326 4.0596 3.73909C3.73839 4.19492 3.56676 4.73094 3.56641 5.27936C3.56688 6.01489 3.87475 6.72019 4.42244 7.24044C4.97012 7.7607 5.71288 8.0534 6.48766 8.0543ZM6.48766 3.86472C6.78238 3.86472 7.07049 3.94768 7.31554 4.10313C7.56059 4.25857 7.75159 4.47951 7.86437 4.738C7.97716 4.99649 8.00667 5.28093 7.94917 5.55534C7.89167 5.82976 7.74975 6.08182 7.54135 6.27966C7.33295 6.4775 7.06743 6.61224 6.77837 6.66682C6.48931 6.72141 6.1897 6.69339 5.91741 6.58632C5.64512 6.47925 5.41239 6.29793 5.24865 6.06529C5.08491 5.83266 4.99752 5.55915 4.99752 5.27936C4.99799 4.90431 5.15514 4.54475 5.43449 4.27955C5.71385 4.01435 6.0926 3.86517 6.48766 3.86472Z" fill="#0C0C0C"/>
</svg>
