<svg width="22" height="22" viewBox="0 0 22 22" fill="none" xmlns="http://www.w3.org/2000/svg">
<path d="M8.15225 21.4C8.70762 21.4 9.25052 21.2353 9.7123 20.9267C10.1741 20.6182 10.534 20.1796 10.7465 19.6665C10.959 19.1534 11.0147 18.5888 10.9063 18.0441C10.798 17.4994 10.5305 16.9991 10.1378 16.6064C9.74511 16.2137 9.24477 15.9462 8.70007 15.8379C8.15537 15.7295 7.59077 15.7852 7.07767 15.9977C6.56457 16.2102 6.12602 16.5701 5.81747 17.0319C5.50893 17.4937 5.34424 18.0366 5.34424 18.5919C5.34558 19.3363 5.64185 20.0497 6.16816 20.576C6.69448 21.1024 7.40793 21.3986 8.15225 21.4ZM8.15225 17.8052C8.30735 17.8052 8.45898 17.8512 8.58794 17.9374C8.7169 18.0235 8.81742 18.146 8.87678 18.2893C8.93613 18.4326 8.95166 18.5903 8.9214 18.7424C8.89114 18.8945 8.81645 19.0343 8.70678 19.1439C8.5971 19.2536 8.45737 19.3283 8.30524 19.3586C8.15312 19.3888 7.99544 19.3733 7.85214 19.3139C7.70885 19.2546 7.58637 19.1541 7.5002 19.0251C7.41402 18.8961 7.36803 18.7445 7.36803 18.5894C7.3687 18.3816 7.45154 18.1826 7.59846 18.0356C7.74539 17.8887 7.94447 17.8059 8.15225 17.8052Z" fill="white"/>
<path d="M20.1234 18.5919C20.1234 18.0366 19.9587 17.4937 19.6501 17.0319C19.3416 16.5701 18.903 16.2102 18.3899 15.9977C17.8768 15.7852 17.3122 15.7295 16.7675 15.8379C16.2228 15.9462 15.7225 16.2137 15.3298 16.6064C14.9371 16.9991 14.6696 17.4994 14.5613 18.0441C14.4529 18.5888 14.5085 19.1534 14.7211 19.6665C14.9336 20.1796 15.2935 20.6182 15.7553 20.9267C16.2171 21.2353 16.76 21.4 17.3153 21.4C18.0597 21.3986 18.7731 21.1024 19.2994 20.576C19.8257 20.0497 20.122 19.3363 20.1234 18.5919ZM16.5286 18.5919C16.5286 18.4368 16.5746 18.2852 16.6608 18.1563C16.7469 18.0273 16.8694 17.9268 17.0127 17.8674C17.156 17.8081 17.3137 17.7925 17.4658 17.8228C17.6179 17.8531 17.7577 17.9277 17.8673 18.0374C17.977 18.1471 18.0517 18.2868 18.082 18.439C18.1122 18.5911 18.0967 18.7488 18.0373 18.8921C17.978 19.0354 17.8775 19.1578 17.7485 19.244C17.6195 19.3302 17.4679 19.3762 17.3128 19.3762C17.1068 19.3729 16.9103 19.2889 16.7655 19.1422C16.6208 18.9956 16.5393 18.798 16.5387 18.5919H16.5286Z" fill="white"/>
<path d="M4.45735 0H0V2.36464H2.55677L5.34409 15.1101H20.6315L21.3291 4.89777H5.53326L4.45735 0ZM18.7989 7.26241L18.4235 12.7454H7.2565L6.05053 7.26241H18.7989Z" fill="white"/>
</svg>
