<svg width="20" height="20" viewBox="0 0 20 20" fill="none" xmlns="http://www.w3.org/2000/svg">
<path d="M7.42926 19.9999C7.93539 19.9999 8.43015 19.8498 8.85098 19.5686C9.27181 19.2874 9.5998 18.8878 9.79349 18.4202C9.98718 17.9526 10.0379 17.438 9.93912 16.9416C9.84037 16.4452 9.59665 15.9892 9.23876 15.6314C8.88088 15.2735 8.42491 15.0297 7.9285 14.931C7.4321 14.8323 6.91757 14.8829 6.44997 15.0766C5.98237 15.2703 5.5827 15.5983 5.30151 16.0191C5.02032 16.44 4.87024 16.9347 4.87024 17.4409C4.87146 18.1192 5.14146 18.7694 5.62111 19.249C6.10075 19.7287 6.75094 19.9987 7.42926 19.9999ZM7.42926 16.7239C7.57061 16.7239 7.70879 16.7658 7.82632 16.8443C7.94385 16.9228 8.03545 17.0345 8.08954 17.1651C8.14364 17.2956 8.15779 17.4393 8.13021 17.578C8.10264 17.7166 8.03457 17.844 7.93462 17.9439C7.83467 18.0439 7.70733 18.1119 7.56869 18.1395C7.43006 18.1671 7.28636 18.1529 7.15577 18.0988C7.02517 18.0447 6.91356 17.9531 6.83503 17.8356C6.7565 17.7181 6.71458 17.5799 6.71458 17.4386C6.71519 17.2492 6.79068 17.0678 6.92458 16.9339C7.05847 16.8 7.2399 16.7245 7.42926 16.7239Z" fill="#3C3C3B"/>
<path d="M18.3386 17.4409C18.3386 16.9347 18.1885 16.44 17.9073 16.0191C17.6261 15.5983 17.2264 15.2703 16.7588 15.0766C16.2912 14.8829 15.7767 14.8323 15.2803 14.931C14.7839 15.0297 14.3279 15.2735 13.97 15.6314C13.6122 15.9892 13.3684 16.4452 13.2697 16.9416C13.171 17.438 13.2216 17.9526 13.4153 18.4202C13.609 18.8878 13.937 19.2874 14.3578 19.5686C14.7787 19.8498 15.2734 19.9999 15.7795 19.9999C16.4579 19.9987 17.1081 19.7287 17.5877 19.249C18.0673 18.7694 18.3373 18.1192 18.3386 17.4409ZM15.0626 17.4409C15.0626 17.2995 15.1045 17.1613 15.183 17.0438C15.2615 16.9263 15.3732 16.8347 15.5037 16.7806C15.6343 16.7265 15.778 16.7123 15.9167 16.7399C16.0553 16.7675 16.1826 16.8356 16.2826 16.9355C16.3825 17.0355 16.4506 17.1628 16.4782 17.3014C16.5058 17.4401 16.4916 17.5838 16.4375 17.7144C16.3834 17.8449 16.2918 17.9566 16.1743 18.0351C16.0568 18.1136 15.9186 18.1555 15.7772 18.1555C15.5895 18.1525 15.4104 18.076 15.2785 17.9423C15.1466 17.8087 15.0724 17.6286 15.0718 17.4409H15.0626Z" fill="#3C3C3B"/>
<path d="M4.06211 0.497314H0V2.65228H2.33006L4.87023 14.2676H18.8021L19.4378 4.96079H5.04262L4.06211 0.497314ZM17.132 7.11576L16.7899 12.1126H6.61306L5.51402 7.11576H17.132Z" fill="#3C3C3B"/>
</svg>
