<svg width="20" height="21" viewBox="0 0 20 21" fill="none" xmlns="http://www.w3.org/2000/svg">
<path d="M10.167 10.7031C11.1621 10.7031 12.1348 10.408 12.9622 9.85521C13.7896 9.30237 14.4345 8.51659 14.8153 7.59725C15.1961 6.67791 15.2957 5.6663 15.1016 4.69033C14.9074 3.71436 14.4283 2.81788 13.7246 2.11425C13.021 1.41061 12.1245 0.931433 11.1485 0.737301C10.1726 0.543169 9.16096 0.642805 8.24162 1.02361C7.32228 1.40441 6.5365 2.04928 5.98366 2.87666C5.43082 3.70405 5.13574 4.67679 5.13574 5.67188C5.13729 7.00577 5.66787 8.28459 6.61107 9.22779C7.55428 10.171 8.8331 10.7016 10.167 10.7031ZM10.167 2.73438C10.7479 2.73438 11.3158 2.90664 11.7988 3.22937C12.2818 3.5521 12.6582 4.01082 12.8805 4.5475C13.1028 5.08419 13.161 5.67474 13.0477 6.24449C12.9343 6.81423 12.6546 7.33757 12.2438 7.74834C11.8331 8.1591 11.3097 8.43883 10.74 8.55216C10.1703 8.66549 9.5797 8.60732 9.04301 8.38502C8.50632 8.16272 8.04761 7.78626 7.72487 7.30326C7.40214 6.82025 7.22988 6.25239 7.22988 5.67149C7.23081 4.89284 7.54057 4.14635 8.09119 3.5958C8.64182 3.04525 9.38834 2.73559 10.167 2.73477V2.73438Z" fill="white" stroke="white" stroke-width="0.6"/>
<path d="M3.09456 20.6406C3.09456 16.7406 6.26722 13.568 10.1672 13.568C14.0672 13.568 17.2399 16.7406 17.2399 20.6406H19.334C19.3339 18.8276 18.7962 17.0554 17.7889 15.548C16.7816 14.0406 15.35 12.8658 13.675 12.172C12 11.4781 10.1569 11.2966 8.37879 11.6502C6.60064 12.0038 4.96726 12.8767 3.68519 14.1586C2.83125 15.0078 2.15424 16.018 1.69333 17.1306C1.23242 18.2433 0.996776 19.4363 1.00003 20.6406H3.09456Z" fill="white" stroke="white" stroke-width="0.6"/>
</svg>
