<svg width="143" height="25" viewBox="0 0 143 25" fill="none" xmlns="http://www.w3.org/2000/svg">
<path fill-rule="evenodd" clip-rule="evenodd" d="M8.16665 18.3049C8.09686 18.5008 7.98391 18.6803 7.83536 18.8313C7.6868 18.9824 7.50608 19.1014 7.30527 19.1806C7.10446 19.2598 6.8882 19.2972 6.67096 19.2904C6.45372 19.2836 6.24051 19.2328 6.04559 19.1412L2.89673 22.1359C3.05641 22.4444 3.0958 22.7969 3.00788 23.1304C2.91997 23.464 2.71046 23.7571 2.4167 23.9574C2.12294 24.1576 1.76401 24.2521 1.40388 24.224C1.04375 24.1958 0.705815 24.0469 0.450307 23.8037C0.1948 23.5605 0.038317 23.2388 0.00874833 22.8961C-0.0208203 22.5533 0.0784458 22.2117 0.288855 21.932C0.499265 21.6524 0.807148 21.453 1.15763 21.3693C1.50812 21.2857 1.87843 21.3232 2.20258 21.4751L5.34817 18.4811C5.25344 18.3026 5.19844 18.1074 5.18661 17.9077C5.17477 17.708 5.20636 17.5082 5.2794 17.3206C5.35244 17.1331 5.46536 16.962 5.61108 16.8179C5.7568 16.6738 5.9322 16.5599 6.1263 16.4833C6.3204 16.4067 6.52902 16.369 6.7391 16.3727C6.94919 16.3763 7.15622 16.4212 7.34725 16.5045C7.53827 16.5878 7.70918 16.7078 7.84927 16.8568C7.98936 17.0059 8.09562 17.1809 8.16141 17.3708H10.4598C10.5357 17.1591 10.6618 16.9669 10.8284 16.8092C10.9949 16.6514 11.1974 16.5323 11.4202 16.461V14.2815C11.2173 14.2221 11.0296 14.1231 10.8692 13.9908C10.7087 13.8585 10.579 13.6959 10.4883 13.5132C10.3976 13.3305 10.348 13.1318 10.3425 12.9298C10.337 12.7279 10.3758 12.527 10.4565 12.3401C10.5371 12.1532 10.6578 11.9844 10.8109 11.8443C10.9639 11.7043 11.146 11.5962 11.3454 11.527C11.5448 11.4577 11.7572 11.4287 11.969 11.442C12.1808 11.4552 12.3874 11.5103 12.5756 11.6038L15.7277 8.60355C15.5678 8.29535 15.528 7.94312 15.6154 7.6096C15.7029 7.27609 15.9119 6.98295 16.2052 6.78244C16.4986 6.58192 16.8572 6.48705 17.2171 6.51472C17.5771 6.54239 17.9151 6.69081 18.1708 6.93353C18.4265 7.17625 18.5834 7.49751 18.6135 7.84006C18.6436 8.18261 18.5449 8.52421 18.3351 8.80398C18.1253 9.08375 17.8179 9.28352 17.4677 9.3677C17.1176 9.45188 16.7474 9.415 16.4232 9.26363L13.2606 12.2745C13.3521 12.4576 13.4023 12.6569 13.4082 12.8596C13.414 13.0623 13.3753 13.2639 13.2945 13.4515C13.2136 13.6392 13.0925 13.8086 12.9389 13.9491C12.7852 14.0895 12.6024 14.1979 12.4022 14.2672V16.4666C12.6475 16.5469 12.8672 16.6852 13.0407 16.8687C13.2142 17.0522 13.3358 17.2747 13.3939 17.5152C13.4521 17.7558 13.4449 18.0065 13.3731 18.2437C13.3013 18.4809 13.1671 18.6967 12.9834 18.8709C12.7996 19.0451 12.5723 19.1719 12.3228 19.2393C12.0733 19.3067 11.8099 19.3125 11.5574 19.2562C11.3049 19.1999 11.0716 19.0833 10.8796 18.9174C10.6876 18.7515 10.5431 18.5418 10.4598 18.308L8.16665 18.3049Z" fill="#95B03C"/>
<path fill-rule="evenodd" clip-rule="evenodd" d="M3.05269 7.95744C3.05269 8.24478 2.96317 8.52566 2.79546 8.76458C2.62774 9.00349 2.38936 9.1897 2.11045 9.29966C1.83155 9.40961 1.52465 9.43839 1.22857 9.38233C0.932489 9.32627 0.66052 9.18791 0.447057 8.98473C0.233594 8.78155 0.0882236 8.52269 0.0293292 8.24087C-0.0295652 7.95905 0.000661246 7.66694 0.116187 7.40148C0.231712 7.13601 0.427347 6.90912 0.678354 6.74948C0.92936 6.58984 1.22446 6.50464 1.52635 6.50464C1.93116 6.50464 2.31939 6.6577 2.60564 6.93015C2.89188 7.20261 3.05269 7.57213 3.05269 7.95744ZM3.05269 12.8968C3.05269 13.1842 2.96316 13.4651 2.79541 13.704C2.62766 13.943 2.38924 14.1292 2.1103 14.2391C1.83136 14.3491 1.52443 14.3778 1.22833 14.3217C0.932232 14.2656 0.660263 14.1272 0.446826 13.9239C0.233388 13.7207 0.0880698 13.4617 0.0292494 13.1799C-0.0295711 12.898 0.000748597 12.6059 0.116374 12.3405C0.232 12.075 0.427739 11.8481 0.678831 11.6886C0.929923 11.529 1.22509 11.4439 1.527 11.444C1.93165 11.4444 2.31961 11.5976 2.60568 11.87C2.89174 12.1424 3.05252 12.5117 3.05269 12.8968ZM8.24279 12.8968C8.24279 13.1842 8.15327 13.4651 7.98555 13.704C7.81784 13.9429 7.57946 14.1291 7.30055 14.2391C7.02165 14.349 6.71475 14.3778 6.41867 14.3217C6.12259 14.2657 5.85062 14.1273 5.63716 13.9241C5.42369 13.721 5.27832 13.4621 5.21943 13.1803C5.16053 12.8985 5.19076 12.6063 5.30629 12.3409C5.42181 12.0754 5.61745 11.8485 5.86845 11.6889C6.11946 11.5292 6.41456 11.444 6.71645 11.444C7.1212 11.4442 7.50934 11.5973 7.79554 11.8697C8.08175 12.1422 8.24262 12.5116 8.24279 12.8968ZM8.24279 7.95744C8.24279 8.24478 8.15327 8.52566 7.98555 8.76458C7.81784 9.00349 7.57946 9.1897 7.30055 9.29966C7.02165 9.40961 6.71475 9.43839 6.41867 9.38233C6.12259 9.32627 5.85062 9.18791 5.63716 8.98473C5.42369 8.78155 5.27832 8.52269 5.21943 8.24087C5.16053 7.95905 5.19076 7.66694 5.30629 7.40148C5.42181 7.13601 5.61745 6.90912 5.86845 6.74948C6.11946 6.58984 6.41456 6.50464 6.71645 6.50464C7.1212 6.5048 7.50934 6.65792 7.79554 6.93034C8.08175 7.20275 8.24262 7.57218 8.24279 7.95744ZM13.4113 7.95744C13.4113 8.24467 13.3218 8.52546 13.1542 8.76432C12.9866 9.00317 12.7484 9.18938 12.4697 9.29942C12.1909 9.40945 11.8841 9.43836 11.5881 9.38251C11.2921 9.32665 11.0202 9.18853 10.8066 8.98561C10.593 8.78268 10.4474 8.52404 10.3883 8.24239C10.3291 7.96074 10.3589 7.66871 10.474 7.4032C10.5892 7.13769 10.7844 6.91062 11.0351 6.75069C11.2857 6.59075 11.5806 6.50513 11.8823 6.50464C12.2871 6.50464 12.6754 6.6577 12.9616 6.93015C13.2479 7.20261 13.4087 7.57213 13.4087 7.95744H13.4113ZM18.625 12.8968C18.625 13.1842 18.5354 13.4651 18.3677 13.704C18.1999 13.943 17.9615 14.1292 17.6826 14.2391C17.4036 14.3491 17.0967 14.3778 16.8006 14.3217C16.5045 14.2656 16.2325 14.1272 16.0191 13.9239C15.8056 13.7207 15.6603 13.4617 15.6015 13.1799C15.5427 12.898 15.573 12.6059 15.6886 12.3405C15.8043 12.075 16 11.8481 16.2511 11.6886C16.5022 11.529 16.7973 11.4439 17.0993 11.444C17.5035 11.4449 17.8909 11.5983 18.1764 11.8707C18.462 12.143 18.6223 12.5121 18.6223 12.8968H18.625ZM18.625 17.8369C18.625 18.1242 18.5354 18.4051 18.3677 18.6441C18.1999 18.883 17.9615 19.0692 17.6826 19.1792C17.4036 19.2891 17.0967 19.3178 16.8006 19.2617C16.5045 19.2056 16.2325 19.0672 16.0191 18.8639C15.8056 18.6607 15.6603 18.4018 15.6015 18.1199C15.5427 17.8381 15.573 17.5459 15.6886 17.2805C15.8043 17.015 16 16.7882 16.2511 16.6286C16.5022 16.4691 16.7973 16.3839 17.0993 16.3841C17.5037 16.3849 17.8913 16.5385 18.1769 16.8111C18.4625 17.0838 18.6227 17.4531 18.6223 17.8381L18.625 17.8369ZM18.625 22.7769C18.6252 23.0642 18.536 23.3451 18.3685 23.5842C18.201 23.8232 17.9628 24.0096 17.6841 24.1198C17.4053 24.23 17.0985 24.2591 16.8024 24.2033C16.5062 24.1476 16.2341 24.0095 16.0205 23.8065C15.8068 23.6036 15.6611 23.3449 15.6019 23.0632C15.5427 22.7815 15.5726 22.4893 15.6878 22.2238C15.8029 21.9582 15.9983 21.7311 16.249 21.5712C16.4998 21.4113 16.7948 21.3257 17.0966 21.3253C17.5012 21.3253 17.8891 21.4783 18.1752 21.7505C18.4613 22.0227 18.6222 22.3919 18.6223 22.7769H18.625ZM13.4113 22.7769C13.4116 23.0642 13.3223 23.3451 13.1549 23.5841C12.9874 23.8231 12.7493 24.0095 12.4706 24.1198C12.1918 24.23 11.885 24.2591 11.5889 24.2034C11.2928 24.1477 11.0208 24.0096 10.8071 23.8068C10.5934 23.6039 10.4476 23.3452 10.3884 23.0636C10.3291 22.7819 10.3588 22.4898 10.4739 22.2242C10.589 21.9586 10.7842 21.7315 11.0349 21.5715C11.2856 21.4115 11.5805 21.3258 11.8823 21.3253C12.2869 21.3253 12.675 21.4782 12.9612 21.7504C13.2474 22.0226 13.4083 22.3918 13.4087 22.7769H13.4113ZM8.24279 22.7769C8.24305 23.0643 8.15375 23.3453 7.98619 23.5844C7.81863 23.8235 7.58034 24.0099 7.30146 24.12C7.02258 24.2302 6.71564 24.2591 6.41947 24.2032C6.12331 24.1473 5.85121 24.009 5.63762 23.8059C5.42403 23.6027 5.27853 23.3439 5.21952 23.062C5.16052 22.7802 5.19067 22.488 5.30616 22.2225C5.42165 21.9569 5.61728 21.73 5.86832 21.5703C6.11935 21.4106 6.41451 21.3253 6.71645 21.3253C7.12098 21.3255 7.50891 21.4785 7.79508 21.7506C8.08125 22.0228 8.24227 22.3919 8.24279 22.7769ZM3.05269 17.8381C3.05269 18.1255 2.96316 18.4064 2.79541 18.6453C2.62766 18.8842 2.38924 19.0705 2.1103 19.1804C1.83136 19.2903 1.52443 19.3191 1.22833 19.263C0.932232 19.2069 0.660263 19.0684 0.446826 18.8652C0.233388 18.6619 0.0880698 18.403 0.0292494 18.1212C-0.0295711 17.8393 0.000748597 17.5472 0.116374 17.2817C0.232 17.0163 0.427739 16.7894 0.678831 16.6299C0.929923 16.4703 1.22509 16.3852 1.527 16.3853C1.93165 16.3856 2.31961 16.5388 2.60568 16.8112C2.89174 17.0836 3.05252 17.453 3.05269 17.8381Z" fill="#3C3C3B"/>
<path fill-rule="evenodd" clip-rule="evenodd" d="M98.8689 23.9558V22.1533C98.8723 22.0066 98.8482 21.8606 98.7977 21.722C98.7416 21.5819 98.6531 21.4556 98.5388 21.3524C98.4517 21.2699 98.3465 21.2068 98.2307 21.1676C98.098 21.1233 97.9584 21.1008 97.8177 21.1011C97.704 21.1002 97.5905 21.1126 97.4799 21.138C97.3771 21.1645 97.2793 21.2061 97.1899 21.2612C97.095 21.3179 97.008 21.3858 96.931 21.4633C96.8428 21.3461 96.7242 21.2528 96.5867 21.1922C96.447 21.1318 96.2948 21.1019 96.1414 21.1047C96.0506 21.1053 95.9601 21.1165 95.8721 21.138C95.7837 21.1604 95.6988 21.1939 95.6197 21.2378C95.5402 21.2814 95.467 21.3348 95.4022 21.3968V21.1368H94.6812V23.9558H95.4217V22.2518C95.4192 22.1677 95.4341 22.084 95.4657 22.0054C95.4903 21.9448 95.5298 21.8908 95.5809 21.8477C95.6271 21.8084 95.6813 21.7786 95.7401 21.7602C95.7969 21.7425 95.8564 21.7338 95.9162 21.7344C95.9754 21.7345 96.0344 21.7432 96.0909 21.7602C96.1488 21.779 96.2021 21.8087 96.2475 21.8477C96.2974 21.8913 96.336 21.9452 96.3602 22.0054C96.3917 22.084 96.4067 22.1677 96.4042 22.2518V23.9558H97.1433V22.2309C97.1418 22.1508 97.1572 22.0711 97.1886 21.9968C97.2152 21.9383 97.255 21.8862 97.3051 21.844C97.3518 21.8059 97.4059 21.777 97.4644 21.759C97.5203 21.7415 97.5789 21.7328 97.6378 21.7331C97.6975 21.7332 97.7569 21.7419 97.8139 21.759C97.8715 21.7775 97.9244 21.8073 97.9692 21.8465C98.0199 21.8896 98.059 21.9437 98.0831 22.0042C98.114 22.0829 98.129 22.1666 98.1271 22.2506V23.9546L98.8689 23.9558ZM92.5052 22.5438C92.5072 22.6513 92.5015 22.7587 92.4884 22.8654C92.4805 22.9536 92.4582 23.0401 92.4224 23.1217C92.3911 23.192 92.3383 23.2517 92.2709 23.293C92.1891 23.3342 92.098 23.3557 92.0055 23.3557C91.913 23.3557 91.8219 23.3342 91.7402 23.293C91.6727 23.2517 91.62 23.192 91.5887 23.1217C91.553 23.04 91.5303 22.9536 91.5214 22.8654C91.5095 22.7586 91.5039 22.6513 91.5046 22.5438C91.5039 22.4369 91.5095 22.3299 91.5214 22.2235C91.5303 22.1358 91.553 22.0498 91.5887 21.9685C91.6198 21.8988 91.6727 21.8398 91.7402 21.7997C91.8207 21.7555 91.9127 21.7341 92.0055 21.7381C92.0961 21.7359 92.1856 21.7572 92.2644 21.7997C92.3319 21.8398 92.3848 21.8988 92.4159 21.9685C92.4518 22.0497 92.4741 22.1357 92.4819 22.2235C92.4973 22.3297 92.5051 22.4367 92.5052 22.5438ZM93.2444 22.5438C93.2444 22.4367 93.2444 22.3307 93.2444 22.221C93.2407 22.1128 93.229 22.0049 93.2094 21.8982C93.1928 21.7969 93.1628 21.6979 93.1201 21.6038C93.0484 21.44 92.9182 21.3056 92.7524 21.2243C92.6749 21.1845 92.5922 21.1547 92.5065 21.1356C92.4148 21.1152 92.321 21.1048 92.2269 21.1047C92.0868 21.1014 91.9473 21.1245 91.8165 21.1725C91.6898 21.2242 91.5772 21.303 91.4877 21.4029V21.1368H90.7615V24.9871H91.4994V23.707C91.5859 23.8021 91.6945 23.8768 91.8165 23.925C91.9445 23.9699 92.0802 23.9912 92.2165 23.9879C92.3107 23.9884 92.4046 23.9781 92.4961 23.9571C92.5818 23.9384 92.6645 23.909 92.7421 23.8696C92.9088 23.789 93.0393 23.6538 93.1097 23.4889C93.152 23.3937 93.182 23.294 93.1991 23.1919C93.2186 23.0852 93.2302 22.9774 93.234 22.8691C93.2443 22.7582 93.2456 22.6461 93.2444 22.5438ZM88.5842 22.5438C88.5842 22.6412 88.5842 22.7336 88.5739 22.8198C88.5681 22.8989 88.5524 22.9771 88.5273 23.0527C88.5035 23.1192 88.4651 23.1801 88.4147 23.2314C88.3715 23.2713 88.3205 23.3027 88.2645 23.3238C88.2015 23.3457 88.1348 23.3565 88.0677 23.3558C88.0011 23.3568 87.9348 23.3459 87.8723 23.3238C87.8173 23.303 87.7675 23.2715 87.726 23.2314C87.6746 23.1808 87.636 23.1197 87.6134 23.0527C87.5878 22.9772 87.5717 22.899 87.5655 22.8198C87.5577 22.7336 87.5538 22.6412 87.5551 22.5438C87.5564 22.4465 87.5551 22.3553 87.5655 22.2703C87.5716 22.1916 87.5877 22.1138 87.6134 22.0387C87.6361 21.9724 87.6746 21.9121 87.726 21.8625C87.7678 21.8224 87.8175 21.7905 87.8723 21.7689C87.935 21.7477 88.0012 21.7372 88.0677 21.7381C88.1347 21.7374 88.2013 21.7479 88.2645 21.7689C88.3206 21.7903 88.3716 21.8221 88.4147 21.8625C88.4648 21.913 88.5032 21.9731 88.5273 22.0387C88.5525 22.1138 88.5681 22.1916 88.5739 22.2703C88.5829 22.3541 88.5868 22.4465 88.5855 22.5438H88.5842ZM89.3234 22.5438C89.3245 22.3931 89.3154 22.2425 89.2962 22.0929C89.2796 21.9711 89.2452 21.852 89.1939 21.7393C89.1433 21.6326 89.0737 21.535 88.9881 21.451C88.9218 21.3852 88.847 21.3276 88.7655 21.2797C88.6703 21.2251 88.5674 21.1836 88.46 21.1565C88.203 21.0908 87.9324 21.0908 87.6755 21.1565C87.5689 21.1836 87.4669 21.2251 87.3726 21.2797C87.2918 21.3276 87.2179 21.3851 87.1525 21.451C87.0665 21.5347 86.9968 21.6323 86.9467 21.7393C86.8943 21.8516 86.8598 21.9708 86.8445 22.0929C86.8241 22.2424 86.8146 22.3931 86.816 22.5438C86.8146 22.6958 86.8241 22.8477 86.8445 22.9985C86.8598 23.1214 86.8943 23.2414 86.9467 23.3546C86.9969 23.4611 87.0666 23.5583 87.1525 23.6417C87.2175 23.7082 87.2915 23.7662 87.3726 23.8142C87.4672 23.8683 87.5691 23.9097 87.6755 23.9374C87.8021 23.97 87.9327 23.9862 88.0639 23.9854C88.195 23.9866 88.3257 23.9705 88.4522 23.9374C88.5594 23.9097 88.6622 23.8682 88.7577 23.8142C88.8396 23.7662 88.9144 23.7082 88.9803 23.6417C89.0659 23.558 89.1355 23.4609 89.1862 23.3546C89.2376 23.241 89.272 23.1212 89.2884 22.9985C89.3107 22.8478 89.3228 22.696 89.3247 22.5438H89.3234ZM85.7273 23.9558V23.3607H85.4425C85.4062 23.3641 85.3696 23.3602 85.335 23.3491C85.3004 23.3381 85.2687 23.3202 85.2419 23.2967C85.1971 23.243 85.1754 23.1752 85.1811 23.1069V20.103H84.4445V23.1501C84.4439 23.2501 84.4605 23.3496 84.4937 23.4445C84.5258 23.5395 84.5783 23.6272 84.6477 23.702C84.7211 23.7828 84.8133 23.8461 84.917 23.8868C85.0401 23.935 85.1723 23.9585 85.3053 23.9558H85.7273ZM82.3241 22.2839H81.1992C81.1998 22.2467 81.2032 22.2096 81.2096 22.173C81.2144 22.141 81.2213 22.1093 81.2303 22.0781C81.2406 22.0449 81.2531 22.0124 81.2678 21.9808C81.2937 21.9248 81.3301 21.8739 81.3753 21.8305C81.4221 21.786 81.4781 21.7512 81.5397 21.7282C81.6825 21.6757 81.8408 21.6757 81.9837 21.7282C82.0453 21.7512 82.1012 21.786 82.1481 21.8305C82.1932 21.8742 82.23 21.925 82.2568 21.9808C82.2708 22.0126 82.2829 22.0451 82.2931 22.0781C82.3035 22.109 82.3104 22.1408 82.3138 22.173C82.3205 22.2096 82.3244 22.2467 82.3254 22.2839H82.3241ZM83.0529 22.7656V22.4527C83.0552 22.2703 83.0259 22.0888 82.9662 21.9155C82.9131 21.7588 82.8282 21.6135 82.7164 21.4879C82.6053 21.3664 82.4668 21.2703 82.3112 21.207C82.1375 21.1376 81.9507 21.1028 81.7623 21.1047C81.5818 21.1032 81.4027 21.1359 81.2355 21.2009C81.0794 21.2629 80.9404 21.3582 80.829 21.4793C80.7116 21.6119 80.6235 21.7657 80.5701 21.9315C80.5057 22.131 80.4743 22.3388 80.4769 22.5476C80.4735 22.7462 80.4988 22.9444 80.552 23.1365C80.594 23.2845 80.6632 23.4243 80.7565 23.5493C80.84 23.6547 80.9437 23.7441 81.062 23.8129C81.1778 23.8778 81.3036 23.9248 81.4348 23.9521C81.5701 23.9796 81.7082 23.9928 81.8465 23.9916C82.0022 23.9944 82.1576 23.9774 82.3086 23.9411C82.4349 23.9092 82.555 23.8585 82.6646 23.7907C82.7763 23.7199 82.8792 23.6372 82.9714 23.5443L82.5235 23.1266C82.4669 23.182 82.4045 23.2315 82.3371 23.2745C82.2731 23.3146 82.2027 23.3446 82.1287 23.3632C82.0379 23.3838 81.9449 23.3937 81.8517 23.3928C81.7287 23.3952 81.6073 23.3667 81.4996 23.3102C81.4054 23.2579 81.329 23.1809 81.2795 23.0884C81.2282 22.9875 81.2025 22.8765 81.2044 22.7644L83.0529 22.7656ZM79.4996 21.1368H78.7229L78.1261 22.879L77.5229 21.1368H76.7462L77.8375 23.9558H78.4174L79.4996 21.1368ZM75.0466 22.2839H73.9217C73.9225 22.2468 73.9255 22.2098 73.9307 22.173C73.9355 22.141 73.9424 22.1093 73.9515 22.0781C73.9618 22.0473 73.9735 22.0153 73.989 21.9808C74.0153 21.9251 74.0517 21.8742 74.0964 21.8305C74.1438 21.786 74.2002 21.7512 74.2621 21.7282C74.4045 21.6756 74.5624 21.6756 74.7048 21.7282C74.7664 21.7512 74.8224 21.786 74.8692 21.8305C74.9148 21.8739 74.9516 21.9248 74.978 21.9808C74.9923 22.0125 75.0049 22.045 75.0155 22.0781C75.0247 22.1093 75.0316 22.141 75.0362 22.173C75.044 22.2063 75.0466 22.2444 75.0492 22.2839H75.0466ZM75.7741 22.7656V22.4527C75.7761 22.2704 75.7473 22.089 75.6886 21.9155C75.6351 21.7587 75.5498 21.6134 75.4375 21.4879C75.3265 21.3664 75.188 21.2703 75.0323 21.207C74.8587 21.1376 74.6719 21.1028 74.4835 21.1047C74.3033 21.1032 74.1247 21.1359 73.9579 21.2009C73.8015 21.2629 73.662 21.3581 73.5502 21.4793C73.4327 21.6119 73.3447 21.7657 73.2913 21.9315C73.2269 22.131 73.1954 22.3388 73.1981 22.5476C73.195 22.7463 73.2207 22.9444 73.2744 23.1365C73.3159 23.2847 73.3852 23.4245 73.479 23.5493C73.5617 23.6549 73.665 23.7444 73.7832 23.8129C73.8994 23.8778 74.0257 23.9248 74.1573 23.9521C74.2921 23.9796 74.4297 23.9929 74.5676 23.9916C74.7238 23.9944 74.8796 23.9774 75.0311 23.9411C75.1572 23.909 75.2774 23.8583 75.387 23.7907C75.4985 23.7195 75.6013 23.6369 75.6938 23.5443L75.2446 23.1266C75.1887 23.1826 75.1261 23.2322 75.0582 23.2745C74.9945 23.3151 74.9241 23.3451 74.8498 23.3632C74.7595 23.3838 74.6669 23.3937 74.5741 23.3928C74.4511 23.3956 74.3296 23.3671 74.222 23.3102C74.1275 23.2583 74.0511 23.1812 74.0019 23.0884C73.9496 22.9878 73.9234 22.8767 73.9256 22.7644L75.7741 22.7656ZM71.035 22.5438C71.0367 22.6512 71.0315 22.7586 71.0195 22.8654C71.0092 22.9536 70.9856 23.0399 70.9496 23.1217C70.9174 23.1922 70.8637 23.2518 70.7955 23.293C70.7144 23.337 70.6221 23.3587 70.5289 23.3558C70.4381 23.3579 70.3486 23.3361 70.27 23.293C70.2021 23.2522 70.1492 23.1923 70.1185 23.1217C70.0823 23.04 70.0592 22.9536 70.0499 22.8654C70.0385 22.7586 70.0333 22.6512 70.0344 22.5438C70.0339 22.4369 70.0391 22.33 70.0499 22.2235C70.0592 22.1357 70.0823 22.0497 70.1185 21.9685C70.1496 21.8988 70.2025 21.8398 70.27 21.7997C70.3485 21.7566 70.4382 21.7352 70.5289 21.7381C70.622 21.7348 70.7143 21.7561 70.7955 21.7997C70.8657 21.8393 70.9216 21.8981 70.956 21.9685C70.9921 22.0498 71.0156 22.1357 71.0259 22.2235C71.0367 22.33 71.0406 22.4369 71.0376 22.5438H71.035ZM71.7741 23.9558V20.103H71.035V21.3857C70.9477 21.2903 70.8382 21.2156 70.7153 21.1676C70.5868 21.1229 70.4507 21.1016 70.314 21.1047C70.2198 21.1047 70.126 21.115 70.0344 21.1356C69.9482 21.1547 69.8651 21.1845 69.7871 21.2243C69.7149 21.2595 69.649 21.3052 69.5917 21.3598C69.5184 21.4308 69.46 21.5145 69.4195 21.6062C69.3778 21.7007 69.3478 21.7996 69.3302 21.9007C69.3117 22.0075 69.3005 22.1153 69.2965 22.2235C69.2965 22.3319 69.2887 22.4404 69.29 22.5463C69.2913 22.6523 69.29 22.7607 69.2965 22.8716C69.3005 22.9798 69.3117 23.0876 69.3302 23.1944C69.3478 23.2963 69.3778 23.396 69.4195 23.4913C69.4606 23.5828 69.5189 23.6663 69.5917 23.7378C69.65 23.7914 69.7163 23.8367 69.7884 23.8721C69.8674 23.9112 69.9514 23.9406 70.0382 23.9595C70.1303 23.9805 70.2246 23.9908 70.3191 23.9903C70.4145 23.9916 70.5097 23.9821 70.6026 23.962C70.6868 23.9425 70.7672 23.9105 70.8408 23.8671C70.9198 23.8195 70.991 23.761 71.0518 23.6934V23.9583L71.7741 23.9558ZM64.9264 20.9852C64.9263 21.0512 64.9026 21.1151 64.859 21.1664C64.8124 21.2226 64.7564 21.2713 64.6934 21.3105L64.6623 21.3315L64.5924 21.377L64.5238 21.4189C64.4746 21.366 64.4319 21.3167 64.3943 21.2686C64.3571 21.2244 64.325 21.1765 64.2985 21.1257C64.2743 21.0828 64.2609 21.0351 64.2597 20.9865C64.2577 20.9308 64.2711 20.8755 64.2985 20.8263C64.3221 20.7785 64.3611 20.7392 64.4099 20.7142C64.4664 20.6845 64.5304 20.67 64.595 20.6723C64.6583 20.6703 64.7209 20.6848 64.7762 20.7142C64.8255 20.7397 64.8656 20.7788 64.8914 20.8263C64.9176 20.8755 64.9305 20.9301 64.9289 20.9852H64.9264ZM65.1205 23.1229C65.0373 23.1957 64.9414 23.2541 64.837 23.2954C64.7351 23.333 64.6266 23.3518 64.5173 23.3509C64.4094 23.3511 64.3029 23.3271 64.2066 23.2807C64.1165 23.2376 64.0404 23.172 63.9866 23.0909C63.932 23.006 63.9033 22.9083 63.9037 22.8088C63.9028 22.7265 63.9204 22.645 63.9555 22.5697C63.9907 22.5 64.039 22.437 64.0979 22.3837C64.1644 22.3232 64.2363 22.2684 64.3128 22.2198L65.1205 23.1229ZM66.8034 23.9558L66.0771 23.139C66.2185 22.9866 66.3247 22.8078 66.3891 22.6141C66.4606 22.3968 66.5011 22.1714 66.5095 21.9438H65.8105C65.8069 22.0716 65.7873 22.1986 65.7522 22.3221C65.7229 22.4291 65.6733 22.5301 65.606 22.6202L64.9238 21.8514L65.0118 21.7935L65.1076 21.727C65.1387 21.706 65.162 21.6875 65.1827 21.6727L65.2137 21.6518C65.2932 21.5976 65.3666 21.5357 65.4325 21.467C65.4927 21.4024 65.5413 21.3287 65.5762 21.2489C65.6118 21.1635 65.6294 21.0722 65.628 20.9803C65.6305 20.8159 65.5858 20.654 65.4985 20.5121C65.415 20.3744 65.2914 20.2627 65.1425 20.1905C64.9717 20.108 64.7826 20.0658 64.5911 20.0673C64.3909 20.0635 64.1925 20.1035 64.0112 20.1844C63.8582 20.2531 63.7296 20.3627 63.6409 20.4998C63.5538 20.6408 63.509 20.8019 63.5115 20.9655C63.5119 21.0531 63.5254 21.1403 63.5516 21.2243C63.5763 21.3014 63.6097 21.3758 63.6513 21.446C63.6904 21.5105 63.7336 21.5727 63.7807 21.6321C63.8273 21.6888 63.8727 21.7381 63.9102 21.7824C63.8204 21.8399 63.734 21.902 63.6513 21.9685C63.5656 22.0371 63.4875 22.1139 63.4183 22.1976C63.3483 22.2831 63.2917 22.3777 63.25 22.4786C63.2078 22.5866 63.1863 22.7009 63.1866 22.8161C63.1803 23.0328 63.231 23.2476 63.3341 23.4408C63.4342 23.6165 63.59 23.7575 63.7794 23.8437C64.0127 23.9437 64.2668 23.9917 64.5225 23.9842C64.6504 23.9853 64.778 23.9729 64.9031 23.9472C65.0027 23.9265 65.0996 23.8951 65.1917 23.8536C65.267 23.8186 65.3389 23.7774 65.4066 23.7304L65.5684 23.6072L65.8636 23.9423L66.8034 23.9558ZM60.4099 23.9558V22.1323C60.4116 21.9928 60.3902 21.854 60.3465 21.7208C60.3079 21.6013 60.244 21.4906 60.1588 21.3955C60.0741 21.3026 59.9683 21.2293 59.8494 21.1811C59.7134 21.1287 59.5677 21.1027 59.4209 21.1047C59.2911 21.1046 59.1625 21.1293 59.043 21.1774C58.9182 21.2293 58.8052 21.3038 58.7103 21.3968V20.103H57.9724V23.9558H58.7103V22.2309C58.7086 22.151 58.7231 22.0715 58.753 21.9968C58.7749 21.9414 58.8095 21.8913 58.8543 21.8501C58.8991 21.809 58.9529 21.7779 59.0119 21.759C59.0678 21.7413 59.1264 21.7326 59.1854 21.7331C59.2445 21.7335 59.3034 21.7418 59.3601 21.7578C59.4169 21.7754 59.4693 21.8039 59.5141 21.8415C59.5637 21.8836 59.6019 21.9365 59.6255 21.9956C59.6561 22.0705 59.6706 22.1505 59.6682 22.2309V23.9558H60.4099ZM56.6559 23.6047L56.1627 23.139C56.1182 23.1853 56.0683 23.2266 56.0139 23.2622C55.967 23.2934 55.9155 23.3179 55.8611 23.3349C55.8038 23.3501 55.7446 23.3576 55.6851 23.357C55.604 23.3584 55.5236 23.3428 55.4495 23.3115C55.3781 23.2791 55.3153 23.232 55.2657 23.1735C55.2029 23.0992 55.1587 23.0125 55.1362 22.9196C55.1073 22.7984 55.0938 22.6743 55.0961 22.55C55.0936 22.4257 55.107 22.3016 55.1362 22.1804C55.1598 22.0902 55.204 22.006 55.2657 21.934C55.3151 21.8752 55.3779 21.828 55.4495 21.796C55.5236 21.7646 55.604 21.749 55.6851 21.7504C55.7446 21.7498 55.8038 21.7573 55.8611 21.7726C55.9157 21.789 55.9673 21.8135 56.0139 21.8452C56.0683 21.8808 56.1182 21.9221 56.1627 21.9685L56.6637 21.4929C56.5426 21.368 56.3941 21.2699 56.2288 21.2058C56.056 21.1403 55.871 21.1089 55.6851 21.1134C55.5626 21.1128 55.4405 21.1261 55.3213 21.1528C55.1958 21.182 55.0755 21.2285 54.9641 21.2908C54.8459 21.3593 54.7419 21.4478 54.6573 21.552C54.5593 21.6757 54.4864 21.8156 54.4424 21.9648C54.3336 22.3502 54.3336 22.756 54.4424 23.1414C54.4867 23.2904 54.5595 23.4304 54.6573 23.5542C54.7418 23.6591 54.8458 23.7484 54.9641 23.8179C55.0749 23.8815 55.1954 23.9285 55.3213 23.9571C55.4405 23.9838 55.5626 23.9971 55.6851 23.9965C55.871 24 56.0559 23.9682 56.2288 23.9029C56.3943 23.8339 56.5425 23.7323 56.6637 23.6047H56.6559ZM53.5194 21.3697C53.4577 21.3096 53.3881 21.2574 53.3123 21.2144C53.2414 21.1754 53.1645 21.1471 53.0845 21.1306C52.9994 21.113 52.9126 21.1043 52.8256 21.1047C52.7231 21.1052 52.6211 21.1193 52.5227 21.1466C52.4316 21.1725 52.3445 21.2098 52.2638 21.2575C52.1932 21.2974 52.1302 21.3482 52.0774 21.4079V21.1368H51.3551V23.9558H52.0942V22.2568C52.0936 22.1777 52.1081 22.0993 52.1369 22.0251C52.1619 21.9646 52.1998 21.9097 52.2482 21.8637C52.292 21.8227 52.3439 21.7904 52.401 21.7689C52.4552 21.7479 52.5133 21.7374 52.5719 21.7381C52.6252 21.7372 52.6783 21.7434 52.7298 21.7565C52.7732 21.7702 52.8146 21.7892 52.8528 21.8132C52.8924 21.8412 52.9296 21.8721 52.9641 21.9056L53.5194 21.3697ZM49.091 22.9172C49.0928 22.9906 49.0846 23.0639 49.0664 23.1353C49.0527 23.1883 49.0236 23.2366 48.9823 23.2745C48.9449 23.311 48.9011 23.341 48.8528 23.3632C48.8051 23.3829 48.7544 23.3953 48.7027 23.4002C48.6421 23.4076 48.5812 23.4109 48.5201 23.41C48.4049 23.4171 48.2908 23.3852 48.1978 23.3201C48.1631 23.2908 48.1358 23.2544 48.1179 23.2136C48.0999 23.1729 48.0919 23.1289 48.0943 23.0847C48.0919 23.0406 48.1003 22.9965 48.1187 22.9559C48.1371 22.9153 48.165 22.8793 48.2004 22.8506C48.2904 22.7897 48.3995 22.7597 48.5098 22.7656H49.0949L49.091 22.9172ZM49.8289 23.9558V22.1003C49.8393 21.9611 49.8161 21.8215 49.7609 21.6923C49.7056 21.563 49.62 21.4476 49.5104 21.3549C49.2968 21.1885 48.9836 21.1084 48.568 21.1084C48.4231 21.1063 48.2783 21.1174 48.1357 21.1417C48.0156 21.1637 47.9004 21.2054 47.7952 21.2649C47.6845 21.3282 47.5846 21.4071 47.4988 21.499L47.9713 21.9377C48.0158 21.8868 48.0666 21.8412 48.1227 21.8021C48.1762 21.7675 48.2359 21.7424 48.2988 21.7282C48.3778 21.7111 48.4586 21.7033 48.5396 21.7048C48.6891 21.6917 48.8387 21.7297 48.9616 21.812C49.0084 21.8551 49.0443 21.9078 49.0668 21.9661C49.0892 22.0243 49.0975 22.0866 49.091 22.1483V22.2888H48.392C48.2395 22.2873 48.0879 22.3094 47.9428 22.3541C47.8262 22.3907 47.719 22.4503 47.6283 22.5291C47.5462 22.6014 47.4821 22.6902 47.4406 22.789C47.3998 22.8901 47.3791 22.9975 47.3797 23.1057C47.3786 23.2253 47.3997 23.3442 47.4418 23.4568C47.4815 23.5623 47.5436 23.6588 47.6244 23.7402C47.7144 23.8243 47.8233 23.888 47.9428 23.9263C48.1809 23.9944 48.4328 24.0062 48.6768 23.9608C48.7578 23.9422 48.8354 23.9123 48.9072 23.8721C48.9801 23.8283 49.0475 23.7766 49.1078 23.7181V23.9645L49.8289 23.9558ZM45.4432 22.2839H44.3183C44.3188 22.2467 44.3223 22.2096 44.3286 22.173C44.3322 22.1408 44.3391 22.109 44.3493 22.0781C44.3584 22.0473 44.3713 22.0153 44.3856 21.9808C44.4124 21.925 44.4492 21.8742 44.4943 21.8305C44.5412 21.786 44.5971 21.7512 44.6587 21.7282C44.8016 21.6757 44.9599 21.6757 45.1027 21.7282C45.1643 21.7512 45.2203 21.786 45.2671 21.8305C45.3123 21.8742 45.3491 21.925 45.3759 21.9808C45.3898 22.0126 45.4019 22.0451 45.4121 22.0781C45.4219 22.1091 45.4288 22.1409 45.4328 22.173C45.4391 22.2097 45.4426 22.2467 45.4432 22.2839ZM46.1707 22.7656V22.4527C46.1727 22.2704 46.1439 22.089 46.0852 21.9155C46.0322 21.7585 45.9469 21.6131 45.8341 21.4879C45.7238 21.3661 45.5857 21.27 45.4302 21.207C45.2565 21.1377 45.0697 21.1029 44.8814 21.1047C44.7008 21.1031 44.5217 21.1357 44.3545 21.2009C44.1985 21.2629 44.0594 21.3582 43.9481 21.4793C43.8306 21.6119 43.7425 21.7657 43.6892 21.9315C43.6241 22.1309 43.5927 22.3388 43.596 22.5476C43.5925 22.7462 43.6178 22.9444 43.671 23.1365C43.7125 23.2847 43.7818 23.4245 43.8756 23.5493C43.959 23.6547 44.0627 23.7441 44.1811 23.8129C44.2968 23.8778 44.4227 23.9248 44.5539 23.9521C44.6891 23.9796 44.8272 23.9929 44.9655 23.9916C45.1212 23.9943 45.2766 23.9773 45.4276 23.9411C45.5539 23.9092 45.6741 23.8585 45.7836 23.7907C45.8951 23.7195 45.9979 23.6369 46.0904 23.5443L45.6412 23.1266C45.5854 23.1822 45.5233 23.2318 45.4561 23.2745C45.3922 23.3146 45.3218 23.3446 45.2477 23.3632C45.1574 23.3837 45.0648 23.3936 44.972 23.3928C44.8486 23.3954 44.7267 23.3669 44.6186 23.3102C44.5241 23.2583 44.4476 23.1812 44.3985 23.0884C44.3472 22.9875 44.3215 22.8765 44.3234 22.7644L46.1707 22.7656ZM42.3817 23.0687C42.3872 22.9643 42.3705 22.8598 42.3327 22.7616C42.2949 22.6634 42.2368 22.5734 42.1617 22.497C41.9796 22.3404 41.7454 22.2497 41.5002 22.2408L41.0342 22.1976C40.9662 22.1939 40.8997 22.1772 40.8387 22.1483C40.8004 22.1273 40.7694 22.096 40.7494 22.0584C40.7347 22.0257 40.7272 21.9905 40.7274 21.9549C40.7268 21.9072 40.7422 21.8606 40.7714 21.8218C40.8059 21.7768 40.8537 21.7425 40.9086 21.7233C40.9849 21.6952 41.0663 21.6818 41.1481 21.6838C41.2347 21.6827 41.3213 21.688 41.407 21.6999C41.4881 21.7108 41.5676 21.7306 41.6439 21.759C41.7164 21.7852 41.7831 21.8241 41.8406 21.8736L42.2963 21.435C42.2033 21.352 42.096 21.2849 41.9791 21.2366C41.8579 21.1867 41.7304 21.1519 41.5999 21.1331C41.4559 21.1127 41.3105 21.1032 41.1649 21.1047C41.0186 21.1042 40.873 21.1237 40.7326 21.1627C40.6012 21.1993 40.4776 21.2577 40.3675 21.3352C40.2622 21.4092 40.1763 21.5053 40.1164 21.6161C40.0523 21.7431 40.02 21.8825 40.022 22.0234C40.024 22.1642 40.0603 22.3027 40.128 22.428C40.1976 22.5397 40.3015 22.6283 40.4258 22.6818C40.5712 22.7447 40.7273 22.7823 40.8866 22.7927L41.3526 22.8359C41.4413 22.8381 41.5268 22.8679 41.596 22.9209C41.6199 22.9437 41.6384 22.9711 41.6502 23.0013C41.662 23.0315 41.667 23.0637 41.6646 23.0958C41.6658 23.1442 41.6499 23.1915 41.6193 23.2301C41.5876 23.2694 41.5462 23.3007 41.4989 23.3213C41.4458 23.3451 41.3897 23.3621 41.3319 23.3718C41.2691 23.3827 41.2054 23.3881 41.1416 23.3878C41.0575 23.389 40.9735 23.3832 40.8905 23.3706C40.7959 23.3575 40.7036 23.3322 40.6161 23.2954C40.5196 23.2532 40.4319 23.1948 40.3572 23.1229L39.8743 23.5825C39.9605 23.6659 40.0581 23.738 40.1643 23.7969C40.2605 23.8505 40.3636 23.8919 40.4711 23.9201C40.5768 23.9485 40.6852 23.9671 40.7947 23.9756C40.9082 23.9863 41.0224 23.9909 41.1364 23.9891C41.3018 23.9902 41.4666 23.9716 41.6271 23.9337C41.7697 23.8995 41.9051 23.842 42.027 23.7636C42.1388 23.6893 42.2306 23.591 42.295 23.4766C42.3576 23.3491 42.3874 23.2093 42.3817 23.0687ZM38.0077 22.2839H36.8815C36.8815 22.2432 36.8815 22.2063 36.8919 22.173C36.8966 22.141 36.9035 22.1093 36.9126 22.0781C36.9229 22.0473 36.9346 22.0153 36.9501 21.9808C36.976 21.9248 37.0124 21.8739 37.0575 21.8305C37.1046 21.7863 37.1605 21.7515 37.2219 21.7282C37.3648 21.6757 37.5231 21.6757 37.666 21.7282C37.7275 21.7512 37.7835 21.786 37.8303 21.8305C37.8759 21.8739 37.9128 21.9248 37.9391 21.9808C37.9535 22.0125 37.966 22.045 37.9766 22.0781C37.9858 22.1093 37.9927 22.141 37.9973 22.173C38.0025 22.2063 38.0051 22.2444 38.0077 22.2839ZM38.7352 22.7656V22.4527C38.7373 22.2704 38.7084 22.089 38.6498 21.9155C38.5962 21.7587 38.5109 21.6134 38.3986 21.4879C38.2876 21.3664 38.1491 21.2703 37.9935 21.207C37.8198 21.1376 37.633 21.1028 37.4446 21.1047C37.2644 21.1031 37.0857 21.1357 36.919 21.2009C36.7624 21.2626 36.6229 21.3579 36.5113 21.4793C36.3933 21.6115 36.3052 21.7655 36.2524 21.9315C36.1868 22.1308 36.1549 22.3387 36.1579 22.5476C36.1548 22.7463 36.1805 22.9444 36.2343 23.1365C36.2751 23.2849 36.3445 23.4248 36.4388 23.5493C36.5216 23.6552 36.6254 23.7448 36.7443 23.8129C36.8599 23.878 36.9858 23.925 37.1171 23.9521C37.2519 23.9796 37.3895 23.9929 37.5274 23.9916C37.6832 23.9944 37.8386 23.9774 37.9896 23.9411C38.1163 23.9092 38.2368 23.8585 38.3468 23.7907C38.458 23.7192 38.5609 23.6366 38.6536 23.5443L38.2057 23.1279C38.1495 23.1835 38.087 23.2331 38.0193 23.2757C37.956 23.3161 37.886 23.346 37.8122 23.3644C37.7215 23.3849 37.6285 23.3949 37.5352 23.394C37.4118 23.3966 37.2899 23.3681 37.1818 23.3115C37.0877 23.2594 37.0117 23.1823 36.963 23.0897C36.9107 22.989 36.8845 22.8779 36.8867 22.7656H38.7352ZM109.578 23.9558V23.3607H109.311C109.276 23.3636 109.24 23.3593 109.207 23.348C109.173 23.3368 109.143 23.3188 109.117 23.2954C109.072 23.2425 109.05 23.175 109.055 23.1069V21.7516H109.573V21.2156H109.055V20.3827H108.316V21.2156H108.003V21.7516H108.316V23.1476C108.316 23.2476 108.333 23.347 108.365 23.4421C108.398 23.5369 108.45 23.6245 108.519 23.6996C108.592 23.7797 108.683 23.8429 108.786 23.8844C108.909 23.9327 109.041 23.9562 109.174 23.9534L109.578 23.9558ZM106.715 23.9558V22.1533C106.716 22.0546 106.708 21.9561 106.691 21.8588C106.673 21.7665 106.642 21.677 106.598 21.5927C106.551 21.502 106.489 21.4188 106.414 21.3462C106.328 21.2675 106.226 21.2067 106.114 21.1676C105.986 21.1228 105.851 21.1003 105.715 21.1011C105.624 21.1011 105.533 21.1123 105.445 21.1343C105.266 21.1756 105.103 21.2655 104.976 21.3931V21.1331H104.254V23.9521H104.993V22.2518C104.991 22.1678 105.006 22.0842 105.037 22.0054C105.062 21.9448 105.101 21.8908 105.152 21.8477C105.199 21.8081 105.253 21.7783 105.313 21.7602C105.369 21.7425 105.428 21.7338 105.488 21.7344C105.547 21.7345 105.606 21.7432 105.662 21.7602C105.724 21.7798 105.78 21.8121 105.826 21.8547C105.873 21.8973 105.91 21.9492 105.933 22.0067C105.964 22.0853 105.978 22.1691 105.976 22.2531V23.9571L106.715 23.9558ZM102.108 22.2839H100.988C100.988 22.2432 100.988 22.2063 100.998 22.173C101.003 22.141 101.01 22.1093 101.019 22.0781C101.029 22.0473 101.041 22.0153 101.057 21.9808C101.083 21.9248 101.12 21.8739 101.165 21.8305C101.212 21.786 101.268 21.7512 101.33 21.7282C101.4 21.7011 101.475 21.6877 101.551 21.6888C101.627 21.6875 101.702 21.7009 101.772 21.7282C101.834 21.7512 101.891 21.786 101.938 21.8305C101.983 21.8739 102.02 21.9248 102.046 21.9808C102.06 22.0123 102.073 22.0449 102.083 22.0781C102.092 22.1093 102.099 22.141 102.104 22.173C102.107 22.2098 102.109 22.2469 102.108 22.2839ZM102.835 22.7656V22.4527C102.837 22.2704 102.808 22.089 102.75 21.9155C102.696 21.7587 102.611 21.6134 102.499 21.4879C102.388 21.3667 102.25 21.2707 102.095 21.207C101.921 21.1376 101.733 21.1028 101.545 21.1047C101.364 21.1031 101.186 21.1357 101.019 21.2009C100.863 21.2632 100.723 21.3584 100.611 21.4793C100.493 21.6115 100.405 21.7655 100.352 21.9315C100.287 22.1308 100.255 22.3387 100.258 22.5476C100.255 22.7463 100.28 22.9444 100.334 23.1365C100.375 23.2849 100.444 23.4248 100.539 23.5493C100.621 23.6549 100.725 23.7444 100.843 23.8129C100.959 23.8776 101.085 23.9245 101.217 23.9521C101.352 23.9796 101.49 23.9929 101.629 23.9916C101.784 23.9943 101.94 23.9773 102.091 23.9411C102.217 23.9092 102.337 23.8585 102.447 23.7907C102.558 23.7195 102.661 23.6369 102.754 23.5443L102.304 23.1266C102.249 23.1822 102.187 23.2318 102.119 23.2745C102.055 23.3146 101.985 23.3446 101.911 23.3632C101.82 23.3837 101.727 23.3936 101.634 23.3928C101.511 23.3956 101.389 23.3671 101.282 23.3102C101.187 23.2583 101.111 23.1812 101.062 23.0884C101.012 22.9889 100.986 22.8797 100.988 22.7693L102.835 22.7656ZM35.3204 21.3697C35.2584 21.3099 35.1888 21.2577 35.1132 21.2144C35.0423 21.1755 34.9654 21.1473 34.8854 21.1306C34.8004 21.113 34.7136 21.1043 34.6265 21.1047C34.4287 21.1042 34.2347 21.1572 34.0673 21.2575C33.9974 21.2977 33.9349 21.3485 33.8822 21.4079V21.1368H33.1573V23.9558H33.8964V22.2568C33.8948 22.1797 33.9075 22.1029 33.934 22.0301C33.9585 21.9696 33.996 21.9147 34.044 21.8687C34.0882 21.8276 34.1406 21.7953 34.198 21.7738C34.2523 21.7527 34.3104 21.7422 34.3689 21.743C34.4218 21.7421 34.4745 21.7483 34.5255 21.7615C34.5713 21.7744 34.6149 21.7935 34.655 21.8181C34.6943 21.8464 34.7315 21.8773 34.7663 21.9106L35.3204 21.3697ZM37.8938 9.6363H31.1625V16.0433H37.8938V9.6363ZM112.399 9.709H119.067V16.047H112.399V9.709ZM108.94 19.2529H119.067V20.8743H112.357V24.0618H122.435V6.40202H108.94V19.2529ZM129.536 19.3601V6.43036H142.999V9.63384H132.902V16.0408H142.999V19.2443L129.536 19.3601ZM127.609 1.60297H124.243V4.80645H127.609V1.60297ZM127.609 19.2381H124.243V6.42421H127.609V19.2381ZM103.645 9.62152H96.9271V16.047H103.645V9.62152ZM93.5589 6.43036H107.021V19.2529H93.6094V6.43036H93.5589ZM88.3681 19.2443H91.7337V0H88.3681V19.2443ZM83.3403 9.25066H76.6V11.6175H83.3403V9.25066ZM73.2317 19.2541V6.40202H86.7085V14.4637H76.6V16.047H83.3015V19.2504L73.2317 19.2541ZM61.7717 19.2443L58.4061 19.2726V6.43899H71.8803V9.6363H61.7717V19.2443ZM43.0678 19.2726V6.40202H46.4334V16.047H53.1854V6.43652H56.5511V19.2504L43.0678 19.2726ZM31.1586 24.063H27.793V6.44392H41.2607V19.2714H31.1638L31.1586 24.063Z" fill="#3C3C3B"/>
</svg>
