<svg width="222" height="40" viewBox="0 0 222 40" fill="none" xmlns="http://www.w3.org/2000/svg">
<path fill-rule="evenodd" clip-rule="evenodd" d="M13.1042 28.7817C12.9961 29.0853 12.8211 29.3633 12.591 29.5973C12.3608 29.8313 12.0808 30.0158 11.7697 30.1385C11.4586 30.2611 11.1236 30.3191 10.787 30.3086C10.4504 30.2981 10.1201 30.2192 9.81814 30.0774L4.9397 34.7169C5.18709 35.1949 5.24811 35.741 5.11191 36.2578C4.97571 36.7746 4.65112 37.2286 4.19601 37.5389C3.74089 37.8492 3.18481 37.9956 2.62687 37.952C2.06894 37.9084 1.54539 37.6776 1.14954 37.3008C0.75369 36.9241 0.511256 36.4257 0.465447 35.8947C0.419637 35.3636 0.573427 34.8343 0.899408 34.4012C1.22539 33.968 1.70238 33.659 2.24538 33.5294C2.78837 33.3997 3.36209 33.4578 3.86428 33.6933L8.73765 29.0547C8.59088 28.7782 8.50567 28.4757 8.48734 28.1664C8.469 27.857 8.51795 27.5474 8.6311 27.2569C8.74426 26.9663 8.91919 26.7012 9.14496 26.4779C9.37072 26.2547 9.64246 26.0782 9.94317 25.9596C10.2439 25.8409 10.5671 25.7825 10.8926 25.7882C11.218 25.7939 11.5388 25.8634 11.8347 25.9925C12.1307 26.1215 12.3955 26.3074 12.6125 26.5383C12.8296 26.7692 12.9942 27.0403 13.0961 27.3346H16.6569C16.7745 27.0066 16.9699 26.7089 17.2279 26.4644C17.486 26.22 17.7997 26.0354 18.1448 25.9251V22.5484C17.8305 22.4564 17.5397 22.303 17.2912 22.0981C17.0426 21.8931 16.8416 21.6411 16.7011 21.3581C16.5606 21.075 16.4837 20.7672 16.4752 20.4543C16.4667 20.1414 16.5268 19.8302 16.6518 19.5407C16.7767 19.2511 16.9637 18.9895 17.2008 18.7726C17.4379 18.5557 17.72 18.3882 18.0289 18.2809C18.3378 18.1736 18.6669 18.1287 18.995 18.1492C19.3232 18.1697 19.6433 18.2551 19.9348 18.4L24.8183 13.7518C24.5705 13.2743 24.5089 12.7286 24.6444 12.2119C24.7799 11.6952 25.1037 11.241 25.5581 10.9304C26.0126 10.6197 26.5682 10.4727 27.1259 10.5156C27.6836 10.5585 28.2072 10.7884 28.6034 11.1644C28.9995 11.5405 29.2426 12.0382 29.2892 12.5689C29.3358 13.0996 29.183 13.6288 28.8579 14.0623C28.5328 14.4957 28.0566 14.8052 27.5141 14.9356C26.9716 15.066 26.3981 15.0089 25.8958 14.7744L20.9961 19.439C21.1378 19.7227 21.2157 20.0315 21.2247 20.3455C21.2338 20.6595 21.1738 20.9719 21.0486 21.2626C20.9234 21.5533 20.7357 21.8158 20.4977 22.0334C20.2596 22.251 19.9764 22.4189 19.6662 22.5262V25.9338C20.0462 26.0581 20.3866 26.2724 20.6555 26.5567C20.9243 26.8409 21.1126 27.1856 21.2027 27.5583C21.2928 27.931 21.2817 28.3194 21.1704 28.6869C21.0591 29.0543 20.8513 29.3888 20.5666 29.6587C20.282 29.9285 19.9298 30.1249 19.5432 30.2294C19.1567 30.3338 18.7486 30.3428 18.3574 30.2556C17.9662 30.1683 17.6048 29.9876 17.3073 29.7306C17.0098 29.4736 16.7859 29.1487 16.6569 28.7865L13.1042 28.7817Z" fill="#95B03C"/>
<path fill-rule="evenodd" clip-rule="evenodd" d="M5.18256 12.7513C5.18256 13.1964 5.04387 13.6316 4.78403 14.0017C4.5242 14.3719 4.15488 14.6604 3.72278 14.8307C3.29069 15.0011 2.81522 15.0456 2.35651 14.9588C1.8978 14.872 1.47645 14.6576 1.14574 14.3428C0.815024 14.028 0.589807 13.627 0.498564 13.1904C0.407321 12.7538 0.454149 12.3012 0.633129 11.8899C0.812109 11.4787 1.1152 11.1271 1.50408 10.8798C1.89295 10.6325 2.35015 10.5005 2.81784 10.5005C3.44501 10.5005 4.04648 10.7376 4.48995 11.1597C4.93342 11.5818 5.18256 12.1543 5.18256 12.7513ZM5.18256 20.4037C5.18256 20.8489 5.04385 21.2841 4.78396 21.6543C4.52408 22.0245 4.1547 22.3129 3.72255 22.4833C3.29039 22.6536 2.81488 22.6981 2.35614 22.6112C1.8974 22.5243 1.47605 22.3098 1.14538 21.9949C0.814706 21.6801 0.589569 21.2789 0.49844 20.8422C0.407311 20.4056 0.454285 19.953 0.63342 19.5417C0.812555 19.1305 1.11581 18.779 1.50482 18.5318C1.89382 18.2846 2.35112 18.1528 2.81886 18.1529C3.44576 18.1535 4.04682 18.3908 4.49002 18.8128C4.93321 19.2348 5.18229 19.807 5.18256 20.4037ZM13.2234 20.4037C13.2234 20.8489 13.0847 21.2841 12.8249 21.6542C12.565 22.0243 12.1957 22.3128 11.7636 22.4832C11.3315 22.6535 10.8561 22.6981 10.3974 22.6113C9.93865 22.5244 9.5173 22.31 9.18659 21.9953C8.85588 21.6805 8.63066 21.2794 8.53942 20.8428C8.44817 20.4062 8.495 19.9537 8.67398 19.5424C8.85296 19.1311 9.15605 18.7796 9.54493 18.5323C9.93381 18.285 10.391 18.1529 10.8587 18.1529C11.4858 18.1532 12.0871 18.3904 12.5305 18.8125C12.9739 19.2345 13.2231 19.8069 13.2234 20.4037ZM13.2234 12.7513C13.2234 13.1964 13.0847 13.6316 12.8249 14.0017C12.565 14.3719 12.1957 14.6604 11.7636 14.8307C11.3315 15.0011 10.8561 15.0456 10.3974 14.9588C9.93865 14.872 9.5173 14.6576 9.18659 14.3428C8.85588 14.028 8.63066 13.627 8.53942 13.1904C8.44817 12.7538 8.495 12.3012 8.67398 11.8899C8.85296 11.4787 9.15605 11.1271 9.54493 10.8798C9.93381 10.6325 10.391 10.5005 10.8587 10.5005C11.4858 10.5007 12.0871 10.738 12.5305 11.16C12.9739 11.5821 13.2231 12.1544 13.2234 12.7513ZM21.2308 12.7513C21.2308 13.1963 21.0922 13.6313 20.8326 14.0013C20.5729 14.3714 20.2038 14.6599 19.772 14.8303C19.3401 15.0008 18.8649 15.0456 18.4063 14.9591C17.9477 14.8725 17.5263 14.6586 17.1954 14.3442C16.8645 14.0298 16.639 13.6291 16.5473 13.1927C16.4556 12.7564 16.5019 12.3039 16.6802 11.8926C16.8586 11.4813 17.161 11.1295 17.5494 10.8817C17.9377 10.6339 18.3945 10.5013 18.862 10.5005C19.4892 10.5005 20.0907 10.7376 20.5342 11.1597C20.9776 11.5818 21.2268 12.1543 21.2268 12.7513H21.2308ZM29.3082 20.4037C29.3082 20.8489 29.1694 21.2841 28.9096 21.6543C28.6497 22.0245 28.2803 22.3129 27.8481 22.4833C27.416 22.6536 26.9405 22.6981 26.4817 22.6112C26.023 22.5243 25.6016 22.3098 25.271 21.9949C24.9403 21.6801 24.7152 21.2789 24.624 20.8422C24.5329 20.4056 24.5799 19.953 24.759 19.5417C24.9382 19.1305 25.2414 18.779 25.6304 18.5318C26.0194 18.2846 26.4767 18.1528 26.9445 18.1529C27.5707 18.1542 28.1709 18.3919 28.6133 18.8139C29.0557 19.2359 29.3041 19.8076 29.3041 20.4037H29.3082ZM29.3082 28.0572C29.3082 28.5024 29.1694 28.9376 28.9096 29.3077C28.6497 29.6779 28.2803 29.9664 27.8481 30.1367C27.416 30.307 26.9405 30.3515 26.4817 30.2646C26.023 30.1777 25.6016 29.9632 25.271 29.6484C24.9403 29.3335 24.7152 28.9323 24.624 28.4957C24.5329 28.059 24.5799 27.6064 24.759 27.1952C24.9382 26.7839 25.2414 26.4324 25.6304 26.1852C26.0194 25.938 26.4767 25.8062 26.9445 25.8064C27.5711 25.8077 28.1716 26.0456 28.614 26.468C29.0564 26.8904 29.3046 27.4626 29.3041 28.0591L29.3082 28.0572ZM29.3082 35.7106C29.3086 36.1557 29.1703 36.5909 28.9108 36.9613C28.6514 37.3316 28.2824 37.6204 27.8505 37.7911C27.4186 37.9619 26.9432 38.0069 26.4845 37.9205C26.0257 37.8341 25.6042 37.6202 25.2731 37.3058C24.9421 36.9913 24.7164 36.5906 24.6247 36.1541C24.5329 35.7176 24.5792 35.2651 24.7577 34.8536C24.9361 34.4422 25.2387 34.0903 25.6272 33.8426C26.0158 33.5948 26.4727 33.4623 26.9404 33.4617C27.5671 33.4617 28.1682 33.6986 28.6114 34.1203C29.0547 34.5421 29.3038 35.1141 29.3041 35.7106H29.3082ZM21.2308 35.7106C21.2312 36.1557 21.093 36.5909 20.8336 36.9612C20.5741 37.3315 20.2052 37.6203 19.7734 37.791C19.3416 37.9618 18.8662 38.0069 18.4075 37.9206C17.9488 37.8342 17.5272 37.6204 17.1961 37.3061C16.8651 36.9918 16.6393 36.5911 16.5475 36.1547C16.4556 35.7183 16.5017 35.2657 16.68 34.8543C16.8583 34.4428 17.1608 34.0909 17.5492 33.8431C17.9376 33.5952 18.3944 33.4625 18.862 33.4617C19.4889 33.4617 20.09 33.6986 20.5334 34.1203C20.9768 34.542 21.2262 35.114 21.2268 35.7106H21.2308ZM13.2234 35.7106C13.2238 36.1558 13.0855 36.5912 12.8259 36.9616C12.5663 37.332 12.1971 37.6208 11.765 37.7914C11.333 37.9621 10.8575 38.0069 10.3986 37.9203C9.93976 37.8337 9.51822 37.6194 9.18731 37.3047C8.85639 36.99 8.63097 36.589 8.53957 36.1523C8.44816 35.7157 8.49487 35.263 8.67379 34.8516C8.85271 34.4402 9.1558 34.0886 9.54472 33.8412C9.93364 33.5938 10.3909 33.4617 10.8587 33.4617C11.4854 33.462 12.0864 33.6989 12.5298 34.1206C12.9731 34.5422 13.2226 35.114 13.2234 35.7106ZM5.18256 28.0591C5.18256 28.5043 5.04385 28.9395 4.78396 29.3097C4.52408 29.6798 4.1547 29.9683 3.72255 30.1386C3.29039 30.309 2.81488 30.3535 2.35614 30.2665C1.8974 30.1796 1.47605 29.9652 1.14538 29.6503C0.814706 29.3354 0.589569 28.9343 0.49844 28.4976C0.407311 28.0609 0.454285 27.6083 0.63342 27.1971C0.812555 26.7858 1.11581 26.4344 1.50482 26.1872C1.89382 25.94 2.35112 25.8081 2.81886 25.8083C3.44576 25.8088 4.04682 26.0461 4.49002 26.4682C4.93321 26.8902 5.18229 27.4624 5.18256 28.0591Z" fill="#3C3C3B"/>
<path fill-rule="evenodd" clip-rule="evenodd" d="M153.631 37.5374V34.7447C153.636 34.5175 153.599 34.2913 153.52 34.0766C153.433 33.8595 153.296 33.6638 153.119 33.5039C152.984 33.3761 152.821 33.2783 152.642 33.2176C152.436 33.1489 152.22 33.1141 152.002 33.1145C151.826 33.1132 151.65 33.1324 151.479 33.1718C151.32 33.2129 151.168 33.2773 151.03 33.3627C150.882 33.4504 150.748 33.5556 150.628 33.6757C150.492 33.4942 150.308 33.3495 150.095 33.2558C149.879 33.1621 149.643 33.1158 149.405 33.1202C149.264 33.1212 149.124 33.1385 148.988 33.1718C148.851 33.2064 148.719 33.2584 148.597 33.3264C148.474 33.3939 148.36 33.4767 148.26 33.5726V33.1699H147.143V37.5374H148.29V34.8974C148.286 34.7671 148.309 34.6374 148.358 34.5156C148.396 34.4218 148.458 34.338 148.537 34.2713C148.608 34.2104 148.692 34.1643 148.783 34.1358C148.871 34.1084 148.964 34.0948 149.056 34.0957C149.148 34.0959 149.239 34.1094 149.327 34.1358C149.417 34.1648 149.499 34.2109 149.57 34.2713C149.647 34.3388 149.707 34.4224 149.744 34.5156C149.793 34.6374 149.816 34.7671 149.812 34.8974V37.5374H150.957V34.8649C150.955 34.7408 150.979 34.6175 151.028 34.5023C151.069 34.4117 151.13 34.3309 151.208 34.2656C151.28 34.2066 151.364 34.1618 151.455 34.1339C151.541 34.1068 151.632 34.0932 151.723 34.0938C151.816 34.0939 151.908 34.1074 151.996 34.1339C152.086 34.1625 152.168 34.2086 152.237 34.2694C152.315 34.3362 152.376 34.42 152.413 34.5137C152.461 34.6357 152.484 34.7653 152.482 34.8955V37.5354L153.631 37.5374ZM143.772 35.3498C143.775 35.5162 143.766 35.6827 143.746 35.848C143.733 35.9846 143.699 36.1186 143.643 36.2451C143.595 36.3539 143.513 36.4464 143.409 36.5104C143.282 36.5742 143.141 36.6076 142.998 36.6076C142.854 36.6076 142.713 36.5742 142.586 36.5104C142.482 36.4464 142.4 36.3539 142.352 36.2451C142.296 36.1184 142.261 35.9846 142.248 35.848C142.229 35.6825 142.22 35.5162 142.221 35.3498C142.22 35.184 142.229 35.0183 142.248 34.8535C142.261 34.7176 142.296 34.5843 142.352 34.4584C142.4 34.3504 142.482 34.2591 142.586 34.1968C142.711 34.1284 142.854 34.0953 142.998 34.1014C143.138 34.098 143.277 34.131 143.399 34.1968C143.503 34.2591 143.585 34.3504 143.633 34.4584C143.689 34.5842 143.723 34.7175 143.736 34.8535C143.759 35.018 143.771 35.1838 143.772 35.3498ZM144.917 35.3498C144.917 35.1837 144.917 35.0196 144.917 34.8497C144.911 34.682 144.893 34.5148 144.863 34.3496C144.837 34.1925 144.791 34.0392 144.724 33.8933C144.613 33.6396 144.411 33.4314 144.155 33.3054C144.035 33.2438 143.907 33.1976 143.774 33.168C143.632 33.1364 143.486 33.1204 143.341 33.1202C143.123 33.1151 142.907 33.1508 142.705 33.2252C142.508 33.3052 142.334 33.4274 142.195 33.5822V33.1699H141.07V39.1351H142.213V37.1518C142.347 37.2992 142.516 37.4149 142.705 37.4896C142.903 37.5591 143.113 37.5922 143.324 37.587C143.47 37.5878 143.616 37.5718 143.758 37.5393C143.89 37.5103 144.019 37.4647 144.139 37.4037C144.397 37.2788 144.599 37.0694 144.708 36.8139C144.774 36.6665 144.82 36.512 144.847 36.3539C144.877 36.1886 144.895 36.0214 144.901 35.8537C144.917 35.6819 144.919 35.5082 144.917 35.3498ZM137.697 35.3498C137.697 35.5006 137.697 35.6438 137.681 35.7774C137.672 35.8999 137.648 36.021 137.609 36.1382C137.572 36.2412 137.513 36.3356 137.434 36.4149C137.368 36.4769 137.288 36.5255 137.202 36.5581C137.104 36.592 137.001 36.6089 136.897 36.6077C136.794 36.6092 136.691 36.5924 136.594 36.5581C136.509 36.5259 136.432 36.4771 136.367 36.4149C136.288 36.3366 136.228 36.2419 136.193 36.1382C136.153 36.0211 136.128 35.9 136.119 35.7774C136.107 35.6438 136.101 35.5006 136.103 35.3498C136.105 35.199 136.103 35.0577 136.119 34.926C136.128 34.804 136.153 34.6835 136.193 34.5672C136.228 34.4645 136.288 34.3711 136.367 34.2942C136.432 34.232 136.509 34.1827 136.594 34.1491C136.691 34.1163 136.794 34.1001 136.897 34.1014C137.001 34.1004 137.104 34.1166 137.202 34.1491C137.289 34.1824 137.368 34.2317 137.434 34.2942C137.512 34.3725 137.572 34.4655 137.609 34.5672C137.648 34.6836 137.672 34.8041 137.681 34.926C137.695 35.0558 137.701 35.199 137.699 35.3498H137.697ZM138.842 35.3498C138.844 35.1163 138.83 34.8829 138.8 34.6512C138.774 34.4624 138.721 34.278 138.642 34.1033C138.563 33.938 138.455 33.7869 138.323 33.6566C138.22 33.5547 138.104 33.4655 137.978 33.3913C137.83 33.3067 137.671 33.2424 137.505 33.2004C137.106 33.0986 136.687 33.0986 136.289 33.2004C136.124 33.2424 135.966 33.3067 135.82 33.3913C135.695 33.4654 135.58 33.5546 135.479 33.6566C135.346 33.7863 135.238 33.9376 135.16 34.1033C135.079 34.2774 135.025 34.462 135.002 34.6512C134.97 34.8828 134.955 35.1162 134.958 35.3498C134.955 35.5853 134.97 35.8206 135.002 36.0542C135.025 36.2445 135.079 36.4304 135.16 36.6058C135.238 36.7709 135.346 36.9215 135.479 37.0506C135.58 37.1537 135.694 37.2436 135.82 37.3178C135.966 37.4016 136.124 37.4659 136.289 37.5087C136.485 37.5593 136.688 37.5844 136.891 37.5832C137.094 37.5851 137.297 37.56 137.493 37.5087C137.659 37.4659 137.818 37.4016 137.966 37.3178C138.093 37.2436 138.209 37.1537 138.311 37.0506C138.443 36.921 138.551 36.7705 138.63 36.6058C138.709 36.4299 138.763 36.2442 138.788 36.0542C138.823 35.8208 138.841 35.5855 138.844 35.3498H138.842ZM133.271 37.5374V36.6154H132.83C132.773 36.6206 132.717 36.6145 132.663 36.5974C132.61 36.5803 132.56 36.5526 132.519 36.5161C132.45 36.433 132.416 36.328 132.425 36.2221V31.5683H131.284V36.289C131.283 36.444 131.308 36.5981 131.36 36.7452C131.41 36.8924 131.491 37.0282 131.598 37.1441C131.712 37.2693 131.855 37.3673 132.016 37.4305C132.206 37.5051 132.411 37.5415 132.617 37.5374H133.271ZM127.999 34.947H126.256C126.257 34.8895 126.262 34.832 126.272 34.7752C126.279 34.7256 126.29 34.6765 126.304 34.6283C126.32 34.5768 126.339 34.5265 126.362 34.4774C126.402 34.3908 126.459 34.3119 126.528 34.2446C126.601 34.1757 126.688 34.1218 126.783 34.0861C127.005 34.0048 127.25 34.0048 127.471 34.0861C127.566 34.1218 127.653 34.1757 127.726 34.2446C127.796 34.3123 127.853 34.3911 127.894 34.4774C127.916 34.5267 127.935 34.577 127.95 34.6283C127.966 34.676 127.977 34.7253 127.982 34.7752C127.993 34.832 127.999 34.8894 128.001 34.947H127.999ZM129.128 35.6934V35.2085C129.131 34.926 129.086 34.6448 128.993 34.3763C128.911 34.1335 128.779 33.9085 128.606 33.7139C128.434 33.5255 128.22 33.3767 127.978 33.2787C127.709 33.1711 127.42 33.1172 127.128 33.1202C126.848 33.1178 126.571 33.1684 126.312 33.2691C126.07 33.3653 125.855 33.5129 125.682 33.7005C125.5 33.9059 125.364 34.1442 125.281 34.4011C125.181 34.7102 125.133 35.0322 125.137 35.3555C125.131 35.6633 125.171 35.9703 125.253 36.268C125.318 36.4973 125.425 36.7138 125.57 36.9074C125.699 37.0707 125.86 37.2093 126.043 37.3159C126.223 37.4164 126.417 37.4892 126.621 37.5316C126.83 37.5741 127.044 37.5946 127.258 37.5927C127.5 37.597 127.741 37.5707 127.974 37.5145C128.17 37.4651 128.356 37.3865 128.526 37.2816C128.699 37.1717 128.858 37.0437 129.001 36.8998L128.307 36.2527C128.22 36.3384 128.123 36.4152 128.019 36.4818C127.919 36.5439 127.81 36.5903 127.696 36.6192C127.555 36.6511 127.411 36.6665 127.267 36.665C127.076 36.6688 126.888 36.6247 126.721 36.5371C126.575 36.456 126.457 36.3368 126.38 36.1935C126.301 36.0371 126.261 35.8652 126.264 35.6915L129.128 35.6934ZM123.623 33.1699H122.419L121.495 35.869L120.56 33.1699H119.357L121.047 37.5374H121.946L123.623 33.1699ZM116.724 34.947H114.981C114.982 34.8896 114.987 34.8322 114.995 34.7752C115.002 34.7256 115.013 34.6765 115.027 34.6283C115.043 34.5805 115.061 34.5309 115.085 34.4774C115.126 34.3912 115.182 34.3124 115.252 34.2446C115.325 34.1757 115.412 34.1218 115.508 34.0861C115.729 34.0047 115.974 34.0047 116.194 34.0861C116.29 34.1218 116.376 34.1757 116.449 34.2446C116.519 34.3118 116.577 34.3907 116.617 34.4774C116.64 34.5267 116.659 34.577 116.675 34.6283C116.69 34.6765 116.7 34.7256 116.708 34.7752C116.72 34.8268 116.724 34.8859 116.728 34.947H116.724ZM117.851 35.6934V35.2085C117.854 34.9261 117.809 34.6451 117.718 34.3763C117.635 34.1334 117.503 33.9084 117.329 33.7139C117.157 33.5255 116.943 33.3767 116.702 33.2787C116.432 33.1711 116.143 33.1172 115.851 33.1202C115.572 33.1178 115.295 33.1684 115.037 33.2691C114.795 33.3652 114.579 33.5128 114.405 33.7005C114.223 33.9059 114.087 34.1442 114.004 34.4011C113.904 34.7102 113.856 35.0322 113.86 35.3555C113.855 35.6634 113.895 35.9704 113.978 36.268C114.042 36.4976 114.15 36.7142 114.295 36.9074C114.423 37.0711 114.583 37.2098 114.766 37.3159C114.946 37.4164 115.142 37.4892 115.346 37.5316C115.555 37.5742 115.768 37.5947 115.982 37.5927C116.224 37.597 116.465 37.5707 116.7 37.5145C116.895 37.4648 117.081 37.3862 117.251 37.2816C117.424 37.1713 117.583 37.0432 117.726 36.8998L117.03 36.2527C116.944 36.3393 116.847 36.4162 116.742 36.4818C116.643 36.5446 116.534 36.5911 116.419 36.6192C116.279 36.6511 116.135 36.6665 115.992 36.665C115.801 36.6693 115.613 36.6252 115.446 36.5371C115.3 36.4566 115.181 36.3372 115.105 36.1935C115.024 36.0376 114.984 35.8654 114.987 35.6915L117.851 35.6934ZM110.509 35.3498C110.511 35.5162 110.503 35.6826 110.485 35.848C110.469 35.9846 110.432 36.1183 110.376 36.2451C110.326 36.3542 110.243 36.4466 110.138 36.5104C110.012 36.5786 109.869 36.6123 109.724 36.6077C109.584 36.6109 109.445 36.5773 109.323 36.5104C109.218 36.4472 109.136 36.3545 109.089 36.2451C109.033 36.1185 108.997 35.9847 108.982 35.848C108.965 35.6825 108.957 35.5162 108.958 35.3498C108.958 35.1841 108.966 35.0184 108.982 34.8535C108.997 34.7174 109.033 34.5842 109.089 34.4584C109.137 34.3504 109.219 34.2591 109.323 34.1968C109.445 34.1301 109.584 34.097 109.724 34.1014C109.869 34.0963 110.012 34.1293 110.138 34.1968C110.246 34.2582 110.333 34.3494 110.386 34.4584C110.442 34.5844 110.479 34.7175 110.495 34.8535C110.511 35.0184 110.517 35.1842 110.513 35.3498H110.509ZM111.654 37.5374V31.5683H110.509V33.5555C110.373 33.4077 110.204 33.292 110.013 33.2176C109.814 33.1484 109.603 33.1154 109.392 33.1202C109.246 33.1201 109.1 33.1362 108.958 33.168C108.825 33.1976 108.696 33.2438 108.575 33.3054C108.463 33.3599 108.361 33.4308 108.272 33.5154C108.159 33.6254 108.069 33.755 108.006 33.8972C107.941 34.0436 107.895 34.1967 107.867 34.3534C107.839 34.5189 107.821 34.6859 107.815 34.8535C107.815 35.0215 107.803 35.1895 107.805 35.3536C107.807 35.5178 107.805 35.6858 107.815 35.8576C107.821 36.0252 107.839 36.1922 107.867 36.3577C107.895 36.5156 107.941 36.67 108.006 36.8177C108.069 36.9594 108.16 37.0888 108.272 37.1995C108.363 37.2826 108.466 37.3527 108.577 37.4076C108.7 37.4683 108.83 37.5138 108.964 37.5431C109.107 37.5755 109.253 37.5915 109.4 37.5908C109.547 37.5927 109.695 37.578 109.839 37.5469C109.969 37.5167 110.094 37.4671 110.208 37.3999C110.33 37.3262 110.44 37.2355 110.535 37.1308V37.5412L111.654 37.5374ZM101.045 32.9351C101.045 33.0372 101.008 33.1363 100.94 33.2157C100.868 33.3029 100.781 33.3783 100.684 33.439L100.636 33.4715L100.527 33.5421L100.421 33.607C100.345 33.5249 100.279 33.4486 100.22 33.3741C100.163 33.3056 100.113 33.2314 100.072 33.1527C100.034 33.0863 100.014 33.0124 100.012 32.937C100.009 32.8507 100.029 32.7651 100.072 32.6888C100.109 32.6149 100.169 32.554 100.244 32.5151C100.332 32.4691 100.431 32.4467 100.531 32.4502C100.629 32.4472 100.726 32.4696 100.812 32.5151C100.888 32.5548 100.951 32.6153 100.991 32.6888C101.031 32.7651 101.051 32.8497 101.049 32.9351H101.045ZM101.346 36.247C101.217 36.3598 101.068 36.4502 100.906 36.5142C100.748 36.5724 100.58 36.6016 100.411 36.6001C100.244 36.6005 100.079 36.5632 99.9296 36.4913C99.79 36.4247 99.6721 36.323 99.5887 36.1973C99.5041 36.0658 99.4597 35.9144 99.4604 35.7602C99.4589 35.6327 99.4863 35.5064 99.5406 35.3899C99.5951 35.2819 99.6699 35.1842 99.7612 35.1016C99.8642 35.008 99.9756 34.923 100.094 34.8478L101.346 36.247ZM103.953 37.5374L102.828 36.2718C103.047 36.0358 103.211 35.7588 103.311 35.4586C103.422 35.122 103.484 34.7727 103.497 34.4202H102.414C102.409 34.6182 102.379 34.815 102.324 35.0062C102.279 35.172 102.202 35.3285 102.098 35.4681L101.041 34.277L101.177 34.1873L101.325 34.0842C101.374 34.0518 101.41 34.0231 101.442 34.0002L101.49 33.9678C101.613 33.8839 101.727 33.7879 101.829 33.6814C101.922 33.5813 101.997 33.4671 102.051 33.3436C102.107 33.2112 102.134 33.0698 102.132 32.9274C102.136 32.6728 102.066 32.4219 101.931 32.2021C101.802 31.9887 101.61 31.8157 101.38 31.7039C101.115 31.5761 100.822 31.5106 100.525 31.513C100.215 31.507 99.9077 31.5691 99.6268 31.6943C99.3898 31.8008 99.1905 31.9706 99.0532 32.183C98.9182 32.4015 98.8489 32.6511 98.8527 32.9045C98.8533 33.0403 98.8743 33.1753 98.9149 33.3054C98.9531 33.4249 99.0048 33.5402 99.0693 33.649C99.1298 33.7489 99.1968 33.8452 99.2698 33.9372C99.342 34.0251 99.4122 34.1014 99.4704 34.1701C99.3313 34.2592 99.1974 34.3555 99.0693 34.4584C98.9365 34.5647 98.8156 34.6836 98.7083 34.8134C98.5999 34.9458 98.5121 35.0924 98.4476 35.2486C98.3821 35.416 98.3489 35.5931 98.3493 35.7717C98.3396 36.1074 98.4181 36.44 98.5779 36.7395C98.7329 37.0116 98.9744 37.2301 99.2678 37.3636C99.6292 37.5185 100.023 37.5929 100.419 37.5813C100.617 37.583 100.815 37.5638 101.009 37.524C101.163 37.492 101.313 37.4433 101.456 37.3789C101.572 37.3247 101.684 37.2609 101.789 37.188L102.039 36.9971L102.497 37.5164L103.953 37.5374ZM94.0475 37.5374V34.7122C94.0502 34.4961 94.017 34.281 93.9493 34.0747C93.8894 33.8896 93.7905 33.7181 93.6585 33.5707C93.5273 33.4268 93.3634 33.3132 93.1792 33.2386C92.9684 33.1574 92.7427 33.1171 92.5153 33.1202C92.3142 33.12 92.115 33.1583 91.9297 33.2329C91.7364 33.3132 91.5613 33.4286 91.4143 33.5726V31.5683H90.2712V37.5374H91.4143V34.8649C91.4117 34.7411 91.4342 34.618 91.4805 34.5023C91.5145 34.4164 91.5681 34.3388 91.6374 34.275C91.7068 34.2113 91.7902 34.1631 91.8816 34.1339C91.9682 34.1064 92.059 34.0929 92.1503 34.0938C92.242 34.0943 92.3332 34.1071 92.4211 34.1319C92.5091 34.1592 92.5903 34.2034 92.6597 34.2617C92.7365 34.327 92.7956 34.4088 92.8322 34.5004C92.8797 34.6164 92.9022 34.7404 92.8984 34.8649V37.5374H94.0475ZM88.2316 36.9933L87.4675 36.2718C87.3985 36.3436 87.3212 36.4076 87.2369 36.4627C87.1642 36.5111 87.0845 36.549 87.0002 36.5753C86.9115 36.599 86.8196 36.6105 86.7275 36.6097C86.6019 36.6118 86.4773 36.5877 86.3625 36.539C86.2519 36.4889 86.1546 36.4159 86.0777 36.3252C85.9805 36.2103 85.912 36.0758 85.8772 35.932C85.8324 35.7442 85.8115 35.5519 85.815 35.3593C85.8111 35.1668 85.8319 34.9744 85.8772 34.7867C85.9136 34.6469 85.9821 34.5165 86.0777 34.4049C86.1542 34.3139 86.2517 34.2407 86.3625 34.1911C86.4773 34.1425 86.6019 34.1184 86.7275 34.1205C86.8196 34.1196 86.9115 34.1312 87.0002 34.1548C87.0848 34.1803 87.1647 34.2183 87.2369 34.2675C87.3212 34.3225 87.3985 34.3866 87.4675 34.4584L88.2436 33.7215C88.056 33.528 87.826 33.3762 87.5698 33.2768C87.3021 33.1754 87.0155 33.1267 86.7275 33.1336C86.5378 33.1328 86.3486 33.1533 86.1639 33.1947C85.9695 33.24 85.783 33.312 85.6104 33.4085C85.4273 33.5146 85.2663 33.6518 85.1351 33.8132C84.9833 34.0047 84.8704 34.2216 84.8022 34.4526C84.6337 35.0497 84.6337 35.6785 84.8022 36.2756C84.8708 36.5065 84.9837 36.7233 85.1351 36.9151C85.2662 37.0776 85.4272 37.216 85.6104 37.3236C85.7821 37.4222 85.9688 37.495 86.1639 37.5393C86.3486 37.5807 86.5378 37.6012 86.7275 37.6004C87.0156 37.6058 87.3019 37.5564 87.5698 37.4553C87.8262 37.3484 88.0559 37.191 88.2436 36.9933H88.2316ZM83.3723 33.5307C83.2767 33.4376 83.1688 33.3568 83.0514 33.2901C82.9416 33.2296 82.8225 33.1858 82.6984 33.1603C82.5667 33.1331 82.4322 33.1196 82.2974 33.1202C82.1385 33.1209 81.9805 33.1428 81.8281 33.1852C81.6869 33.2252 81.5521 33.283 81.427 33.3569C81.3177 33.4186 81.2201 33.4974 81.1382 33.5898V33.1699H80.0191V37.5374H81.1642V34.905C81.1634 34.7826 81.1858 34.661 81.2304 34.5462C81.2692 34.4524 81.3279 34.3673 81.4029 34.2961C81.4706 34.2325 81.5511 34.1825 81.6395 34.1491C81.7236 34.1166 81.8136 34.1004 81.9043 34.1014C81.9868 34.1001 82.0692 34.1097 82.1489 34.13C82.2163 34.1512 82.2803 34.1807 82.3395 34.2178C82.4008 34.2611 82.4585 34.309 82.5119 34.361L83.3723 33.5307ZM76.5115 35.9282C76.5143 36.0419 76.5015 36.1555 76.4734 36.266C76.4522 36.3482 76.407 36.423 76.343 36.4818C76.2851 36.5383 76.2172 36.5848 76.1425 36.6192C76.0685 36.6496 75.99 36.6689 75.9099 36.6765C75.8161 36.6879 75.7216 36.693 75.6271 36.6917C75.4486 36.7027 75.2718 36.6533 75.1277 36.5524C75.074 36.5069 75.0316 36.4506 75.0039 36.3875C74.9761 36.3244 74.9636 36.2561 74.9673 36.1878C74.9636 36.1194 74.9766 36.0511 75.0051 35.9882C75.0336 35.9253 75.0769 35.8695 75.1317 35.8251C75.2712 35.7307 75.4402 35.6843 75.611 35.6934H76.5175L76.5115 35.9282ZM77.6546 37.5374V34.6626C77.6709 34.447 77.6348 34.2307 77.5493 34.0305C77.4637 33.8302 77.331 33.6514 77.1613 33.5078C76.8304 33.2501 76.345 33.126 75.7013 33.126C75.4768 33.1226 75.2525 33.1399 75.0315 33.1775C74.8453 33.2116 74.6669 33.2761 74.504 33.3684C74.3325 33.4664 74.1776 33.5887 74.0447 33.7311L74.7768 34.4106C74.8457 34.3318 74.9245 34.2613 75.0114 34.2007C75.0942 34.147 75.1866 34.1081 75.2841 34.0861C75.4065 34.0597 75.5317 34.0475 75.6572 34.0499C75.8889 34.0296 76.1206 34.0885 76.311 34.2159C76.3835 34.2828 76.4392 34.3644 76.4739 34.4546C76.5087 34.5449 76.5215 34.6414 76.5115 34.7371V34.9547H75.4285C75.1924 34.9524 74.9573 34.9866 74.7326 35.0558C74.5519 35.1125 74.3859 35.2049 74.2453 35.3269C74.1182 35.439 74.0189 35.5765 73.9545 35.7297C73.8913 35.8862 73.8594 36.0526 73.8602 36.2202C73.8586 36.4055 73.8912 36.5897 73.9565 36.7643C74.0179 36.9276 74.1142 37.0771 74.2393 37.2033C74.3787 37.3336 74.5474 37.4322 74.7326 37.4915C75.1015 37.5971 75.4918 37.6154 75.8698 37.545C75.9952 37.5162 76.1155 37.4699 76.2267 37.4076C76.3397 37.3398 76.444 37.2597 76.5376 37.1689V37.5507L77.6546 37.5374ZM70.86 34.947H69.1173C69.1181 34.8895 69.1234 34.832 69.1333 34.7752C69.1388 34.7253 69.1495 34.6761 69.1654 34.6283C69.1794 34.5805 69.1995 34.5309 69.2215 34.4774C69.263 34.3911 69.3201 34.3123 69.39 34.2446C69.4626 34.1757 69.5493 34.1218 69.6447 34.0861C69.866 34.0048 70.1113 34.0048 70.3326 34.0861C70.428 34.1218 70.5147 34.1757 70.5873 34.2446C70.6572 34.3123 70.7142 34.3911 70.7557 34.4774C70.7774 34.5267 70.7961 34.577 70.8119 34.6283C70.827 34.6763 70.8378 34.7254 70.844 34.7752C70.8538 34.832 70.8591 34.8895 70.86 34.947ZM71.9871 35.6934V35.2085C71.9903 34.9261 71.9456 34.6451 71.8547 34.3763C71.7726 34.1331 71.6404 33.9079 71.4657 33.7139C71.2948 33.5252 71.0808 33.3763 70.84 33.2787C70.5708 33.1713 70.2815 33.1174 69.9896 33.1202C69.7099 33.1176 69.4323 33.1682 69.1734 33.2691C68.9317 33.3653 68.7163 33.5129 68.5437 33.7005C68.3617 33.9059 68.2253 34.1442 68.1426 34.4011C68.0419 34.71 67.9931 35.0321 67.9982 35.3555C67.9929 35.6633 68.032 35.9703 68.1145 36.268C68.1787 36.4976 68.2861 36.7142 68.4314 36.9074C68.5607 37.0707 68.7213 37.2093 68.9047 37.3159C69.084 37.4164 69.279 37.4892 69.4823 37.5316C69.6918 37.5742 69.9057 37.5947 70.12 37.5927C70.3612 37.5969 70.602 37.5706 70.836 37.5145C71.0316 37.4651 71.2178 37.3865 71.3875 37.2816C71.5601 37.1713 71.7195 37.0432 71.8628 36.8998L71.1669 36.2527C71.0804 36.3388 70.9842 36.4156 70.8801 36.4818C70.781 36.5439 70.6719 36.5903 70.5572 36.6192C70.4173 36.651 70.2738 36.6663 70.13 36.665C69.9389 36.669 69.75 36.6249 69.5825 36.5371C69.4362 36.4566 69.3177 36.3372 69.2416 36.1935C69.1621 36.0371 69.1223 35.8652 69.1253 35.6915L71.9871 35.6934ZM66.117 36.163C66.1255 36.0011 66.0997 35.8393 66.0411 35.6871C65.9826 35.535 65.8924 35.3956 65.7761 35.2773C65.494 35.0346 65.1313 34.894 64.7513 34.8802L64.0293 34.8134C63.924 34.8077 63.821 34.7817 63.7265 34.7371C63.6671 34.7044 63.619 34.656 63.5881 34.5977C63.5653 34.5471 63.5537 34.4925 63.554 34.4374C63.5531 34.3635 63.577 34.2913 63.6222 34.2312C63.6757 34.1614 63.7496 34.1083 63.8348 34.0785C63.953 34.0349 64.0791 34.0142 64.2058 34.0174C64.34 34.0156 64.4741 34.0239 64.6069 34.0422C64.7325 34.0592 64.8557 34.0899 64.9739 34.1339C65.0862 34.1745 65.1896 34.2347 65.2787 34.3114L65.9847 33.6318C65.8406 33.5034 65.6744 33.3994 65.4933 33.3245C65.3055 33.2472 65.108 33.1933 64.9057 33.1641C64.6827 33.1325 64.4574 33.1178 64.2319 33.1202C64.0052 33.1194 63.7796 33.1496 63.562 33.21C63.3585 33.2667 63.167 33.3572 62.9965 33.4772C62.8333 33.5918 62.7002 33.7408 62.6074 33.9124C62.5081 34.1092 62.4581 34.3252 62.4612 34.5434C62.4643 34.7617 62.5206 34.9763 62.6255 35.1704C62.7332 35.3434 62.8942 35.4807 63.0867 35.5636C63.312 35.661 63.5538 35.7192 63.8007 35.7354L64.5227 35.8022C64.6601 35.8056 64.7926 35.8519 64.8997 35.9339C64.9367 35.9692 64.9654 36.0117 64.9837 36.0585C65.0021 36.1052 65.0096 36.1552 65.006 36.205C65.0079 36.2799 64.9832 36.3532 64.9358 36.413C64.8866 36.4739 64.8226 36.5224 64.7493 36.5543C64.6671 36.5911 64.5801 36.6175 64.4906 36.6326C64.3933 36.6495 64.2946 36.6578 64.1958 36.6574C64.0655 36.6591 63.9353 36.6502 63.8067 36.6306C63.6601 36.6103 63.5171 36.5711 63.3815 36.5142C63.2321 36.4488 63.0962 36.3582 62.9804 36.247L62.2324 36.959C62.366 37.0882 62.517 37.1999 62.6816 37.2911C62.8307 37.3741 62.9905 37.4383 63.1569 37.482C63.3207 37.526 63.4886 37.5548 63.6583 37.5679C63.8342 37.5846 64.011 37.5916 64.1878 37.5889C64.4439 37.5907 64.6992 37.5618 64.9478 37.503C65.1689 37.4501 65.3786 37.3609 65.5675 37.2396C65.7407 37.1244 65.8829 36.9721 65.9827 36.7948C66.0797 36.5974 66.1257 36.3808 66.117 36.163ZM59.3405 34.947H57.5957C57.5957 34.884 57.5957 34.8268 57.6117 34.7752C57.6191 34.7256 57.6299 34.6765 57.6438 34.6283C57.6599 34.5805 57.6779 34.5309 57.702 34.4774C57.7421 34.3908 57.7985 34.3119 57.8684 34.2446C57.9414 34.1761 58.028 34.1222 58.1231 34.0861C58.3445 34.0048 58.5897 34.0048 58.811 34.0861C58.9064 34.1218 58.9931 34.1757 59.0657 34.2446C59.1363 34.3118 59.1934 34.3907 59.2342 34.4774C59.2564 34.5267 59.2759 34.577 59.2923 34.6283C59.3065 34.6765 59.3172 34.7256 59.3244 34.7752C59.3325 34.8268 59.3365 34.8859 59.3405 34.947ZM60.4676 35.6934V35.2085C60.4708 34.9261 60.4261 34.6451 60.3352 34.3763C60.2523 34.1334 60.1201 33.9084 59.9461 33.7139C59.7741 33.5255 59.5595 33.3767 59.3184 33.2787C59.0493 33.1711 58.7599 33.1172 58.4681 33.1202C58.189 33.1176 57.9121 33.1682 57.6539 33.2691C57.4112 33.3648 57.195 33.5124 57.0221 33.7005C56.8393 33.9054 56.7028 34.1439 56.621 34.4011C56.5194 34.7099 56.47 35.032 56.4746 35.3555C56.4699 35.6634 56.5097 35.9704 56.593 36.268C56.6563 36.4979 56.7637 36.7147 56.9098 36.9074C57.0382 37.0716 57.1989 37.2104 57.3831 37.3159C57.5623 37.4167 57.7573 37.4895 57.9607 37.5316C58.1696 37.5742 58.3828 37.5947 58.5964 37.5927C58.8377 37.597 59.0785 37.5707 59.3124 37.5145C59.5087 37.4651 59.6955 37.3865 59.8659 37.2816C60.0382 37.1708 60.1975 37.0428 60.3412 36.8998L59.6473 36.2546C59.5602 36.3408 59.4633 36.4176 59.3585 36.4837C59.2604 36.5462 59.1519 36.5926 59.0377 36.6211C58.8971 36.6529 58.753 36.6683 58.6085 36.6669C58.4173 36.6709 58.2284 36.6268 58.061 36.539C57.9152 36.4584 57.7974 36.339 57.722 36.1954C57.6409 36.0395 57.6004 35.8673 57.6037 35.6934H60.4676ZM170.222 37.5374V36.6154H169.809C169.754 36.6198 169.699 36.6131 169.647 36.5957C169.595 36.5782 169.548 36.5505 169.508 36.5142C169.438 36.4322 169.403 36.3276 169.412 36.2221V34.1224H170.214V33.292H169.412V32.0017H168.267V33.292H167.781V34.1224H168.267V36.2851C168.267 36.4401 168.293 36.5941 168.343 36.7414C168.393 36.8883 168.475 37.024 168.582 37.1403C168.695 37.2645 168.836 37.3624 168.995 37.4266C169.185 37.5015 169.39 37.5379 169.596 37.5335L170.222 37.5374ZM165.786 37.5374V34.7447C165.788 34.5919 165.776 34.4392 165.75 34.2885C165.721 34.1455 165.673 34.0069 165.606 33.8762C165.532 33.7356 165.436 33.6068 165.321 33.4944C165.188 33.3724 165.029 33.2781 164.855 33.2176C164.658 33.1483 164.448 33.1133 164.238 33.1145C164.096 33.1146 163.955 33.1319 163.819 33.1661C163.541 33.23 163.289 33.3693 163.093 33.5669V33.1641H161.974V37.5316H163.119V34.8974C163.116 34.7672 163.139 34.6376 163.187 34.5156C163.225 34.4218 163.286 34.338 163.365 34.2713C163.437 34.21 163.522 34.1638 163.614 34.1358C163.701 34.1084 163.793 34.0948 163.885 34.0957C163.977 34.0959 164.068 34.1094 164.156 34.1358C164.251 34.1661 164.337 34.2161 164.41 34.2821C164.482 34.3481 164.539 34.4285 164.575 34.5175C164.623 34.6394 164.645 34.7691 164.641 34.8993V37.5393L165.786 37.5374ZM158.648 34.947H156.914C156.914 34.884 156.914 34.8268 156.93 34.7752C156.937 34.7256 156.948 34.6765 156.962 34.6283C156.978 34.5805 156.996 34.5309 157.02 34.4774C157.061 34.3907 157.118 34.3118 157.188 34.2446C157.261 34.1757 157.348 34.1218 157.443 34.0861C157.552 34.0441 157.669 34.0234 157.786 34.025C157.904 34.023 158.02 34.0438 158.129 34.0861C158.225 34.1218 158.312 34.1757 158.386 34.2446C158.456 34.3119 158.512 34.3908 158.552 34.4774C158.575 34.5263 158.595 34.5767 158.61 34.6283C158.625 34.6765 158.635 34.7256 158.642 34.7752C158.648 34.8323 158.65 34.8897 158.648 34.947ZM159.776 35.6934V35.2085C159.779 34.9261 159.734 34.6451 159.643 34.3763C159.56 34.1334 159.428 33.9084 159.254 33.7139C159.082 33.526 158.869 33.3773 158.628 33.2787C158.359 33.1711 158.069 33.1172 157.776 33.1202C157.497 33.1176 157.22 33.1682 156.962 33.2691C156.72 33.3658 156.504 33.5133 156.33 33.7005C156.147 33.9054 156.011 34.1439 155.929 34.4011C155.827 34.7099 155.778 35.032 155.783 35.3555C155.778 35.6634 155.818 35.9704 155.901 36.268C155.964 36.4979 156.072 36.7147 156.218 36.9074C156.346 37.0711 156.506 37.2098 156.689 37.3159C156.869 37.4161 157.065 37.4889 157.269 37.5316C157.478 37.5742 157.692 37.5947 157.906 37.5927C158.148 37.5969 158.388 37.5706 158.622 37.5145C158.818 37.4651 159.004 37.3865 159.174 37.2816C159.347 37.1713 159.506 37.0432 159.649 36.8998L158.953 36.2527C158.867 36.3388 158.771 36.4156 158.667 36.4818C158.567 36.5439 158.458 36.5903 158.344 36.6192C158.203 36.651 158.059 36.6663 157.914 36.665C157.724 36.6693 157.536 36.6252 157.369 36.5371C157.223 36.4566 157.104 36.3372 157.028 36.1935C156.95 36.0393 156.911 35.8701 156.914 35.6991L159.776 35.6934ZM55.1771 33.5307C55.0811 33.4381 54.9733 33.3573 54.8562 33.2901C54.7462 33.2299 54.6272 33.1862 54.5032 33.1603C54.3715 33.1331 54.237 33.1196 54.1021 33.1202C53.7956 33.1195 53.4952 33.2015 53.2358 33.3569C53.1275 33.4192 53.0306 33.4978 52.949 33.5898V33.1699H51.8259V37.5374H52.971V34.905C52.9685 34.7856 52.9882 34.6667 53.0292 34.5538C53.0673 34.4601 53.1253 34.375 53.1997 34.3037C53.2681 34.2401 53.3492 34.1901 53.4383 34.1568C53.5223 34.1241 53.6123 34.1079 53.703 34.109C53.7849 34.1077 53.8666 34.1173 53.9457 34.1377C54.0166 34.1577 54.0841 34.1873 54.1463 34.2255C54.2072 34.2693 54.2648 34.3171 54.3187 34.3686L55.1771 33.5307ZM59.164 15.3525H48.7354V25.2786H59.164V15.3525ZM174.592 15.4652H184.922V25.2844H174.592V15.4652ZM169.233 30.2512H184.922V32.7633H174.528V37.7015H190.141V10.3418H169.233V30.2512ZM201.143 30.4173V10.3857H222V15.3487H206.357V25.2748H222V30.2379L201.143 30.4173ZM198.157 2.90677H192.942V7.86982H198.157V2.90677ZM198.157 30.2283H192.942V10.3762H198.157V30.2283ZM161.031 15.3296H150.622V25.2844H161.031V15.3296ZM145.404 10.3857H166.261V30.2512H145.482V10.3857H145.404ZM137.362 30.2379H142.576V0.42334H137.362V30.2379ZM129.573 14.7551H119.13V18.422H129.573V14.7551ZM113.912 30.2531V10.3418H134.791V22.8315H119.13V25.2844H129.513V30.2474L113.912 30.2531ZM96.1573 30.2379L90.943 30.2818V10.3991H111.818V15.3525H96.1573V30.2379ZM67.1799 30.2818V10.3418H72.3942V25.2844H82.8549V10.3952H88.0692V30.2474L67.1799 30.2818ZM48.7294 37.7034H43.5151V10.4067H64.3803V30.2799H48.7374L48.7294 37.7034Z" fill="#3C3C3B"/>
</svg>
