<svg width="19" height="19" viewBox="0 0 19 19" fill="none" xmlns="http://www.w3.org/2000/svg">
<path d="M12.6878 2.17386C9.78934 -0.724619 5.07186 -0.724619 2.17339 2.17386C-0.724462 5.07296 -0.724462 9.78982 2.17339 12.6889C4.75455 15.2695 8.77459 15.5459 11.6712 13.5309C11.7321 13.8193 11.8716 14.0945 12.0959 14.3188L16.317 18.5399C16.9322 19.1538 17.9262 19.1538 18.5382 18.5399C19.1527 17.9254 19.1527 16.9314 18.5382 16.3188L14.3171 12.0964C14.094 11.874 13.8182 11.7339 13.5298 11.6729C15.5461 8.7757 15.2696 4.75628 12.6878 2.17386ZM11.3551 11.3562C9.19118 13.5202 5.6694 13.5202 3.50607 11.3562C1.34336 9.19228 1.34336 5.67113 3.50607 3.50717C5.6694 1.34384 9.19118 1.34384 11.3551 3.50717C13.5191 5.67113 13.5191 9.19228 11.3551 11.3562Z" fill="#3C3C3B"/>
</svg>
