<svg width="19" height="20" viewBox="0 0 19 20" fill="none" xmlns="http://www.w3.org/2000/svg">
<path d="M9.16724 10.0625C10.1623 10.0625 11.1351 9.76742 11.9624 9.21458C12.7898 8.66174 13.4347 7.87597 13.8155 6.95663C14.1963 6.03729 14.2959 5.02567 14.1018 4.0497C13.9077 3.07374 13.4285 2.17725 12.7249 1.47362C12.0212 0.769988 11.1248 0.290808 10.1488 0.0966763C9.17282 -0.0974556 8.1612 0.00217997 7.24186 0.382983C6.32252 0.763787 5.53675 1.40865 4.9839 2.23604C4.43106 3.06342 4.13599 4.03617 4.13599 5.03125C4.13754 6.36515 4.66811 7.64396 5.61132 8.58717C6.55452 9.53038 7.83334 10.061 9.16724 10.0625ZM9.16724 2.09375C9.74814 2.09375 10.316 2.26601 10.799 2.58874C11.282 2.91148 11.6585 3.37019 11.8808 3.90688C12.1031 4.44356 12.1612 5.03412 12.0479 5.60386C11.9346 6.17361 11.6548 6.69695 11.2441 7.10771C10.8333 7.51847 10.31 7.79821 9.74024 7.91154C9.1705 8.02486 8.57994 7.9667 8.04325 7.7444C7.50657 7.52209 7.04785 7.14564 6.72512 6.66263C6.40239 6.17963 6.23013 5.61177 6.23013 5.03086C6.23106 4.25221 6.54081 3.50573 7.09144 2.95518C7.64206 2.40463 8.38859 2.09497 9.16724 2.09414V2.09375Z" fill="#3C3C3B"/>
<path d="M2.09456 20C2.09456 16.1 5.26722 12.9273 9.16722 12.9273C13.0672 12.9273 16.2399 16.1 16.2399 20H18.334C18.3339 18.187 17.7962 16.4148 16.7889 14.9074C15.7816 13.4 14.35 12.2251 12.675 11.5313C11 10.8375 9.15695 10.656 7.37879 11.0096C5.60064 11.3632 3.96726 12.2361 2.68519 13.518C1.83125 14.3672 1.15424 15.3774 0.693328 16.49C0.23242 17.6027 -0.00322444 18.7957 3.33223e-05 20H2.09456Z" fill="#3C3C3B"/>
</svg>
