<svg width="17" height="16" viewBox="0 0 17 16" fill="none" xmlns="http://www.w3.org/2000/svg">
<g clip-path="url(#clip0)">
<path d="M16.7638 14.1082L11.6375 9.27164C11.5132 9.15442 11.3448 9.08858 11.1691 9.08858C11.0083 9.08858 10.854 9.14423 10.7337 9.24339L10.0104 8.56099C11.7385 6.49855 11.6127 3.47745 9.56946 1.54967C9.56946 1.54967 9.56946 1.54967 9.56943 1.54967C7.38394 -0.512295 3.82785 -0.512357 1.64226 1.54967C-0.548232 3.61639 -0.548563 6.96177 1.64226 9.0288C3.65655 10.9292 6.86051 11.0904 9.07323 9.44445L9.79698 10.1273C9.56936 10.3728 9.57883 10.7459 9.82689 10.9799L14.9532 15.8165C15.2117 16.0604 15.6313 16.0605 15.89 15.8165L16.3268 15.4043C16.3268 15.4043 16.3269 15.4043 16.3269 15.4043C16.3269 15.4043 16.3269 15.4042 16.3269 15.4042L16.7637 14.992C17.0224 14.748 17.0224 14.3523 16.7638 14.1082ZM8.63267 8.14492C6.95984 9.7232 4.25215 9.72339 2.57909 8.14492C0.90629 6.56673 0.905992 4.01195 2.57909 2.43345C4.24801 0.858861 6.96365 0.858768 8.63267 2.43345C10.3055 4.01167 10.3058 6.56645 8.63267 8.14492Z" fill="white"/>
</g>
<defs>
<clipPath id="clip0">
<rect width="16.9585" height="16" fill="white" transform="translate(-0.000732422)"/>
</clipPath>
</defs>
</svg>
