<svg width="33" height="22" viewBox="0 0 33 22" fill="none" xmlns="http://www.w3.org/2000/svg">
<path d="M31.227 9.13031V2.62606C31.227 2.02736 30.7519 1.54202 30.1659 1.54202H24.3303C24.3228 1.54202 24.317 1.54581 24.3101 1.54636C24.2497 1.54715 24.1899 1.5587 24.1334 1.5805L24.1239 1.5843L21.8151 2.5285C21.4108 2.69146 21.1457 3.091 21.1472 3.53503V3.7101H18.4946C18.2016 3.7101 17.9641 3.95277 17.9641 4.25212C17.9641 4.55147 18.2016 4.79414 18.4946 4.79414H21.1472V4.96922C21.1457 5.41306 21.4106 5.81249 21.8146 5.97575L23.7997 6.78715V9.13031H18.4946C18.4946 8.83096 18.2571 8.58829 17.9641 8.58829H16.903V5.33616C16.903 5.03681 16.6655 4.79414 16.3725 4.79414H13.1894C12.8964 4.79414 12.6589 5.03681 12.6589 5.33616V8.58829H11.5979C11.3049 8.58829 11.0674 8.83096 11.0674 9.13031H7.35374V7.50425H8.41478C8.70777 7.50425 8.94529 7.26158 8.94529 6.96223H10.0063C10.5923 6.96223 11.0674 6.47688 11.0674 5.87819V2.62606C11.0674 2.02736 10.5923 1.54202 10.0063 1.54202H8.94529C8.94529 1.24267 8.70777 1 8.41478 1H1.51806C0.932072 1 0.457031 1.48534 0.457031 2.08404V12.9245C0.457031 12.9375 0.463397 12.9488 0.464458 12.9619C0.46552 12.9749 0.460214 12.9841 0.461806 12.996L1.46183 20.6553C1.53178 21.194 1.98138 21.5966 2.51331 21.5968H6.29271C6.8787 21.5968 7.35374 21.1114 7.35374 20.5127H23.7997C23.7997 21.1114 24.2748 21.5968 24.8608 21.5968H30.2317C30.7635 21.5966 31.213 21.1944 31.2832 20.6558L32.2832 12.996C32.2832 12.9841 32.2801 12.9732 32.2806 12.9619C32.2811 12.9505 32.288 12.9375 32.288 12.9245V10.2143C32.288 9.61565 31.813 9.13031 31.227 9.13031ZM22.2082 4.96867V3.53557L23.7997 2.88515V5.6191L22.2082 4.96867ZM24.8608 6.42021V2.62606H30.1659V9.13031H24.8608V6.42021ZM24.3303 10.2143H31.227V12.3824H18.4946V10.2143H24.3303ZM23.7997 15.0925H7.35374V13.4665H11.0674C11.0674 13.7658 11.3049 14.0085 11.5979 14.0085H17.9641C18.2571 14.0085 18.4946 13.7658 18.4946 13.4665H23.7997V15.0925ZM13.7199 5.87819H15.842V8.58829H13.7199V5.87819ZM13.1894 9.67233H17.4336V12.9245H12.1284V9.67233H13.1894ZM11.0674 10.2143V12.3824H7.35374V10.2143H11.0674ZM10.0063 2.62606V5.87819H8.94529V2.62606H10.0063ZM1.51806 2.08404H7.88426V6.42021H3.10961C2.81662 6.42021 2.5791 6.66288 2.5791 6.96223C2.5791 7.26158 2.81662 7.50425 3.10961 7.50425H6.29271V12.3824H1.51806V2.08404ZM6.29271 20.5127H2.51331L1.59393 13.4665H6.29271V20.5127ZM7.35374 19.4287V16.1766H23.7997V19.4287H7.35374ZM30.2323 20.5127H24.8608V13.4665H31.1511L30.2323 20.5127Z" fill="#3C3C3B" stroke="#3C3C3B" stroke-width="0.5"/>
<path d="M22.2082 17.2607H12.1284C11.8354 17.2607 11.5978 17.5036 11.5978 17.8031C11.5978 18.1026 11.8354 18.3454 12.1284 18.3454H22.2082C22.5012 18.3454 22.7387 18.1026 22.7387 17.8031C22.7387 17.5036 22.5012 17.2607 22.2082 17.2607Z" fill="#3C3C3B" stroke="#3C3C3B" stroke-width="0.5"/>
<path d="M10.0064 17.2607H8.94537C8.65238 17.2607 8.41486 17.5036 8.41486 17.8031C8.41486 18.1026 8.65238 18.3454 8.94537 18.3454H10.0064C10.2994 18.3454 10.5369 18.1026 10.5369 17.8031C10.5369 17.5036 10.2994 17.2607 10.0064 17.2607Z" fill="#3C3C3B" stroke="#3C3C3B" stroke-width="0.5"/>
<path d="M13.7198 11.8412H15.8419C16.1349 11.8412 16.3724 11.5984 16.3724 11.2989C16.3724 10.9994 16.1349 10.7566 15.8419 10.7566H13.7198C13.4269 10.7566 13.1893 10.9994 13.1893 11.2989C13.1893 11.5984 13.4269 11.8412 13.7198 11.8412Z" fill="#3C3C3B" stroke="#3C3C3B" stroke-width="0.5"/>
</svg>
